<?xml version="1.0" encoding="UTF-8"?>
<svg id="Layer_1" data-name="Layer 1" xmlns="http://www.w3.org/2000/svg" viewBox="0 0 335.43 307.19">
  <defs>
    <style>
      .cls-1 {
        fill: #696969;
      }

      .cls-2 {
        fill: #676767;
      }

      .cls-3 {
        fill: #6a6a6a;
      }

      .cls-4 {
        fill: #e9e9e9;
      }

      .cls-5 {
        fill: #e3e3e3;
      }

      .cls-6 {
        fill: #f1f1f1;
      }

      .cls-7 {
        fill: #6b6b6b;
      }

      .cls-8 {
        fill: #979797;
      }

      .cls-9 {
        fill: #8b8b8b;
      }

      .cls-10 {
        fill: #929292;
      }

      .cls-11 {
        fill: #848484;
      }

      .cls-12 {
        fill: #b4b4b4;
      }

      .cls-13 {
        fill: #b7b7b7;
      }

      .cls-14 {
        fill: #9e9e9e;
      }

      .cls-15 {
        fill: #b9b9b9;
      }

      .cls-16 {
        fill: #c2c2c2;
      }

      .cls-17 {
        fill: #909090;
      }

      .cls-18 {
        fill: #b6b6b6;
      }

      .cls-19 {
        fill: #303030;
      }

      .cls-20 {
        fill: #8d8d8d;
      }

      .cls-21 {
        fill: #8c8c8c;
      }

      .cls-22 {
        fill: #939393;
      }

      .cls-23 {
        fill: #a9a9a9;
      }

      .cls-24 {
        fill: #a6a6a6;
      }

      .cls-25 {
        fill: #b1b1b1;
      }

      .cls-26 {
        fill: #a7a7a7;
      }

      .cls-27 {
        fill: #d8d8d8;
      }

      .cls-28 {
        fill: #a5a5a5;
      }

      .cls-29 {
        fill: #aeaeae;
      }

      .cls-30 {
        fill: #bdbdbd;
      }

      .cls-31 {
        fill: #ababab;
      }

      .cls-32 {
        fill: #ccc;
      }

      .cls-33 {
        fill: #cacaca;
      }

      .cls-34 {
        fill: #d0d0d0;
      }

      .cls-35 {
        fill: #cfcfcf;
      }

      .cls-36 {
        fill: #c7c7c7;
      }

      .cls-37 {
        fill: #c3c3c3;
      }

      .cls-38 {
        fill: #c4c4c4;
      }

      .cls-39 {
        fill: #d6d6d6;
      }

      .cls-40 {
        fill: #dcdcdc;
      }

      .cls-41 {
        fill: #d9d9d9;
      }

      .cls-42 {
        fill: #afafaf;
      }

      .cls-43 {
        fill: #e0e0e0;
      }

      .cls-44 {
        fill: #adadad;
      }

      .cls-45 {
        fill: #c5c5c5;
      }

      .cls-46 {
        fill: #c6c6c6;
      }

      .cls-47 {
        fill: #e1e1e1;
      }

      .cls-48 {
        fill: #c8c8c8;
      }

      .cls-49 {
        fill: #a8a8a8;
      }

      .cls-50 {
        fill: #121212;
      }

      .cls-51 {
        fill: #444;
      }

      .cls-52 {
        fill: #454545;
      }

      .cls-53 {
        fill: #949494;
      }

      .cls-54 {
        fill: #959595;
      }

      .cls-55 {
        fill: #9a9a9a;
      }

      .cls-56 {
        fill: #898989;
      }

      .cls-57 {
        fill: #888;
      }

      .cls-58 {
        fill: #878787;
      }

      .cls-59 {
        fill: #555;
      }

      .cls-60 {
        fill: #626262;
      }

      .cls-61 {
        fill: #292929;
      }

      .cls-62 {
        fill: #595959;
      }

      .cls-63 {
        fill: #565656;
      }

      .cls-64 {
        fill: #3b3b3b;
      }

      .cls-65 {
        fill: #3d3d3d;
      }

      .cls-66 {
        fill: #585858;
      }

      .cls-67 {
        fill: #616161;
      }

      .cls-68 {
        fill: #494949;
      }

      .cls-69 {
        fill: #7b7b7b;
      }

      .cls-70 {
        fill: #4e4e4e;
      }
    </style>
  </defs>
  <path class="cls-40" d="m201.49,253.87c-3.6,0-6.13-3.24-9.73-3.24-.27-2.54.29-52.99.25-55.53-.08-6.24.93-12.34,2.47-18.36.06-.23.08-.56.3-.62,1.2-.37,1.45-1.63,2.25-2.33,1.43-1.25,2.16-2.83,2.78-4.53.08-.23.16-.45.26-.67.21-.45.46-.87,1.06-.79.54.08.63.56.76.97.12.39.13.8.1,1.19-.64,7.41-.03,14.83-.27,20.73,0-4.91.01-11.34,0-17.76,0-1.63.55-3.25.07-4.9-.11-.39.18-.85.67-1.02.13-.03.27-.02.4.02.37.18.33.52.32.85-.02.49.18.83.67.97.79.14.79-.63,1.13-.99.54-.32.87-.04,1.14.4.11.33.27.65.23,1.02-.25.45-.5.91-1.01,1.13-1.1.36-1.57,1.17-1.57,2.29,0,.2,0,.4,0,.6.01,9.07-.4,18.14-.25,27.22.01.78-1.27,52.76-2.02,53.36Z"/>
  <path class="cls-4" d="m201.49,253.87c0-5.83,1.29-62.81,1.48-68.63.15-4.55.2-9.1.17-13.65-.01-1.68,1.18-1.5,2.18-1.72.57-.31,1.2-.41,1.83-.5,1.89-.28,2.12-.08,2.12,1.89,0,6.59,0,13.18,0,19.77,0,3.51,0,7.03,0,10.54,0,.39-.98,51.93-1.2,52.31h-6.59Z"/>
  <path class="cls-35" d="m202.92,167.22c-.81.47-.64,1.18-.31,1.77.29.5.21.81-.02,1.29-.44.9-.65,1.86-.64,2.89.03,6.52.01,13.04,0,19.55,0,.54.11,1.11-.42,1.94-.2-9,.15-17.68-.22-26.48-.72.26-.77.73-.88,1.11-.53,1.88-1.31,3.59-2.91,4.82-.26.2-.5.45-.51.78-.02,1.03-.34,1.72-1.56,1.58-.21-.03-.35.16-.39.38-.43,2.51-1.16,4.95-1.59,7.47-.39,2.22-.39,4.52-1.19,6.68-.17.47-.16,1.02-.16,1.54-.01,3.4,0,6.8,0,10.2h-.24c0-5.68,0-11.36,0-17.04-.55-1.2-.55-2.4,0-3.6,0-2.88,0-5.76.01-8.64.26-1.7.07-3.42.1-5.13,0-.51.23-.83.48-1.25,1.02-1.73,2.48-2.73,4.35-3.4,1.13-.41,1.68-1.67,2.22-2.7.44-.84,1-.88,1.75-.85.76.04,1.06.53,1.23,1.17.12.46.09.96.41,1.36-.09.97.69,1.3,1.3,1.75.15.58.1,1.21.47,1.72.1.98-.48,1.16-1.27,1.08Z"/>
  <path class="cls-43" d="m209.32,157.73c.14.03.24.09.33.2.33,1.08.66,2.17.39,3.32-.04.2-.02.41,0,.61.1.53-.32.88-.48,1.31-.06.99-.12,1.97-.17,2.96-.02.52-.02,1.03.2,1.52-.21.4-.22.84-.22,1.28,0,11.26.01,22.53.02,33.79-.08,0-1.32,51.13-.24,0,0-10.22,0-20.45,0-30.67,0-.48,0-.96-.05-1.43-.06-.53-.38-1.01-.94-.81-.97.34-1.9.04-2.84.04.24-.24.48-.48.72-.73.06-.1.01-.25.07-.32.43-.55-.26-.22-.3-.39-.18-.25-.39-.43-.72-.25-.35.51-.87.32-1.34.34-.74-.14-.45-.92-.82-1.29.17-.47.88-.4.96-.96.44-.85,1.18-.65,1.72-.3.97.61,1.88.26,3.22.13-1.9-1.1-3.62-1.99-3.1-4.33-.11.81-.47,2.03-.81,2.37-.41.41-.81.95-1.51.44-.03-.02-.07-.04-.1-.05q-1.42-.23-1.09-1.62c0-.47.26-.67.7-.7"/>
  <path class="cls-43" d="m202.02,161.31c-.35-.33,1.33.14,1.05.18-1.34-.11-2.06-1.73-1.19-2.91.49-.67.57-1.1.01-1.75-.45-.52-.42-1.18.05-1.74.28-.34.57-.66.71-1.09.34-1.08.39-2.2.41-3.32.03-1.82.55-2.39,2.31-2.85,1.05-.27,2.1-.44,3.19-.4.65.02.88.3.9.97.08,2.67.06,5.34.08,8.02,0,.69-.1,1.27-.77,1.6-.78.39,1.13,1.07.65.71-.33.51-.43.25-1.34.45,1.27.49-.03,1.66,0,2.51"/>
  <path class="cls-16" d="m191.88,167.94c0-.72,0-1.44.01-2.15-.21-2.25-.09-4.51-.13-6.76-.01-.71.06-1.33.71-1.78.46-.32.66-.9,1.01-1.33.58-.7,1.03-.69,1.67-.05.74.73,1.12,1.51.96,2.65-.22,1.55-.56,3.16.2,4.67.73-.04.46-.62.47-.96.04-1.46.03-2.93.01-4.4-.05-.72.27-1.27.96-1.38.68-.11,1,.46,1.2,1.04.23.64.13-2.51.87-2.17-.79-1.57-.31,1.74.79.51.27-.3.47-.63.53-1.03.04-.11.09-.21.15-.3.13-.1.27-.2.4-.31.26-.25.49-.51.65-.85.14-.32.36-.55.71-.18.05.53-.15,1.08.13,1.59-.14.35-.56.26-.78.5-.39.41-.55.81.06,1.15.27.15.72.23.66.59-.11.71-.12,1.41-.05,2.12,0,.04-.11.1-.18.13-1.23.58-1.23.92.02,2,.45.4.45.8,0,1.2-.24.16-.48.32-.71.48-.35.12-.73.3-.75-.33,0-.36.02-.72,0-1.08-.03-.68-.4-1.06-1.09-.93-.7.13-.85.64-.65,1.27.06.18.17.35.34.71-1.44-.64-1.89.35-2.23,1.24-.32.83-.82,1.08-1.63,1.03-1.19-.07-1.94.52-2.36,1.62-.12.32-.31.76-.58.87-1.2.48-1.13,1.44-1.15,2.46-.02,1.22.24,2.47-.22,3.67,0-1.84,0-3.68-.01-5.52Z"/>
  <path class="cls-4" d="m205.81,168.42c.35-.67.79-1.2,1.66-.97.32.08.6.25.61.62,0,.41-.3.53-.63.55-.52.04-1.02.1-1.4.5-.08-.24-.16-.47-.24-.71Z"/>
  <path class="cls-35" d="m202.92,167.22c.58.07.72.46.72.96.1.06.21.1.33.12.38.07,1.08-.2.97.49-.09.55-.62.92-1.29.57-.8-.52-1.2-1.18-.73-2.14Z"/>
  <path class="cls-4" d="m203.65,169.36c.39-.03.88-.07.92-.52.05-.6-.68-.34-.93-.66.48,0,.96,0,1.44,0,.21.37.33.79-.07,1.07-.4.28-.87.62-1.37.11Z"/>
  <path class="cls-57" d="m245.3,125.49c-.02-1.36.02-2.72.07-4.08.01-.29-.02-.52-.18-.78-1.08-1.69-1.07-1.69.16-3.16.18-.8.21-1.6-.17-2.37-.19-.29-.48-.48-.78-.4-1.25.34-2.55.15-3.81.36-.05.06-.11.13-.16.19,0-.76.15-1.28,1.1-.83.36.17.79.11,1.19.08.81-.05,1.36-.52,1.63-1.22.28-.74,0-1.39-.62-1.91-.6-.49-1.32-.74-2.01-1.05-1.12-.5-1.85-1.27-1.66-2.6.05-.39,0-.71-.35-.95-.4-.22-.72.05-1.07.16-.11.06-.19.15-.26.26.03.64-.14,1.24-.39,1.83-.03-.29-.09-.33-.18-.27.07.18.13.31.16.33-.14.45-.19.2-.2-.29-.23.23-.6.99-1.02.31-1.18-.34-1.09.59-1.05,1.19.13,1.94-.26,3.71-1.25,5.38-.35.59-.91,1.04-1.14,1.68-.51,1.42-1.64,1.78-2.95,1.78-1.22,0-2.35.45-3.55.53-.69.05-.94.54-.88,1.19.06.66.45.98,1.1,1.04.45.04.78-.25,1.18-.34.79-.18,1.6-.07,1.96.7.28.6.02,1.32-.62,1.65-1.78.93-2.3,2.79-3.3,4.3-.25.37-.22.88,0,1.27.72,1.3.69,2.52-.09,3.82-.53.89-.56.99-1.31.32-.77-.69-1.34-.72-2.06-.02-.37.36-.76.54-1.25.62-1.44.26-1.95.95-1.57,2.36.27.99.45,1.86-.38,2.64,0,.35-.05.71.06,1.05.19.31.48.4.81.29.84-.28,1.53.06,2.22.48.5.31.98.63,1.48.93,1.07-.04,2.21.14,2.94-.95,1.5-.37,3-.72,4.48-1.12,1.76-.48,3.52-.93,5.35-1.04.34-.22.75-.01,1.11-.17.87-.27,1.71.55,2.65-.08,1.3-.88,2.75-1.16,4.26-.95.23-4.05.25-8.13.32-12.2Zm-5.02-9.96s-.01.03-.02.05c0-.02.01-.03.02-.05Z"/>
  <path class="cls-17" d="m209.45,161.46c-.03-1.19-.06-2.39-.09-3.58-.09-3.21-.2-6.42.06-9.63.07.09.13.17.2.26,0,.32,0,.64.01.96,0,2.11.03,4.21-.02,6.32"/>
  <path class="cls-4" d="m203.4,164.58c1.45-.82,1.81-2.12,1.6-3.66-.05-.38-.25-.88.31-.99.59-.12.86.36.92.87.07.59.07,1.19.05,1.79-.02,1.06.55,1.89,1.45,2.11,1.63.4,1.52,1.45,1.35,2.64-.75-.93-1.68-.37-2.48-.24-.56.09-.92.45-1.22-.38-.22-.61-.96-.4-1.5-.44-1.27-.24-.89-.96-.48-1.68Z"/>
  <path class="cls-47" d="m167.89,70.03c.97,1.45,3.44.67,4.9.85,1.19.15,2.24.33,3.3.98,1.13.69,2.45,1.12,3.69,1.64,2.15,1.17,4.4,2.19,6.18,3.95.34.33.75.59.9,1.08-.15.58.49,1.22-.12,1.77-.71.38-1.02-.24-1.38-.6-2.69-2.71-5.87-4.58-9.47-5.8-.11-.04-.24-.03-.35-.06-2.09-.59-4.23-.92-6.38-.98-2.86-.08-5.62.57-8.31,1.57-2.38.89-4.55,2.13-6.52,3.72-1.35,1.11-2.62,2.31-3.69,3.71-.2.26-.38.51-.76.44-.08-.08-.16-.17-.24-.25-.33-.22-.26-.52-.15-.82.36-1.06,1.33-1.64,1.96-2.48.5-.18.9-.47,1.17-.96.42-.76,1.25-1.04,1.9-1.53,1-.75,2.04-1.44,3.05-2.17,1.47-.55,2.82-1.41,4.38-1.73.26-.12.54-.14.81-.23.33-.03.65-.09.91-.31.15-.08.25-.21.35-.34.58-.63,3.51-.61,3.86-1.43"/>
  <path class="cls-17" d="m149.89,82.28c1.16-1.63,2.6-2.99,4.08-4.31.27.03.4.2.44.46-.3.74-.97,1.17-1.51,1.68-.72.68-1.25,1.41-1.24,2.45-1.36,2.05-2.71,4.1-3.65,6.4-.44,1.07-.73,2.19-1.17,3.25-.18.44-.26,1.07-1.01.89.11-1.87.4-3.69,1.22-5.39.2-.42.29-.9.43-1.35.8-1.36,1.6-2.72,2.4-4.08Z"/>
  <path class="cls-36" d="m209.42,148.25c-.02,3.21-.04,6.42-.06,9.63-.07,0-.14,0-.2,0-.24.18-.47.21-.7-.02.48-.29.71-.7.71-1.28-.02-2.55-.02-5.09-.02-7.64,0-.53-.08-.88-.76-.94-1.44-.12-2.72.5-4.07.77-.66.13-.83.93-.88,1.58-.11,1.47-.17,2.93-.26,4.4-.34-.52-.23-1.11-.26-1.68-.31-.16-.47-.46-.47-.76.02-2.19-.15-4.4.63-6.51.21-.51.69-.53,1.13-.67,1.13-.35,2.28-.59,3.44-.78,1.46-.25,1.6-.11,1.63,1.33,0,.47-.11.95.1,1.41,0,.39.02.79.03,1.18Z"/>
  <path class="cls-35" d="m145.84,93.1c.74-1.41,1.01-2.99,1.64-4.45.97-2.27,2.33-4.3,3.6-6.39,2.13-2.92,4.7-5.32,8-6.89,1.9-.9,3.83-1.73,5.92-2.15.71-.14,1.41-.22,2.13-.16.35.07.7.15,1.06.19.92.08,1.51.5,1.77,1.46.38,1.39,1.23,1.74,2.54,1.15,1.4-.62,2.58.07,3.06,1.5.68,2.05.45,4.26,1.3,6.26.14.32.19.7.18,1.06,0,.57-.11,1.14-.65,1.46-.58.33-.97-.12-1.37-.44-.88-.7-1.77-1.25-2.91-.52,7.59-2.65,8.88.52,7.97.38-.68-.11,6.35,8.73,6.78,9.18,24.01,25.23,4.05,24.88,3.11,25.12-2.13,1.69-8,4.68-10.27,6.12-.5.31,14.49,11.64,14.04,11.94-3.6,11.06-2.83,8.97-12.64,5.38-2.54,1.25-14.82-.74-17.42.4-.74-1.29-18.29-.89-18.27-1.7,0-1.48-.17-47.04.39-48.48.01-.14.03-.28.04-.43Z"/>
  <path class="cls-64" d="m145.56,94.27c.02-.08.01-.15-.01-.23.08-.17.17-.34.25-.52,0,1.27,0,2.54.02,3.81,0,.47-.05.98.48,1.25-.15.09-.3.18-.45.27-.4.16-.7-.02-.59-.4.4-1.38.04-2.82.32-4.2Z"/>
  <path class="cls-10" d="m145.56,94.27c-.02,1.19-.04,2.38-.07,3.58,0,.38-.17.82.35,1.02-.16.09-.04,40.3-.2,40.39-.29-1.64-.3-43.37-.08-44.99Z"/>
  <path class="cls-35" d="m243.71,87.8c.24.64.48,1.28.72,1.92.55.87,1.09,1.75,1.08,2.84-.03.12-.09.23-.16.32-.62.37-.93.04-1.21-.49-.63-1.17-2.89-1.75-4.06-1.07-.07.04-.14.1-.21.11-1.64.18-3.2.82-4.85.94-1.04.08-1.72-.78-2.5-1.3-.67-.45-.87-.54-1.62.14-1.55,1.42-3.52,2.3-5.71,2.44-1.13.07-2.25.45-3.35-.35-.46-.34-1.08.1-1.54.42-.72.52-1.49.76-2.37.52-.12-.03-.25-.08-.35-.04-1.94.74-3.99.26-5.95.58-1.25.21-2.51-.51-3.71.17-.05.03-.19,0-.22-.06-.87-1.6-2.46-.7-3.69-1.08-.12-.07-.21-.17-.28-.29-.15-.47-.12-.96-.19-1.44-.05-2.2-.01-4.4-.03-6.6,0-.84-.08-1.67-.22-2.49-.05-.79-.01-1.58-.02-2.36-.02-1.41.09-2.84-.21-4.24-.03-.21-.02-.43-.03-.64.03-.42-.07-.92.59-.92.12.69.65.76,1.18.72,4.55-.3,9.08.3,13.6.57,4.47.27,8.98.07,13.42.75,1.23.19,2.42.78,3.5,1.47,2.11,1.34,3.77,3.16,5.37,5.05.18.21.4.38.6.57,1.08,1.11,1.63,2.54,2.4,3.84Z"/>
  <path class="cls-3" d="m203.64,74.83c-.07.32-.15.64-.22.97-.41.71,0,1.46-.13,2.19-.07.44.14.98-.43,1.25-.65-.17-.51-.72-.52-1.16-.02-1.65,0-3.3,0-4.95-.08-.97.07-1.59,1.3-1.07.42.18.94-.07,1.33-.39-1.04.59-2.89,3.97-3.28,3.15-.45-.94-1.33-4.3-.43-4.79-.78.47,1.47-.21.93-.36-.15-.74-.1-1.49-.04-2.23.07-.48-.02-3.1.32-3.39-.2.78-1.59,1.37-.71-.97-.3-.24.37-1.04.24-1.46,0-.34-.11-.67-.14-1,0-.9-1.06-1.28.15-1.61-.2-.6-.15-1.26-.16-1.93.07-.7-.14-1.42.1-2.11.11-.56.36-.75.91-.43.86.5,1.7,1.04,2.61,1.41,1.22.5,1.71,1.33,1.54,2.6,0,0,.01.02.01.02-.1,1.14-.81,2.18-.32,3.44.29.74.05,1.65.07,2.48.01.58-.09,1.19.25,1.72.09.16.17.31.26.47-.01.63-.04,1.26-.03,1.89.01.63-.14,1.1-.69,1.52-.98.75-.89,1.55.23,2.21.49.29.74.56.46,1.12-1.31.2-2.52.66-3.6,1.43Z"/>
  <path class="cls-5" d="m245.71,91.55c-.13-.08-.2-.24-.26-.39-.21-.57-.46-1.11-1.01-1.44.18.98.93,1.81.72,2.88.17.36-.17.67-.11,1.03.1.54.36.94.81,1.02-.09-1.03-.13-2.06-.15-3.09Z"/>
  <path class="cls-41" d="m245.89,94.89c-.03-.29-.05-.58-.07-.86-.24-.09-.39-.32-.44-.76-.02-.23-.14-.44-.22-.66,0,.08,0,.16,0,.24-.64.35-.5.93-.44,1.48.03.64.18,1.26.51,1.81.22.49.28,1.22.71,1.49-.01-.15-.02-.3-.02-.45,0-.76-.01-1.53-.02-2.29Z"/>
  <path class="cls-5" d="m243.71,87.8c-.98-1.17-1.6-2.56-2.4-3.84,1.32.96,1.85,2.4,2.4,3.84Z"/>
  <path class="cls-48" d="m246.19,102.95c.07-1.15.12-2.28.17-3.41-.29-.76-.45-1.55-.46-2.36,0-.14,0-.28,0-.42-.03-.08-.06-.17-.1-.25-.05-.11-.11-.21-.17-.32-.36.21-.55.54-.66.93.27,1.38-.23,2.75-.01,4.13.45,1.33.21,2.68.19,4.03-.02,1.18-.2,2.37.12,3.54.25.22.5.37.75.48.02-1.05.03-2.1.02-3.17-.01-.95.05-1.89.14-2.83,0-.12,0-.23,0-.35Z"/>
  <path class="cls-54" d="m204.44,144.47c-.1-.43-.47-.51-.86-.37-.11.04-.22.06-.34.07.27-.04.49-.15.51-.57.02-.44-.38-.72-.72-.6-1.12.41-1.65-.7-2.71-.8.73-.66,1.42-.94,2.18-1,.5-.04,1.07-.06,1.02-.71-.05-.69-.66-.52-1.13-.51-.18,0-.35.02-.53.05.28-.04.53-.22.49-.6-.04-.12-.12-.22-.23-.29-1.72-.08-3.39.35-5.08.6-1.25.19-2.58.13-3.45,1.3-.17.65-.18,1.28.1,1.91.15.19.38.27.59.39-.21,2.81-.38,5.65-2.4,7.92-.23.42-.48.83-.75,1.23,0,.48-.05.95-.15,1.39-.4,1.74-.95,3.64-1.64,5.6,0,.02-.01.04,0,.06,0,0,0,0,0,0,.67.96,2.19.34,2.08-.82-.1-1.03-.19-2.05.11-2.66.11-.77.44-1.33,1.26-1.55.48-.13.79-.52,1.05-.93.65-1,1.42-1.92,2.14-2.86.61-.8,1.31-1.17,2.32-1.18,1.83-.02,2.78-1.82,1.87-3.42,1.24-.21,2.44-.64,3.66-.98.38-.11.7-.25.6-.68Zm-4.13-4.11c.41-.13.83-.24,1.26-.29-.42.07-.84.17-1.26.29Zm-2.88.4c.1-.01.2-.05.32-.02.14.03.28.04.42.04-.24.01-.49,0-.74-.02Zm5.41,3.45c-.06,0-.12.02-.18.03.06-.01.12-.02.18-.03Z"/>
  <path class="cls-25" d="m191.17,155.95c-.3-.73.22-1.23.68-1.49,1.7-.93,2.42-2.69,3.59-4.05.82-.96,1.47-1.72,2.93-1.49,1.14.18,1.87-1.26,1.45-2.57,1.26-.8,2.16-.28,2.06,1.07-.14,1.94-.03,3.89-.04,5.84,0,.51.08,1.05-.35,1.46l-.02.07c1.46,3.06-.88,3.7-3.11,3.31.15,1.07-.12-.28-.18-.42-.13-.28.04-.84-.48-.75-.5.09-.43.55-.29.94-1.08.77.33,2.68.43,3.97.06.75-.96,1.08-1.02,1.84-.03.43-.8.49-1.35.64-.31-2.21-.45-4.42.06-6.61.23-.96-.58-1.3-1-1.67-.43-.38-.7.4-.88.8-.24.5-.36,1.04-1.05,1.18-.59.12-.45.68-.46,1.09-.02,1.71-.01,3.43-.02,5.14,0,.52.03,1.04-.23,1.52,0-.16,0-.33-.01-.49-.46-.23-.56-.66-.54-1.11.07-1.55-.34-3.07-.24-4.62.07-1.2.49-2.4.08-3.62Z"/>
  <path class="cls-57" d="m201.49,154.72c0-2.26,0-4.53-.03-6.79-.01-1.53-.06-1.56-1.65-1.57-.48-.09-1.36.18-1.37-.32-.01-.72.91-.49,1.35-.47,1.46.07,2.65-.79,4.3-.9-1.29-.6-2.31.66-3.51-.13,1-.29,1.83-.53,2.67-.77l-.06-.28c-.6.12-1.2.24-1.8.34-.38.06-.9.27-1.09-.16-.25-.54.52-.44.69-.77-.06-.05-.12-.12-.17-.12-.52,0-1.21.36-1.38-.47-.18-.84.61-.79,1.09-.97.8-.31,1.6-.64,2.47-.83-2.52-.18-4.92.87-7.4.64.52-.68.67-.56,3.17-.74,1.12-.08,2.26-.59,3.42-.79,1.04-2.16,3.26-1.62,4.99-2.13.97-.28,1.98-.47,2.97-.71-2.48.68-5,1.12-7.53,1.55-.63.11-1.13.58-1.82.46-.41-.07-.83-.09-.91-.59-.09-.52.33-.69.7-.82.34-.11.69-.19,1.05-.21.09,0,.18.08.28.07-.28-1.9,1.27-1.12,2.08-1.43,1.29-.23,2.55-.64,3.89-.65-.3-.55-.19-.99.48-1.19,1.23-.36,2.49-.57,3.75-.66.86-.06,1.42.69,1.71,1.45.18.48.28.83.89.56-.11-.33-.48-.22-.67-.43-.23-.26-.36-.53-.22-.87.12-.28.36-.47.66-.4,1.39.32,2.67-.38,4.02-.45.83-.04,1.14.24,1.06.99-.2,1.77-.48,3.53-1.15,5.21-.24.6-.52,1.21-1.09,1.54-.94.54-1.29,1.24-.84,2.27-1.93,1.21-4.11,1.4-6.3,1.59-.14.01-.25-.18-.34-.31-.94.72-.17,1.76-.49,2.6-.04-.11-.1-.22-.12-.34-.35-2.03-.35-2.04-2.35-1.63-1.17.24-2.34.52-3.51.78-1.1,1.1-.87,2.56-.96,3.9-.12,1.66.17,3.36-.49,4.96-.15,0-.31-.01-.46-.02Z"/>
  <path class="cls-42" d="m201.96,154.74c0-2.07.04-4.14.01-6.21,0-.79.28-1.46.6-2.16.18-.41.46-.51.85-.49-.42,2.38-.53,4.78-.49,7.19-.58.41-.03,1.47-.97,1.68Z"/>
  <path class="cls-20" d="m216.4,143c-.36-.03-.72-.02-1.07-.11-.36-.09-.6-.47-.29-.71.54-.43.76-1.22,1.35-1.46,1.54-.62,1.66-2.02,1.99-3.3.25-.99.1-2.05.57-3.02.29-.6-.02-.9-.69-.79-1.29.21-2.58.41-3.89.62.16.46.56.39.81.33.99-.23.7.59.79.99.15.68-.47.39-.77.48-.27.08-.55.08-.82.13-.87.17-1.65.43-1.22-1.07.33-1.16-.81-.34-1.2-.65.2-.39.54-.92-.38-.64-1.1.34-2.36.1-3.44.84.45.39.97-.01,1.47.48-1.91.39-3.7.77-5.49,1.14-.12-.12-.24-.24-.38-.34-.26-.22-.67-.27-.73-.7.2-1,1.19-.64,1.76-1.02,1.37-.21,2.67-.7,4.07-.87,1.96-.23,3.81-1.07,5.78-1.36.79-.12,1.58-.24,2.37-.33.52-.06,1.29-.18,1.36.58.07.71-.7.56-1.07.7,1.22-.27,1.2-.27,1.03-1.62-.34-2.64-.11-2.07-2.42-1.86-.71.07-1.41.25-2.12.39-.36.07-.67.16-.88.52-.42.76-1.09,1-1.93.8-.23-.08-.34-.29-.51-.44-1.28-.55-3-.31-3.87.54-.16.05-.33.06-.5.04-.65-.13-1.3-.93-1.94.01-.26.26-.52.52-.94.37-.39-.22-.29-.63-.37-.96,0-.11.02-.23.05-.33.23-.42.89-.49.89-1.09.04-.1.09-.2.17-.28,1.07-.51,2.27-.39,3.15-.65-.94.26-2.18.17-3.31.67-.24.11-.46,0-.63-.22-.09-.17-.1-.34-.08-.52.3-.79,1.02-.67,1.61-.67,2.13,0,4.13-.73,5.55-.84-1.62.1-3.82,1.03-6.17.79-.18-.08-.29-.21-.35-.39.05-1.06.91-.85,1.51-.88,1.52-.08,3.06.11,4.26-.38-.54-.02-1.31.3-2.11.43-.46.07-.82.02-.86-.52-.04-.46.28-.61.69-.61.95,0,1.87-.28,2.82-.28-1.71-.05-3.29.57-4.93.91-.95.19-1.95.1-2.92.2-.37.04-.82.11-1.05-.36-.02-.54.27-.84.76-.99,3.35-.74,6.84-.74,10.15-1.72-1.84.03-3.64.33-5.45.57-.59.08-1.19.21-1.7-.25-.16-.18-.29-.38-.24-.64,1.07-.78,2.32-.7,3.54-.7-.32-.02-.6-.12-.64-.5.28-.44.27-.46-.27-.76-.08-.16-.1-.33-.04-.51.48-.6,1.22-.45,1.85-.64.41-.12.72-.2.61-.77-.36-1.82-.7-3.65-1.16-5.44-.45-1.71-.98-3.47-2.45-4.68-.19-.83-1.05-1.64-.06-2.49,2.59-.23,5.18-.46,7.78-.6,4.68-.24,9.36-.5,14.02-.92,1.18-.11,2.4.19,3.2-.2-3.29.25-6.94.58-10.6.77-4.82.26-9.63.6-14.44.91-.97-.58-1.08-1.06-.47-1.97.24-.25.56-.28.88-.28,3.65.02,7.27-.34,10.91-.52,4.39-.22,8.77-.58,12.36-.75-2.8-.03-6.38.4-9.98.57-4.49.21-8.97.61-13.47.7-.3,0-.54.11-.77.29-.98-.61-1.07-.99-.5-2.09.64-.39,1.4-.43,2.08-.44,1.99-.04,3.97-.27,5.97-.31,4.62-.1,9.24-.33,13.86-.67.75-.06,1.52,0,2.27-.09,1.12-.36,2.29-.24,3.43-.35.36-.03.73-.01,1.05.16.26.14.44.35.37.68-.06.28-.28.37-.53.39-.44.05-.88.02-1.32.03-3.58.3-7.18.39-10.77.59-3.91.22-7.81.53-11.73.6-.46,0-.92,0-1.36.15-.16.03.09.14,0,.01-.03-.04,0-.07.09-.08,1.9-.13,3.81-.21,5.7-.28,5.3-.19,10.58-.75,15.89-.76.6,0,1.15-.35,1.76-.24.97-.05,1.91.08,2.87-.45.74-.41,1.73-.17,2.6-.13,1.66.09,2.99-.48,4.2-1.62,1.02-.96,2.41-.53,3.65-.62.38-.03.49.46.49.84,0,.6,0,1.2,0,1.8.04,1.5-.07,3.01,0,4.51.03.59-.27.98-.87.79-1.53-.48-2.97-.41-4.33.49-.22.14-.46.03-.67-.09-.32.08-.65.16-.97.23-.4-.13.63-.16,0,0,.37.5-.3-.38,0,0,0,.57.89,1.26-.21,1.69-.61.36-.93,1.32-1.6,1.23-.23.4-.62-.14-.57.29.32,2.66-.59,4.92-2.26,6.93-.08.09-.17.2-.19.3-.29,2-1.92,2.01-3.34,2.1-1.09.07-2.12.4-3.2.44-.37.02-.77.1-.71.6.05.45.45.6.81.51,1.07-.27,2.15.01,3.22-.09.78-.07,1.14.05.65.87-.27.45-.47.92-.39,1.48.07.42-.14.71-.53.82-2.1.58-2.55,2.6-3.48,4.15-.4.66.29,1.44.59,2.11.33.73.44,1.34-.21,1.94-.26.24-.38.56-.38.97.01.77-.45,1.28-1.18,1.43-.67.14-1.12-.15-1.35-.86-.2-.63-.66-.57-.95-.08-.39.67-.99.71-1.64.78-1.17.12-1.24.53-1,1.67.2.92.62,1.62,1.3,2.37-.81.11-1.47.2-2.12.29-.35.41-.53.82.06,1.18.82-.84,2.11-.85,3.21.19.27.26,1.1.24.85.99-1.91.41-3.82.82-5.73,1.22-.55.78-1.22.61-1.92.23Z"/>
  <path class="cls-13" d="m244.95,121.54c-.08,4.02,0,8.04.16,12.06.03.79-.14,1.58-.17,2.38,0,.22.03.42.11.58.26-5.5.16-11.06.42-16.54,0,0,0,0-.01,0-1.08-.24-1.31-.64-.75-1.43-.12.23-.14.49.04.78.21.18.49.25.74.36.03-.57.05-1.13.09-1.69.01-.16.02-.32.03-.48-.14.21-.31.4-.53.57.03-.03.04-.05.07-.08.15-.27,0-.39-.22-.48-.88.09-1.43.62-1.53,1.43-.1.75.3,1.38,1.04,1.71.38.16.53.44.52.85Z"/>
  <path class="cls-30" d="m244.94,115.15c0,.8-.02,1.61-.02,2.41.08.15.16.3.25.44l.02.02c.25.1.28.34.36.55.01-.18.02-.36.03-.54.18-2.78.36-5.45.44-8.17-.11.07-.23.15-.36.24-.63,1.48-1.1,2.96-.42,4.57.08.2-.09.36-.28.47Z"/>
  <path class="cls-1" d="m245.02,137.14c-2.47-.12-4.69,1.12-7.07,1.52,2.06-.09,4.09-.56,6.16-.53.3,0,.58-.08.86-.21.02-.26.04-.52.05-.77Z"/>
  <path class="cls-20" d="m240.81,119.61c.43-.24.27-.72.45-1.05.09-.15.24-.23.39-.15.09.04.2.21.18.27-.41.93-.83,1.85-1.41,2.72.2-.94-.23-1.65-.58-2.38-.11-.23-.4-.52.05-.67.33-.11.51.11.56.44.04.3-.03.65.35.81Z"/>
  <path class="cls-20" d="m240.36,115.38c.61.81.25,1.4-.43,1.92-.2.15-.45.2-.66.04-.24-.18-.21-.43-.05-.63.37-.46.54-1.09,1.15-1.33,0,0,0,0,0,0Z"/>
  <path class="cls-13" d="m235.02,136.98c-.05.36-.17.61-.51.57-.27-.03-.35-.28-.33-.54.02-.3.14-.57.49-.52.27.04.33.29.35.48Z"/>
  <path class="cls-65" d="m219.98,140.35c-.24.16-.61.49-.7.04-.08-.44-.22-1.16.64-1.22.02.39.04.79.06,1.18Z"/>
  <path class="cls-63" d="m230.49,137.82c-.06.25-.02.62-.41.58-.3-.03-.26-.35-.25-.58.01-.24.07-.53.35-.54.32,0,.29.3.32.54Z"/>
  <path class="cls-34" d="m181.08,74.13c.28.36.64.38,1.07.34,2.92-.3,5.81.2,8.72.27,2.03.05,4.05.1,6.07.34,1.03.12,2.07.17,3.1.25.12-.32-.21-.76.26-.99.06.02.12.03.18.05.62.22.56.77.61,1.26.05.5.07,1.01.15,1.51.14,1.31.04,2.62.11,3.93.14,1.87-.31,3.71-.23,5.57,0,1.03,0,2.07,0,3.11,0,.36,0,.75-.41.91-.46.17-.89.04-1.19-.32-.56-.67-1.14-1.35-1.42-2.19-.28-.85-.74-1.54-1.52-1.91-1.13-.54-1.69-1.66-2.64-2.37-.31-.23-.68-.59-1.06-.31-.37.27,0,.65.07.98.15.6.89,1.34.01,1.78-.9.45-1.3-.55-1.53-1.1-.35-.83-1-1.2-1.64-1.65-.21-.13-.35-.3-.41-.55-.37-1.48-1.39-2.51-2.41-3.55-.23-.24-.55-.42-.6-.79-1.67-1.65-3.52-3.04-5.61-4.12-.38-.2-.74-.45-1.11-.68.55-.32,1.03-.28,1.43.24Z"/>
  <path class="cls-27" d="m186.37,78.68c1.93.94,3.27,2.35,3.61,4.56.23-.08.32.05.37.24-.31.57,0,1.06.28,1.48,1.26,1.91,2.15,3.98,2.75,6.17.46,1.69.78,3.42,1.01,5.17.19,1.44.19,2.91.67,4.31.07,3.12-.25,6.21-.48,9.31-.02.56-.38.92-.77,1.27-.91.8-1.27.7-1.73-.5-.1-1.54.08-3.08.04-4.61.15-.93.13-1.87.11-2.81.17-.39.22-.81.37-1.2.04-.61-.15-1.21-.09-1.83.06-1.38.07-2.76,0-4.14,0-1.88-.57-3.64-1.09-5.41-.87-2.76-2.28-5.24-3.97-7.57-.44-.61-1.02-1.12-1.27-1.86.07-.4.25-.76.44-1.11.01-.5-.5-.92-.24-1.46Z"/>
  <path class="cls-12" d="m154.21,78.44c-.08-.16-.16-.31-.23-.47,4.48-3.69,9.62-5.57,15.43-5.5,2.16.02,4.28.39,6.37.95.04.63-.43.58-.8.55-.43-.03-.86-.03-1.29-.09-.89-.39-1.81-.64-2.78-.58-2.02.12-4.06-.36-6.06.14-3.59.9-6.89,2.4-9.81,4.68-.24.19-.43.51-.81.32Z"/>
  <path class="cls-48" d="m173.68,73.4c.7-.12,1.39.41,2.1.02,3.7,1.27,6.99,3.2,9.81,5.92.31.3.68.54,1.03.8.37.33.31.66-.02.97-.49.32-.84.02-1.16-.3-3.16-3.21-6.94-5.33-11.3-6.45-.37-.1-.78-.24-.84-.74.05-.2.13-.35.38-.24Z"/>
  <path class="cls-39" d="m173.68,73.4c-.09.07-.18.14-.27.21-.63,1.02-1.54.36-2.34.41-1.28.13-2.38-.88-3.69-.61-.07,0-.13,0-.2,0-4.8.42-8.97,2.35-12.59,5.46-1.23,1.06-2.35,2.25-3.52,3.39-.08-.82.55-1.26,1.01-1.76.66-.73,1.41-1.38,2.13-2.06,3.36-2.74,7.13-4.69,11.43-5.32,2.66-.39,5.38-.54,8.03.28Z"/>
  <path class="cls-66" d="m202.24,54.37c.29.85-.08,14.43-.07,15.3-.73.07-1.2.76-1.63,0,0-.88-.49-6.42-.49-7.3,0,0-.68-8.01-.68-8.01.56.23,2.31-.23,2.87,0Z"/>
  <path class="cls-63" d="m201.95,67.18c.38,6.14.54,12.29.68,18.45-1.32.69-.57,1.89-.71,2.87,0,.13-.02.25-.03.38-.1.39.13.81-.04,1.16-.17.36-.33.86-.93.58-.14-1.2.1-2.41-.13-3.61-.02-1.97-.04-3.94-.06-5.91-.24-1.28.08-2.59-.17-3.87-.02-.95-.05-1.9-.07-2.85.19-1.12-.26-2.21-.17-3.33.53-.73-.06-1.44-.06-2.16,0-1.73-.04-1.73,1.69-1.71Z"/>
  <path class="cls-8" d="m207.02,66.19c-.76-.85-.46-1.89-.48-2.85-.02-.86-.13-1.5-1.19-1.48-.4,0-.67-.22-.68-.66-.01-.36.16-.68.52-.68,1,0,1.44-.47,1.4-1.45,0-.25.21-.41.43-.52,0,2.55,0,5.1,0,7.65Z"/>
  <path class="cls-35" d="m171.02,73.39c.8-.04,1.56.46,2.38.22,5.23,1.04,9.54,3.69,13.19,7.51,2.29,2.79,4.31,5.75,5.33,9.27,0,.96-.7.78-1.26.72-1.66-.18-3.3-.5-4.98-.1-.77.19-1.29.37-.94,1.33.22.59-.08,1.01-.73,1.08-.25.03-.47.04-.57.31-.15.99.8,1.2,1.27,1.7,1.37,1.43,2.88,2.72,4.4,3.99.36.3.86.63.47,1.25-.73.55-1.31.03-1.82-.35-.73-.54-1.48-1.09-2.09-1.77-.58-.65-1.24-1.11-2.16-1.03-1.43-1.4-2.67-2.95-3.71-4.65-1.18-1.34-2.38-2.66-3.41-4.12-.71-1.34-1.49-2.61-3.12-3-.62-.04-1.05-.44-1.48-.82-.1-.19-.15-.4.06-.53.58-.34,2.54-.03,2.97.46.34.38.64,1,1.22.75.62-.28.42-.95.31-1.5-.35-1.74-1.04-3.4-.98-5.25.02-.67-.69-1.29-.73-2.16-.02-.38-1.16-.67-1.91-.27-1.61.86-3.24.08-3.46-1.7-.09-.69-.4-.98-1.03-1.08-.35-.06-.69-.16-1.04-.24,0,0-.03-.04-.03-.04,1.29-.14,2.58-.18,3.87.01Z"/>
  <path class="cls-37" d="m245.15,92.84l.02,1.67c-.18.62-.72.57-1.18.58-1.08.02-2.15-.03-3.23-.04-1.29-.02-2.63-.08-3.7.92-.52.48-1.21.11-1.82.21-.87.14-1.03-.43-1.26-1.06-.29-.82-.91-1-1.6-.49-.62.45-1.17.98-2.01.87-.04,0-.08-.05-.1-.04-2.11.94-2.87,1.11-5,1.11-1.2,0-2.41-.12-3.59.02-2.79.33-5.61,0-8.39.45-2.1.03-4.19-.02-6.28-.16-.16-.14-.22-.31-.21-.52.26-.64.9-.33,1.24-.51-.67.04-1.42.33-2.2.18-.4-.18-.47-.66-.82-.89-.1-.22-.19-.44-.04-.67.11-.12.25-.17.4-.18-.39-.05-.86.31-1.16-.23-.05-.19,0-.35.13-.49.76-.03,1.52-.08,2.27-.09.49,0,1.06-.19,1.16.64.06.54.4.12.6.07.69-.19,1.41-.03,2.05-.08,1.69-.13,3.39.28,5.01-.08.98-.22,1.89-.56,2.9-.33,1.11.25,1.76-.64,2.57-1.08.67-.37,1.13-.51,1.61.2.24.35.62.45,1.05.43,2.15-.08,4.13-.74,6.01-1.74.72-.38,1.33-.79.85-1.76-.15-.31-.11-.66.26-.81.35-.14.62.05.79.36.64,1.14,1.86,1.6,2.85,2.29.6.42,1.41.41,2.04-.05.59-.43,1.17-.6,1.9-.43.81.19,1.48-.15,2.02-.78.51-.59,1.06-.67,1.62-.05.31.34.7.58,1.16.51,1-.15,1.53.24,1.61,1.25.03.34.2.6.45.82Z"/>
  <path class="cls-59" d="m202.97,82.29c-.02-1.03-.05-2.05-.07-3.08.01-.72.02-1.43.03-2.15,0-.48-.02-.97.49-1.26,0,.15,0,.3,0,.45.29,1.44-.07,2.91.19,4.34.02.79.04,1.58.05,2.37.19.42.13.87.09,1.29-.24,2.64.26,5.24.33,7.86.03.48.06.95.08,1.43.39.94.36,1.97.58,2.94.04.19.02.39.03.58.02.25.04.5,0,.76-.02.18-.03.37-.04.55-.01.18-.02.36-.04.54-.04.25-.17.43-.44.47-.46-.28-.97-.32-1.43-.31.37-.03.79.05,1.2.17.17.14.38.21.55.35.07.08.12.18.17.28.09.2.19.39.21.61.02.16.05.32.07.48.03.36.24.72.07,1.1-.01.05-.03.1-.04.15,0,.68.1,1.33.47,1.92h0c.04.67.16,1.32.49,1.91.06.04.09.09.08.14,0,.06-.02.08-.04.08-.08.84.4,1.59.44,2.41.49.76.34,1.49-.31,2.01-.69.55-1.51.66-2.29.07-1.22-2.36-1.37-5.02-2.06-7.53-.21-.75-.44-1.47-1.12-1.88-.71-.43-.82-1-.65-1.72.45-.44,1.17-.71.95-1.55.02-.12.07-.22.14-.31.26-.38.75-.49,1-.88.2-.4.7-.23.97-.51,0-3.17,0-6.34,0-9.51-.29-1.52.07-3.07-.18-4.59Z"/>
  <path class="cls-49" d="m204.3,96.73c-.21-1.06-.19-2.12-.14-3.19.06,0,.13.02.19.02,0,.16,0,.32.01.48.15.28.58.16.71.48.08.16.16.31.24.47,0,.35.36.45.48.71h3.52c0,.05,0,.11,0,.16-.77.11-1.55.22-2.32.33-.68.7-1.6.14-2.35.47-.11.04-.23.06-.35.07Z"/>
  <path class="cls-3" d="m204.08,92.11c-.59-3.03-.64-6.08-.42-9.15.32,3.04.39,6.09.42,9.15Z"/>
  <path class="cls-3" d="m203.61,80.59c-.41-1.43-.17-2.89-.19-4.34.33,1.44.19,2.89.19,4.34Z"/>
  <path class="cls-15" d="m213.48,96.68c.32-.19.67-.23,1.04-.24,3.47-.08,6.94-.14,10.41-.25,1.56-.05,3.13-.21,4.77-.33-.41-.63-1.1-.13-1.48-.67.49-.3,1.02-.19,1.51-.18.93.01,1.73-.19,2.29-1.02.56-.83,1.37-.79,1.93-.17.56.62,1.14,1.02,2.02,1.06-.3.59-.9.17-1.18.53.9.53,1.34.45,1.96-.34.12-.15.31-.41.41-.39,1.31.26,2.49-.69,3.84-.31,1.35.38,2.78.1,4.17.15.29.52.39,1.1.47,1.68,0,.32,0,.65-.01.97-.39.28-.76.02-1.14-.04-.75-.11-1.47-.19-2.12.42-.58.54-1.35.53-2.01.18-.78-.41-1.58-.44-2.42-.47-2.3-.07-4.6.2-6.9-.07-1.43-.55-2.9-.4-4.37-.3-4.13.28-8.26.45-12.39.38-.24,0-.55.03-.75-.21-.11-.12-.13-.25-.05-.39Z"/>
  <path class="cls-14" d="m231.24,96.91c2.62-.17,5.24-.3,7.87-.23.56.01,1.08.03,1.57.41.5.39.54.33.72-.35.03-.09.12-.19.21-.24.71-.39,3.48.08,4.01.67,0,1.36,0,2.71,0,4.07-.07,0-.15,0-.22.01,0-.32-.03-.64-.01-.96.04-.87-.29-1.27-1.22-1.05-.42.1-.87.06-1.31.09-.2.01-.39.05-.59.08.16,1.06-1.03.66-1.22,1.05-.46.96-1.83.42-2.13,1.47-.01.05-.24.11-.31.07-1.82-1.05-3.73-.34-5.6-.28-.36.01-.72,0-1.08,0-.14-.16-.14-.32,0-.47.5-.05,1.02.1,1.72-.25-1.67-.56-3.14.11-4.6,0-.69-.59-1.64.12-2.33-.45-.09-.16-.11-.32-.06-.5.88-.67,1.94-.51,2.92-.61-.53-.09-1.13.22-1.56-.3-.07-.7.45-.61.87-.66.7-.07,1.44.15,2.05-.34-.02-.07-.03-.14-.09-.2-1.09-.36-2.21-.24-3.26-.12-.87.1-1.73.18-2.6.18-3.31-.02-6.62.2-9.92.34-3.11.13-6.23.08-9.34.37-.46.04-.97.1-1.34-.33,0-.17-.01-.35-.02-.52.24-.4.71-.37,1.02-.36,2.95.06,5.88-.29,8.83-.25,3.61.04,7.22-.21,10.84-.33,1.33-.15,2.67-.04,4-.22.72.04,1.46-.21,2.14.21Z"/>
  <path class="cls-53" d="m202.2,125.24c-.32.16-.64.32-.96.47.58.52,1.26.14,1.89.21.3.03.57.07.6.42.03.33-.19.53-.5.54-.48.01-.94.14-1.33.13.6.09,1.33-.45,1.99.14.08.08.16.16.24.24-.7.94-1.82.52-2.6.84.55.08,1.25-.54,1.87.12,0,.16,0,.32,0,.47-1.02.64-2.26.09-3.09.52,1.12-.06,2.46-.58,3.82-.04,0,.08,0,.16,0,.24-.91.87-2.15.63-3.1.97.62.31,1.38-.91,2.13-.01,0,.08,0,.16,0,.24-.16.47-.58.45-.96.51.34-.02.71-.19.96.2.3-.06.54-.22.72-.47.72-.11,1.44-.41,2.16,0,.16,0,.32,0,.48,0,1.36-.74,2.79-.99,4.32-.72.08.16.16.32.24.48-.07.27-.29.4-.53.41-2.01.1-3.97.55-5.6.83,1.27-.18,2.86-.61,4.49-.72.43-.03.98-.23,1.07.4.09.69-.52.65-.98.69-2.55.19-5.01.97-7.57,1.07,2.39-.09,4.68-.81,7.06-.98.33-.02.82-.18.89.33.07.55-.43.59-.82.63-2.37.23-4.63,1.23-7.07,1.06-.31-.02-.61.15-.69.2,1.12-.14,2.43-.5,3.77-.07-.64.24-1.28.48-1.92.72-.58.83-1.46.28-2.18.49-.46.13-1.13-.13-1.21.67.03.06.05.1.06.1.16-.01.18.12.02.07-.02,0-.02-.06-.05-.1-.11-.16-.04-.29.05-.43,1.41-.37,2.82-.64,4.27-.31,0,.16,0,.32,0,.47-.68.05-1.43-.16-1.97.52.34.43.85.04,1.19.47-.96.45-2.14.06-2.93.95,3.66-.21,7.2-1.16,10.82-1.64-2.5,1.11-5.25,1.23-7.8,2.03-.05.57.58.21.66.64-.54.47-1.28.18-1.89.39v-.24c-.83-.82-1.74-.14-2.53.02-1.17.24-2.4.18-3.52.67-.14.06.03.04-.12,0-.54-.13-1.39.29-1.54-.48-.18-.86.83-.4,1.2-.75.14-.13.43-.1.55-.08-.33-.09-.68.24-1.09.25-.31,0-.67-.06-.7-.48-.02-.34.22-.48.52-.55.67-.15,1.36-.18,1.9-.27-.44.11-1.04.09-1.63.21-.39.08-.73-.03-.85-.45-.13-.47.14-.76.54-.93.45-.2.94-.11,1.42-.15.11-.27-.06-.54,0-.81-1.45.42-1.67.34-1.95-.64.68-.67,1.68-.23,2.41-.71.15-.02.31-.03.42-.07-.33.05-.7.12-1.06.24-.62.15-1.54.53-1.69-.26-.16-.82.96-.45,1.44-.75.12-.07.31-.02.44-.02-.03,0,.04,0,.01,0-.22,0-.43-.01-.62.04-.64.17-1.38.55-1.72-.38-.29-.79.35-1.6,1.31-1.8.23-.05.48,0,.64-.06-.56-.33-1.61.96-1.87-.36-.18-.9.91-.35,1.28-.64-.45.07-1.07.29-1.23-.43-.13-.59.36-.7.79-.69-.99.12-.87-.7-.97-1.31-.13-.78.4-.89.88-.92-.37.08-.74-.08-.74-.58,0-.8.74-.81,1.4-1.08-.3-.24-.59-.15-.81-.24-.26-.12-.51-.28-.6-.56-.19-.57.09-.85.65-.89-.82-.8-.12-.92.33-1.07-.29.06-.77.18-.99-.36-.17-.4.05-.73.45-.83.37-.09.27-.25.22-.5-.1-.52-1.31-.98-.12-1.6-1.65-.78.26-1.78-.14-2.81-.34-.87.92-.56,1.45-.68-.16,0-.41.02-.53-.2-.4-.71.21-2.19.99-2.43,1.54-.48,2.48-.04,3.17,1.41.4.84.92,1.55,2.01,1.66.92.09,1.11.67.6,1.44-.11.17-.23.32-.34.5-.43.71-.33,1.13.6,1.11.56-.01,1.11-.06,1.67-.14.66-.09,1.35-.25,1.94.26.1.16.19.32.18.51-.34.91-1.12.49-1.72.55-.69.07-1.43-.1-1.74.76.37.66.92.12,1.37.21.47.03.95-.09,1.4.11.37.45.31.88-.28.93-1.35.12-2.67.53-4.03.52.97.02,1.92-.22,2.87-.37.28-.04.53-.17.73.13l.24.47c.03.76-.54.76-1.05.82-.93.09-1.86.21-2.81.4.16.56.97.34.98.96Z"/>
  <path class="cls-41" d="m192.62,110.84c.29.45.6.57.8-.04.12-.38.17-.78.63-.92.51.23.45.71.47,1.13.12,2.4-.17,4.78-.39,7.16-.12,1.28.02,2.58.04,3.84.06,2.72-.19,5.44-.02,8.16.09,1.44.03,2.88.18,4.32.39,1.8-.19,3.62.1,5.43.08.49-.25.9-.35,1.36,0,.57,0,1.15,0,1.72.4.34.35.77.22,1.21-.62.79-1.13.43-1.62-.15-.34-1.41-.14-2.85-.19-4.27-.09-2.62.23-5.26-.22-7.88-.02-.31-.01-.63-.01-.94.02-.37-.05-.76.18-1.1.51-.4.76-.92.34-1.48-.34-.46,0-.84,0-1.25-.04-1.51-.05-3.02-.1-4.51-.06-1.54-.1-3.17.09-4.74.12-.95-.05-1.84-.15-2.76.02-.11.05-.23.08-.34.33-1.08.11-2.06-.55-2.95-.03-.43,0-.82.49-1.01Z"/>
  <path class="cls-57" d="m194.08,141.28c-.01-2.23-.02-4.46-.03-6.7.43-.11.46.18.48.48.87.46,1.71-.09,2.57-.06.36.01.92-.36,1.02.19.08.46-.55.44-.91.57-.1.04-.2.09-.31.14.26.41.78.2,1.12.59-.99.57-2.22.25-3.5.96,1.45.24,2.59-.25,3.67.36-1.07.17-2.13.35-3.2.52.8.27,1.66-.05,2.51.54-.89.2-1.69.38-2.49.56,1.21.44,2.39.15,3.52-.11.97-.22,1.94-.43,2.92-.6.46-.08.94-.05.76.67-2.27.21-4.51.57-6.74,1.03-.57.12-1.04.39-1.39.86Z"/>
  <path class="cls-33" d="m192.34,151.59c-.07-.06-.13-.13-.2-.19-.4-.44-.07-.91-.07-1.37.2-.46-.2-3.72-.29-4.39.21-.78,1.79,1.68,1.78.83,0-.57.03-1.13.22-1.67.61-.56.49-1.38.74-2.07.15-.42.22-.84.74-.94.24.8-.37,1.42-.46,2.15-.16,1.37-.32,2.75-.6,4.1-.28,1.33-.97,2.5-1.85,3.54Z"/>
  <path class="cls-51" d="m195.25,141.79c-.58.94-.77,2.01-1.03,3.05-.54-.08-.29-.42-.23-.7.03-.38.05-.76.08-1.14.4-.4.03-1.54,1.18-1.21Z"/>
  <path class="cls-67" d="m195.73,144.43c.34.24.53.59.71.94.19.78.03,1.24-.9,1.04-.51-.57-.26-1.16-.05-1.75.02-.15.1-.22.24-.23Z"/>
  <path class="cls-46" d="m195.73,144.43c-.08.08-.16.16-.24.23-.02-.19-.08-.39-.04-.56.07-.3.18-.62.5-.75.18-.07.25.08.32.24.21.54-.22.64-.53.83Z"/>
  <path class="cls-54" d="m200.53,141.82c1.08-.22,2.16-.44,3.24-.66.02.1.04.21.06.31-1.05.37-2.14.53-3.29.35Z"/>
  <path class="cls-45" d="m213.49,140.71c.32.03.47.22.46.54,0,.25-.11.51-.36.53-.36.03-.39-.32-.45-.58-.06-.27.03-.46.34-.5Z"/>
  <path class="cls-57" d="m194.53,135.07c-.16-.16-.32-.32-.48-.48-.39-5.42-.2-10.84-.2-16.27,0-2.35.07-4.69.05-7.04,0-.49.08-.94.15-1.4.15-3.12.31-6.24.46-9.37-.33-.39.03-.87-.16-1.27.4-1.11,1.3-.37,1.93-.43.43-.04,1,.11,1.49.23.76.69,1.17,1.3.33,2.37-.58.75-.34,1.92-.1,2.86.24.94.29,1.91.56,2.73-.28-1.23-.46-2.59-.78-3.92-.02-.08-.01-.16.02-.23.21-.4-.02-1.11.59-1.18.67-.07.75.61.88,1.08.15.54.14,1.1.13,1.66-.16,1.41.37,2.75.44,4.14.02.44.19.95.82.96.31.03.59.14.85.3.6,1.13,1.42.57,2.2.27.18.04.29.17.41.29,1.5.42,1.79.22,2.39-1.68.33-.15.67-.57.95.08.86,2.03,1.78,3.99,2.07,6.26.15,1.16.37,2.37.61,3.55.19.97-.06,1.35-1,1.42-.56.04-1.11.13-1.66.2-.77.96-1.93.42-2.87.74-.62.21-1.31.2-1.97.31-.43.07-.91.1-.92-.57.8-.62,1.75-.68,2.7-.72.55-.02,1.11.05,1.62-.24.33-.3.74-.21,1.07-.24-.4-.14-.85.26-1.31,0-1.47.1-2.96.12-4.42.31-.87.11-.85-.17-.63-.81.26-.76.51-1.51,1.14-2.03-.09-.14-.15-.26-.17-.25-1.84.52-2.21-.98-2.81-2.08-.72-1.31-1.48-1.52-2.87-.68.34.53.92-.11,1.32.28-.32.64-1.16.41-1.61.94.49.36,1.03-.17,1.61.18-.91.33-1.71.62-2.56.93.58.62,1.25-.13,2.01.56-1.5-.19-1.61.99-2.25,1.69.54.58,1.24.25,2.04.26-.61.69-1.42.42-1.95.86.28.44.64.17.96.15.27-.01.66-.16.74.16.11.48-.38.38-.65.48-.11.04-.22.08-.37.14.15.51.76.19.97.62-.46.43-1.21.2-1.75.69.72.45,1.54.02,2.26.41-.6.54-1.45.09-1.97.75.58.49,1.2.11,1.94.07-.63.86-1.65.41-2.26.92.3.47.59.2.89.15.51-.09,1.33-.47,1.41.23.06.54-.28,1.43-1.21,1.54-.36.04-.82-.12-1.06.43.59.23,1.11-.14,1.64-.13.2,0,.43.01.47.26.04.25-.17.33-.37.38-.23.06-.49.07-.7.18-.37.19-1.09-.16-1.09.59,0,.88.38,1.39,1.39,1.16.28-.06.61-.24.96.03-.65.63-1.63.26-2.43.79.94.66,1.86-.32,2.76.24-.8.74-1.92.29-2.76.98.72.45,1.27.03,1.84-.12.37-.1.91-.37,1.01.17.1.53-.53.47-.89.54-.54.11-1.12-.04-1.63.32.2.39.83.07.93.59-.18.56-.96.08-1.17.72.79.44,1.62-.09,2.4.08.15.16.13.32,0,.47-.7.01-1.39.09-2.19.45.65.44,1.18.11,1.7.04.37-.03.76-.11.72.48-.88.16-1.76.32-2.64.48Z"/>
  <path class="cls-55" d="m207.48,106.87c2.54-.2,5.08-.4,7.62-.59,4.06-.3,8.12-.6,12.17-.9,1.51-.11,3.04,0,4.54-.26.33-.06.97-.26.71.62-.13.43.65.14.78.64-.71.12-1.04.51-.91,1.3.13.8-.44,1.05-1.13,1-1.17-.07-2.31.18-3.46.28-.46.04-.93.08-1.46.55.98.03,1.77-.26,2.57.26-.87.17-1.74.34-2.61.51,1.07.45,2.09-.1,3.31.04-.96.86-2.14.41-3.09.99.43.36,1.23.38,1.13,1.17-.08.66-.79.41-1.13.78.3.34,1.12.01,1,.75-.08.52,0,1.14-.76,1.34-.28.07-.48.4-.75.57-1,.63-1.47.46-1.66-.68-.15-.92-1.22-1.54-.82-2.65.06-.17-.29-.18-.49-.16-.43.04-.86.22-1.36-.12.46-.39,1-.29,1.46-.43.45-.14.96.04,1.56-.34-1.75-.6-3.43.41-5.28-.19,1.53-.48,2.91-.39,4.52-.68-1.53-.68-2.84.25-4.42-.3,1.64-.4,3.02-.42,4.37-.73-1.9-.37-3.82.37-5.7-.22,2.98-.76,6.13-.18,9.07-1.24-4.38.3-8.75.61-13.13.75,0-.13-.01-.25-.02-.38l16.47-1.37c0-.12-.01-.23-.02-.35l-21.92,1.54c-.01-.15-.03-.29-.04-.44,7.3-.59,14.6-1.18,21.91-1.77l-.02-.32c-3.85.26-7.7.49-11.54.78-3.83.29-7.65.61-11.49.6,0-.11.01-.23.02-.34Z"/>
  <path class="cls-57" d="m205.08,134.59c-1.89.19-3.77.37-5.66.56-.02-.1-.04-.2-.06-.3,3.26-1.01,6.76-.95,10.33-2.03-.88-.22-1.47-.17-2.06,0-2.19.65-4.5.65-6.71,1.21-.3.08-.77.15-.84-.2-.1-.53.45-.43.75-.48,2.6-.41,5.2-.79,7.8-1.18.47-.07.95-.08,1.55-.53-2.33-.21-4.39.82-6.53.45,2.44-.65,4.89-1.18,7.41-1.36.73-.14.73-.14.59-.86-.06-.3.17-.34.35-.37,2.08-.36,4.17-.73,6.26-1.06.59-.09.77.36.79.83.02.43-.46,1.03.46,1.07.04,0,.08.12.12.18-.83.52-.2,1.82-1,2.2-1,.47-2.12.84-3.64.44,1.15-.43,2.14-.12,2.84-.88-4.3.49-8.54,1.33-12.75,2.3Z"/>
  <path class="cls-57" d="m202.2,125.24s-.08,0-.12,0c-.93-.03-2.29.24-2.25-1.07.03-1.15,1.35-.42,2.06-.61,1.04-.29,2.15-.12,3.19-.48,2.69-.26,5.38-.57,8.04-1.07.28-.05.6-.2.77.08.22.36-.12.61-.36.78-.74.54-1.51,1.03-2.46,1.16-2.96.4-5.92.81-8.88,1.21Z"/>
  <path class="cls-55" d="m206.07,106.27c-.02-.07-.03-.15-.04-.22,1.05-.48,2.21-.28,3.3-.4,2.53-.3,5.08-.41,7.63-.56,3.3-.19,6.6-.39,9.9-.63,2.17-.16,4.35-.48,6.55-.12-9.09.95-18.2,1.61-27.34,1.94Z"/>
  <path class="cls-57" d="m203.88,127.15c-1.18-.04-2.34.41-3.78.18.96-1.07,2.23-.34,3.26-.91-1.22-.57-2.41.35-3.6-.18.45-.6,1.09-.18,1.48-.52,2.92-.09,5.76-.8,8.66-1.08.61-.06,1.23-.1,1.86,0-1.5.79-3.24.58-4.78,1.19,1.57.35,3.07-.55,4.66,0-1.53.28-3.06.57-4.59.85-1.05.2-2.15.12-3.18.48Z"/>
  <path class="cls-31" d="m205.54,104.13c.21-.34.53-.46.91-.48,2.91-.16,5.81-.33,8.72-.5,5.06-.3,10.11-.62,15.17-.92.79-.05,1.58,0,2.38.16-2.93.6-5.92.6-8.89.78-3.07.19-6.13.41-9.2.58-3.03.17-6.05.43-9.09.38,0,0,0,0,0,0Z"/>
  <path class="cls-29" d="m231.96,101.24c0,.16,0,.32,0,.48-5.85.33-11.71.65-17.56.98-2.43.14-4.86.31-7.29.45-.46.03-.95.08-1.4-.26,8.73-.82,17.5-1.1,26.24-1.64Z"/>
  <path class="cls-26" d="m206.91,105.05c8.44-.87,16.9-1.46,25.38-1.64-8.43.95-16.91,1.31-25.38,1.64Z"/>
  <path class="cls-18" d="m226.91,100.51h2.59c.04.39-.33.3-.43.48-6.45.31-12.9.64-19.35.92-1.56.07-3.11.13-4.66.3,0,0,0,0,0,0-.21-.85.29-1.09.98-1.07,3.62.09,7.22-.29,10.82-.53,2.98-.2,5.98-.06,8.95-.38.42-.05.8-.03,1.11.29Z"/>
  <path class="cls-57" d="m203.4,128.35c-.86.08-1.73.19-2.59.22-.4.01-1.09.22-1.12-.29-.04-.56.66-.37,1.05-.41,1.14-.12,2.29-.13,3.39-.49,2.87-.09,5.67-.87,8.56-.94-.89.59-1.93.48-2.89.71-2.11.51-4.31.51-6.39,1.19Z"/>
  <path class="cls-57" d="m204.84,122.6c-1.29.22-2.57.5-3.89.55-.68.03-1.13-.17-1.33-.9,2.11.49,4.07.36,5.94-.62.5-.59,1.34-.68,2.16-.24.49.32,1,.15,1.51.07.23-.03.54-.09.59.22.05.31-.26.36-.48.41-1.49.27-2.98.51-4.5.51Z"/>
  <path class="cls-57" d="m204.13,129.31c-1.3.12-2.6.24-3.91.38-.49.05-1,.23-1.48-.37,1.63-.28,3.12-.59,4.66-.49,1.89-.61,3.86-.69,5.79-.97.02.11.04.21.06.32-1.71.38-3.42.76-5.13,1.14Z"/>
  <path class="cls-57" d="m201.72,120.67c1.95.14,3.85-.25,5.76-.48,0,.16,0,.32,0,.48-.09.79-.75.48-1.15.53-.82.11-1.66.09-2.44.43-.46.11-.92.24-1.39.34-.42.09-.93.27-1.21-.18-.3-.48.2-.78.44-1.13Z"/>
  <path class="cls-57" d="m222.77,121.16c-.78.4-1.67.24-2.5.45-.5.13-1.06.12-1.46.45-.81.66-1.35.34-1.93-.54,2-.24,3.91-.47,5.83-.7.02.11.04.23.06.34Z"/>
  <path class="cls-57" d="m203.16,130.51c-1.07.12-2.14.25-3.2.37-.32.04-.74.11-.78-.31-.04-.41.44-.5.71-.46,1.47.23,2.82-.41,4.23-.56.2.84-.6.68-.96.96Z"/>
  <path class="cls-57" d="m203.89,121.64c.41-.93,1.32-.42,1.97-.67.5-.19,1.12,0,1.63-.3.55-.05,1.1-.11,1.65-.15.27-.02.63-.1.65.29.01.28-.32.31-.55.32-.51.04-1.03.04-1.51.26-.72.08-1.44.16-2.16.24-.56,0-1.12,0-1.68,0Z"/>
  <path class="cls-57" d="m204.12,135.79c-1.43.29-2.96-.03-4.32.72h0c-.22-.06-.53-.07-.52-.38.02-.4.38-.48.69-.52,1.06-.12,2.12-.21,3.18-.3.4.01.77.07.96.48Z"/>
  <path class="cls-57" d="m205.56,129.5c1.19-.31,2.39-.58,3.66-.08-1.21.16-2.42.32-3.63.48-.01-.13-.02-.27-.03-.4Z"/>
  <path class="cls-57" d="m210.84,130.27c-1.48,0-2.87.5-4.32.72.07-.14.11-.31.23-.4.72-.59,3.33-.78,4.09-.32Z"/>
  <path class="cls-57" d="m203.16,131.47c-.58.11-1.17.23-1.75.31-.28.04-.7.31-.78-.16-.06-.36.36-.49.66-.55.62-.13,1.25-.22,1.87-.32.15.24.11.48,0,.72Z"/>
  <path class="cls-57" d="m212.44,128.61c.99-.42,2.02-.59,3.08-.52-.96.54-1.96.85-3.08.52Z"/>
  <path class="cls-57" d="m221.93,129c.37.09.4.37.36.65-.06.36-.17.74-.63.7-.28-.03-.32-.31-.28-.56.06-.35.1-.72.55-.78Z"/>
  <path class="cls-57" d="m204.95,135.3c.6-.49,1.27-.57,2.2-.58-.76.76-1.51.57-2.2.58Z"/>
  <path class="cls-57" d="m229.07,122.35c-.17.29-.34.66-.75.63-.27-.02-.32-.33-.28-.57.06-.38.35-.5.7-.47.22.02.37.13.33.41Z"/>
  <path class="cls-57" d="m223.41,130.97c.31-.35.51-.92,1.15-.7.11.04.26.28.23.34-.29.59-.86.34-1.38.36Z"/>
  <path class="cls-57" d="m212.49,127.63c-.69.55-1.34.26-1.98.32.7-.63.73-.64,1.98-.32Z"/>
  <path class="cls-57" d="m206.04,130.99c-.72.08-1.44.39-2.16,0,.72-.66,1.44-.66,2.16,0Z"/>
  <path class="cls-57" d="m220.35,141.42c-.44.51-.94.63-1.62.18.56-.41,1.08-.31,1.62-.18Z"/>
  <path class="cls-57" d="m213.38,124.27c.54-.25,1.07-.45,1.93-.32-.77.41-1.33.47-1.93.32Z"/>
  <path class="cls-57" d="m217.69,127.67c.56-.31.9-.46,1.36-.2-.34.44-.72.41-1.36.2Z"/>
  <path class="cls-11" d="m245.13,115.79q-.02,9.57-3.09,5.72c-.9-1.13-1.83-2.09-2.69-3.41-.8-1.23-1.65-2.75-1.33-5.88.28-2.64,2.76-6.35,3.71-7.02,1.63-1.16,1.86-.39,3.42.09.91.28-.21,8.53-.03,10.5Z"/>
  <path class="cls-30" d="m245.21,129.95c0,.13.01.29.02.45.04-2.71.07-5.42.15-8.12-.1,2.56-.36,5.11-.17,7.67Z"/>
  <path class="cls-47" d="m181.08,74.13c-.48-.08-.96-.16-1.43-.24.33-.42.79-.5,1.28-.47.26.01.65-.13.72.21.07.32-.35.36-.56.51Z"/>
  <path class="cls-37" d="m200.79,87.01c.3,1.2.12,2.43.24,3.64.52,1.34.55,2.67-.02,4-.12.06-.25.09-.39.08-.69-.53-1.02-1.35-1.51-2.03-.22-.98-1.18-1.46-1.57-2.33-.08-.26-.1-.62-.46-.6-.85.04-1.35-.49-1.77-1.08-.74-1.05-1.88-.83-2.9-1.03-1.04-1.23-1.96-2.52-2.23-4.16-.07-.09-.14-.17-.22-.26.64-.26.8.27,1.1.63.55.68.73,1.67,1.7,2.16-.05-1.01-.72-1.67-.95-2.5-.24-.87-.09-1.11.79-.96,1.15.2,2.01.92,2.75,1.77.23.26.34.64.7.79,1.55.68,2.36,2.06,3.17,3.41.21.35.25.71.74.74.09,0,.23.11.26.2.09.22-.5.69.16.67.49,0,.35-.54.37-.87.03-.76.03-1.51.04-2.27Z"/>
  <path class="cls-22" d="m200.56,77.23c.32,1.28.2,2.58.17,3.87-.31-1.28-.21-2.58-.17-3.87Z"/>
  <path class="cls-35" d="m182.53,93.8c-.59-.53-.29-.85.29-.96.45-.09.92-.02,1.43-.02-.05-.18-.05-.31-.1-.4-.92-1.51-.87-1.6.94-1.94,1.61-.3,3.22-.37,4.84-.07.65.12,1.33.26,1.99-.02.73,1.77,1.07,3.63,1.21,5.53.11,1.47.13,2.93,0,4.4-.03.63-.06,1.26-.1,1.88-.46.75-.8.22-1.13-.12-2.79-2.84-6.01-5.21-8.74-8.11-.17-.18-.36-.33-.62-.17Z"/>
  <path class="cls-35" d="m192.81,105.97c-.09.58-.17,1.17-.3,2.01-3.23-3.6-6.02-7.34-8.87-11.03,1.6.3,2.67,1.44,3.84,2.43.61.52,1.24.96,2.03,1.15.46-.31.88-.07,1.14.23.69.83,1.57,1.5,2.16,2.41,0,.94,0,1.87,0,2.81Z"/>
  <path class="cls-6" d="m190.19,83.5c.8,1.27,1.61,2.55,2.41,3.82.62.37,1.16.81,1.4,1.53.34,2.53.97,5.02,1.17,7.58.02.26.02.52,0,.78-.07.67,0,1.4-.63,1.88-.01.47-.46,41.72-.47,42.19-.95-.27-.02-41.93-.02-42.34.03-3.6-.78-7.01-2.07-10.31-.72-1.84-1.67-3.6-2.88-5.26.45-.12.73.33,1.09.13Z"/>
  <path class="cls-35" d="m192.8,103.16c-1.31-.62-2-2.01-3.3-2.64-1.88-1.91-4.03-3.53-5.83-5.53-.37-.41-.76-.8-1.15-1.19.39-.61.67-.12.94.11,2.4,2.09,4.81,4.18,7.19,6.3.47.42.84.96,1.28,1.42.29.3.55.73,1.09.57-.08.32-.15.64-.23.96Z"/>
  <path class="cls-60" d="m171.02,73.39c-1.29,0-2.58,0-3.87-.01,1.29-.29,2.58-.37,3.87.01Z"/>
  <path class="cls-58" d="m203.14,96.38c-.03.44-.38.6-.69.79-.74.2-.99-.19-1.1-.85-.31-1.82-.1-3.64-.04-5.46.03-.78-.1-1.58.17-2.35h0c1.04-.89.96.21,1.23.69.38,1.36.11,2.75.2,4.12.07,1.02-.1,2.05.23,3.05Z"/>
  <path class="cls-7" d="m202.71,89.21c-.03.18-.06.36-.13.73-.37-.64-.12-1.57-1.1-1.43-.3-.97-.24-1.97-.21-2.96,0-.34-.04-.79.44-.86.39-.06.52.27.63.59.05.13.2.23.3.34.02,1.2.05,2.39.07,3.59Z"/>
  <path class="cls-3" d="m202.97,82.29c.45,1.51.11,3.06.18,4.59-.33-1.52-.18-3.06-.18-4.59Z"/>
  <path class="cls-7" d="m201.48,88.52c.07,2.43-.13,4.86.19,7.28.08.57.17,1.11.78,1.37-.24.35-.6.54-.97.71-.11.04-.24.08-.33,0-.62-.5-.98-2.6-.59-3.41.55-.21.43-.7.44-1.11.02-.91.02-1.81.03-2.72.38-.66.04-1.48.44-2.14Z"/>
  <path class="cls-37" d="m168.97,137.06c-1.97.46-4.01.53-5.95.12-2.47-.52-4.64-.08-6.74,1.15-.18.1-.36.17-.57.14-.34-.15-.56-.34-.28-.72.16-.07-8.82.17-8.66.11,1.48-1.26-1.53-7.53,0-8.72,1.28-4.88,15.78-3.97,16.08-3.9.14-.1,3.18,1.33,3.32,1.23,1.69-1.48,2.21,1.23,1.18,3.34,1.39-.81,2.7-1.79,4.22-2.39.14-.15.28-.29.43-.44.38-.11.76-.21,1.14-.32.69.2.39.53.11.85-.64.73-1.48,1.21-2.24,1.8-.68.52-1.02,1.05-.75,2,.35,1.28,1.55,1.95,2.73,1.31,1.34-.72,2.41-1.82,3.65-2.71.78-.56,1.34-.76,2.01.1.64.81,1.42,1.06,2.42.51.72-.39,1.49-.43,2.28.02.91.52,1.87.43,2.71-.18.75-.54,1.57-.76,2.48-.69.97.07,1.9-.2,2.86-.27.48-.04.98-.14,1.15.52-.1.39-.05.79-.06,1.18.17,1.76.14,3.53.1,5.29-.35.8-.77.46-.99-.03-.58-1.33-1.48-1.37-2.74-1.05-1.99.5-2.96.03-3.61-1.55,0,.97-.52,1.28-1.24,1.49-1.66.49-3.38.6-5.07.84-.79.11-1.58.11-2.36.36"/>
  <path class="cls-32" d="m155.87,138.9c-.56-.01-1.12-.03-1.68-.04.22-.34.41-.71.83-.85.36.34.77.29,1.22.19,1.02-.21,2.04-.19,3.07-.02.13.08.21.19.26.33-.25.68-.78.53-1.27.41-.81-.19-1.61-.19-2.42-.02Z"/>
  <path class="cls-68" d="m159.26,138.4c-1.19-.01-2.38-.03-3.56-.03-.3,0-.56-.04-.67-.36.14-.08.27-.17.41-.25.08.25.24.36.5.36.73-.13,1.41-.52,2.18-.45.5.04,1.09,0,1.15.74Z"/>
  <path class="cls-35" d="m185.86,118.96c.09-.2.28-.22.46-.25.37-.1.56.13.54.42-.06.72.34,1.18.76,1.65,1.65,1.42,1.35,3.75,2.51,5.41.39.56.59,1.18,1.38.39.43-.43.96-.35,1.18.36-.21.94.41,1.98-.37,2.85-.94.16-1.88.42-2.83.45-1.29.04-2.47.13-3.61.95-.81.58-1.93.49-2.84-.07-.59-.36-1.12-.33-1.7-.07-1.76.79-1.83.82-3.15-.57-.49-.52-.73-.49-1.24-.07-1.32,1.09-2.68,2.12-4.05,3.14-.81.6-3.23-.6-3.28-1.68-.03-.76-.22-1.31-1.02-1.7,1.7-1.06,3.3-2.04,4.52-3.51,2.44-1.53,4.88-3.07,7.32-4.61.16-.1.27-.27.41-.41.23-.91.94-.94,1.67-.92.23-.1.46-.2.68-.3.26-.17.55-.07.82-.1.54.09,1.38-.26,1.43.62.21-.25-.06-.85.11-1.36.1-.21.19-.41.29-.62Z"/>
  <path class="cls-28" d="m213.48,96.68c0,.08,0,.16,0,.23-.75.65-1.68.32-2.51.4-1.83.18-3.68.21-5.52.19-.36,0-.77.01-1.03-.34-.04-.15-.07-.3-.11-.45.04-.03.07-.06.11-.08.87-.14,1.73-.46,2.59.03,2.16-.32,4.32.15,6.48,0Z"/>
  <path class="cls-35" d="m207,96.68c-.86-.14-1.73.36-2.59-.03.74-.86,1.73-.28,2.59-.45,0,.16,0,.32,0,.48Z"/>
  <path class="cls-35" d="m205.08,94.52c-.39.07-.7,0-.71-.48.73.04,1.48-.11,2.42.21-.67.38-1.21.2-1.71.27Z"/>
  <path class="cls-35" d="m205.8,95.71c-.19,0-.38.01-.57,0-.26-.02-.64,0-.63-.34.01-.42.44-.32.72-.37.44.05.67.24.48.71Z"/>
  <path class="cls-61" d="m200.54,110.08c-.58.06-.87-.21-.96-.79-.24-1.64-.5-3.28-.75-4.92.04-1.39-.53-2.76-.17-4.15.16-.61.41-1.21,1.09-1.46.28-.07.56-.19.83.02.2.27.17.53-.04.78-.03.6.09,1.07.76,1.32.57.21.77.78.91,1.33.64,2.72,1.28,5.44,1.92,8.16-.15,0-.31.02-.46.03-.58.05-1.19.42-1.69-.19-.71-1.73-.77-3.58-1.08-5.4-.05-.31.02-.65-.34-.82-.14-.08-.26-.17-.29-.35-.03.09.05.16.06.24.1,1.71.39,3.38.69,5.06.08.48-.09.85-.47,1.13Z"/>
  <path class="cls-38" d="m204.42,98.38c7.32-.26,14.64-.46,21.96-.8,2.02-.1,4.02-.15,6.28-.17-.39.25-.55.35-.7.46-.64.61-1.5.58-2.24.58-7.88-.02-15.74.83-23.62.75-.59,0-1.22.16-1.7-.37.01-.15.02-.3.04-.44Z"/>
  <path class="cls-15" d="m230.75,99.31c.28.07.64-.11.91.37-1.63.12-3.18.24-4.74.36-.49.3-1.02.48-1.59.46-2.92-.12-5.82.19-8.73.28-3.62.11-7.23.48-10.86.46-.39,0-.81.11-1.11-.26,0-.15-.01-.31-.02-.46,1.17-.67,2.5-.54,3.74-.56,4.94-.06,9.87-.5,14.81-.6,2.53-.05,5.06-.08,7.59-.05Z"/>
  <path class="cls-37" d="m204.41,97.18c3.03.08,6.05-.11,9.07-.26,5.5.22,10.98-.45,16.48-.46.44,0,1.09-.35,1.28.45-.72,0-1.43,0-2.15.01-1.27.34-2.58-.11-3.84.23-6.95.24-13.89.47-20.84.71,0-.23,0-.46,0-.68Z"/>
  <path class="cls-30" d="m231.95,98.36c-.33.55-.88.43-1.38.47-.82.05-1.67-.12-2.46.24-.17.22-.41.25-.65.24-2.41-.14-4.8.24-7.21.28-3.98.07-7.95.4-11.94.48-1.31.02-2.61.43-3.91-.06-.02-.07-.04-.13-.05-.2.09-.72.7-.56,1.13-.61,2.28-.29,4.59-.18,6.88-.28,2.98-.13,5.96-.27,8.95-.37,3.01-.1,6.04-.13,9.04-.4.53-.05,1.12-.2,1.6.21Z"/>
  <path class="cls-17" d="m231.95,98.36c-7.27.31-14.55.61-21.82.93-1.55.07-3.11-.09-4.65.2-.39.07-.8.07-1.14.31-.07-.16-.14-.33-.21-.49h0c.08-.15.17-.32.25-.48,4.38.08,8.76-.14,13.13-.41,2.19-.13,4.38-.12,6.57-.25,2.62-.16,5.25-.04,7.87-.3.11.16.12.33,0,.5Z"/>
  <path class="cls-21" d="m204.4,100.01c6.47-.29,12.94-.59,19.41-.87,1.43-.06,2.87-.05,4.3-.07.88.1,1.79-.18,2.64.25-7.44.33-14.89.64-22.33,1.03-1.27.07-2.54.19-3.82.18-.07-.17-.14-.34-.21-.51Z"/>
  <path class="cls-56" d="m204.62,100.98c4.66.13,9.3-.4,13.96-.49,2.78-.06,5.56-.12,8.33-.44,0,.15,0,.31,0,.46-2.96.48-5.96.24-8.94.44-3.89.25-7.78.61-11.68.55-.54,0-1.05.08-1.23.71-.28-.36-.38-.79-.44-1.22Z"/>
  <path class="cls-52" d="m200.55,98.84c-.17.08-.34.15-.51.23-.27-.33-.64-.09-.95-.17-.11-.04-.2-.11-.28-.19-.45-.68-1.31-1.11-1.18-2.16.06-.49.15-.82.6-1.01.3-.15.2-.48.31-.72.41-.84,1.1-.95,2.01-.33,0,0,0,0,0,0,.31,1.13.61,2.27.92,3.4,0,.06,0,.12,0,.19,0,.63-.04,1.2-.92.77Z"/>
  <path class="cls-9" d="m204.13,99.31c-.87.06-1.86-.23-2.39,1.16.17-1.74.96-2.02,2.38-1.15,0,0,0-.01,0-.01Z"/>
  <path class="cls-7" d="m200.55,98.84c.52,0,.7-.41.92-.77.55,1.04-.1,1.31-.93,1.48,0-.24,0-.47.01-.71Z"/>
  <path class="cls-15" d="m225.24,97.16c1.26-.46,2.56-.15,3.84-.23-1.26.45-2.56.15-3.84.23Z"/>
  <path class="cls-20" d="m205.8,119.48c1.08-.14,2.16-.29,3.24-.43-.89.95-1.98.55-3,.67-.08-.08-.16-.16-.24-.24Z"/>
  <path class="cls-57" d="m199.8,136.51c.15.02.31.05.46.07.32.04.73-.21.94.21.1.21-.12.35-.29.44-.39.2-.84.36-1.22.09-.38-.26,0-.55.11-.81,0,0,0,0,0,0Z"/>
  <path class="cls-57" d="m197.16,134.59c-.24-.16-.48-.32-.72-.48.61-.32,1.27-.26,2.07-.3-.35.7-.98.52-1.35.78Z"/>
  <path class="cls-57" d="m200.94,120.31c-.08.62-.4.82-.88.76-.07,0-.21-.19-.19-.23.22-.42.6-.51,1.07-.53Z"/>
  <path class="cls-57" d="m196.93,133.62v-.47c.2-.13.38-.29.59-.38.22-.1.51-.09.6.17.12.32-.19.37-.41.44-.26.09-.52.16-.79.24Z"/>
  <path class="cls-27" d="m192.4,115.88c.34-.24.6-.54.68-.96.42,2.33.03,4.67.15,7.01.11,2.2.02,4.41.05,6.62,0,.56.17,1.13-.45,1.49-.52-.32-.3-.84-.34-1.29-.07-.95.2-1.93-.54-2.8-.3-.36-.16-.99-.18-1.5,0-2.34-.03-4.68.02-7.02.01-.56-.12-1.24.61-1.54Z"/>
  <path class="cls-69" d="m194,144.14c.08.23.15.47.23.7-.07.59-.14,1.17-.21,1.76-.48.57-1.1.6-1.72.36-.6-.23-.52-.83-.52-1.33-.01-1.19-.02-2.37,0-3.56.01-.46.06-2.14.71-2.28.65.5.28,2.38.31,3.02.02.35-.1.69.3.9.28.2.33.87.91.44Z"/>
  <path class="cls-23" d="m192.64,131.93c.42.78.25,1.61.23,2.44-.04,1.83,0,3.66,0,5.49-.08.1-.17.17-.28.22-.26.06-.48-.04-.71-.12-.19-.08-.32-.2-.39-.4.22-1.06.93-1.97,1-3.08.09-1.52-.18-3.05.16-4.55Z"/>
  <path class="cls-17" d="m192.4,124.49c.37,1.24.15,2.52.23,3.77.04.59-.04,1.19.19,1.76-.08.32-.16.65-.24.97-.04.05-.08.1-.12.15-.02-.06-.04-.12-.06-.18-.02-.39-.05-.78-.07-1.18,0-1.04,0-2.07,0-3.11-.56-.75-.81-1.48.07-2.18Z"/>
  <path class="cls-62" d="m192.4,130.97c.06.01.12.03.18.03.02.31.03.62.05.93-.02,1.61-.04,3.22-.06,4.84-.04.02-.07.04-.11.07-.03-.03-.06-.06-.09-.09l.03-5.78Z"/>
  <path class="cls-24" d="m192.64,139.87c.08,0,.15,0,.23,0,.07,1.28.15,2.56.22,3.84-.91-.74-.25-1.78-.49-2.65-.35-.41-.46-.81.04-1.19Z"/>
  <path class="cls-67" d="m199.12,98.58c.38.03.75.07.92.49-.93.43-1.14,1.29-1.18,2.18-.06,1.04-.02,2.07-.02,3.11-.38-.66-.07-1.42-.41-2.1-.3,2.17.51,4.3.41,6.47-.47-2-1.18-3.91-1.48-5.95-.09-.59-.28-1.14-.16-1.75.03-.15-.04-.39.13-.41,1.23-.14.49-.79.35-1.28.32-.57,1.04-.37,1.46-.76Z"/>
  <path class="cls-50" d="m200.54,110.08c.02-.56-.17-1.09-.31-1.62-.54-2.13-.26-4.27-.11-6.57.3.67-.03,1.37.58,1.76.63,1.13.61,2.41.89,3.63.17.77.23,1.56.34,2.35-.02.3-.07.56-.46.52-.31-.02-.62-.05-.93-.07Z"/>
  <path class="cls-42" d="m199.12,98.58c-.1,1-.94.58-1.46.76-.47-.05-.94-.1-1.4-.16-.64-.08-.73.24-.51.77-.62-.03-.38-1.18-1.2-.85.05-.57-.03-1.16.21-1.7.18-.24.31-.54.68-.55.67.12,1.26.35,1.73.89.49.56,1.43.22,1.91.86l.03-.02Z"/>
  <path class="cls-59" d="m201.47,110.14c.09-.17.19-.35.28-.52.26-.11.33.11.44.25.49.17.98.35,1.47.52-.91.8-1.95.79-3.08.53.2-.46.77-.35.89-.78Z"/>
  <path class="cls-57" d="m199.09,98.6c-1.09-.03-2.18.13-3.27-.1.07-.47.49-.26.69-.53-.19-.43-.91-.26-1.01-.8-.43-.8-.44-1.7-.58-2.56-.13-.73-.19-1.47-.47-2.16-.19-.48-.22-.93.2-1.31.45-.21.94-.27,1.27-.76.59-.87,1.08-.87,1.98-.18,1.26.16,1.25,1.33,1.7,2.14-1.26.92-.76,2.44-1.23,3.62,0,.95.2,1.84.72,2.64Z"/>
  <path class="cls-44" d="m197.89,90.19c-.53.2-1.87-.52-1.18,1.07.08.19-.34.28-.56.27-.47-.02-.93-.09-1.4-.15-1.05-.45-.9-1.62-1.43-2.39-.24-.56-.48-1.12-.72-1.68.6,0,1.21-.08,1.78.03.4.08,1.31-.64,1.17.69-.04.4,1.02.05,1.48.39.05.49-.57.19-.61.45.22.81,2.06-.4,1.47,1.31Z"/>
  <path class="cls-2" d="m198.36,95.96c-.23-.73-.99-.64-1.66-.96.63-.36,1.85-.02,1.35-1.28-.03-.07,0-.17-.04-.23-.53-.88-.46-.99.75-1.12.27-.03.55-.03.83-.04.59.6.92,1.31.96,2.15-.27.04-.54.06-.81.12-.22.05-.52.08-.57.34-.06.36.47.22.55.59-.38.32-.88.36-1.37.42Z"/>
  <path class="cls-35" d="m192.4,124.49c-.02.73-.05,1.46-.07,2.18-.6.25-.74.91-1.17,1.33-.53.51-.9.5-1.09-.25-.39-1.62-1.67-2.89-1.67-4.68,0-.79-1.23-1.17-1.07-2.16-.29-.63-1.09-1.22-.06-1.93-1.73,3.14-3.57,2.27.09-.89.55-.33,1.1-.66,1.66-1,.8-.42,1.6-.87,2.42-1.26.3-.14.68-.59.97.04,0,2.87,0,5.74,0,8.62Z"/>
  <path class="cls-27" d="m193.33,89c.67.68.9,1.62,1.43,2.39-.22,1.47.63,2.75.71,4.17.03.54.3,1.06.02,1.61-.24.08-.49.15-.73.23-.03-2.39-.34-4.73-1.15-6.99-.16-.44-.19-.93-.29-1.4Z"/>
  <path class="cls-54" d="m202.2,109.87c-.15-.08-.3-.17-.44-.25-.35-1.99-.7-3.98-1.05-5.98.11-.17.21-.33.39-.6.38,2.35.74,4.59,1.11,6.83Z"/>
  <path class="cls-19" d="m192.09,139.7s-.29-.04-.44-.07c-.3-.13-.6-.28-.93-.08-1.16,1.06-2.31,2.14-3.46,3.2-.56.51-1.28.57-2.01.6-1.38.06-2.76-.19-4.14-.05-.78.18-1.67-.25-2.38.38-.23.02-.46.04-.69.06.11.13-13.27-.41-13.15-.3.63-.08,14.77.49,15.41.44,1.63-.14,2.99.31,4.06,1.12,1.64-.18,3.05.38,4.15,1.35.09,0,.18,0,.27,0,.43,0,.87-.01,1.3.02,1.81.15,1.77.15,1.82-1.73.04-1.65.48-3.7.2-4.95Z"/>
  <path class="cls-70" d="m192.48,139.79c-1.27,0-44.89-1.29-46.16-1.28-.02-.06,30.91.73,30.89.67,1.3-.02,13.99.27,15.27.61Z"/>
  <rect class="cls-37" x="149.41" y="134.2" width="42.08" height="4.2"/>
</svg>