<?xml version="1.0" encoding="UTF-8"?>
<svg id="Layer_1" data-name="Layer 1" xmlns="http://www.w3.org/2000/svg" viewBox="0 0 635.41 634.68">
  <defs>
    <style>
      .cls-1, .cls-2 {
        fill: #93d1f3;
      }

      .cls-2 {
        stroke-width: 18px;
      }

      .cls-2, .cls-3 {
        stroke: #020202;
        stroke-miterlimit: 10;
      }

      .cls-3 {
        stroke-width: 2px;
      }
    </style>
  </defs>
  <ellipse class="cls-2" cx="317.7" cy="317.34" rx="308.7" ry="308.34"/>
  <g>
    <path class="cls-3" d="m461.99,274.33c.91-.33,1.18-1.11,1.45-1.94.44-1.31.96-2.59,1.47-3.87.14-.35.37-.7.85-.59.36.08.45.4.5.7.58,3.91,2.1,7.78.59,11.8-.05.14-.11.3-.11.45.2,3.85-.5,7.65-.74,11.47-.15,2.53-.58,4.86-2.37,6.75-.54.57-1.18,1.22-.68,1.99.54.83,1.56.61,2.34.4,1.04-.29,1.73-1.06,1.61-2.23-.11-.99.15-1.85.7-2.61,2.06-2.82,2.76-6.09,3.33-9.43.36-2.12.75-4.24,1.31-6.31,1.05-3.94.9-7.92.75-11.92-.22-5.77-.92-11.46-2-17.14-.9-4.75-3.68-7.97-7.73-10.02-2.78-1.41-4.94-3.63-7.66-5.07-1.84-.98-3.74-1.79-5.64-2.62-.42-.18-.86-.27-1.34-.24-1.77.11-2.17-.11-2.58-1.68-.69-2.6-1.32-5.21-1.94-7.83-.39-1.65-.36-1.66-2.1-2.98-.34.11-.48.4-.47.71.15,2.61.46,5.22.43,7.82-.03,2.4.62,4.63.98,6.94.6,3.78.77,7.64,1.1,11.46.08.92.02,1.86.19,2.76.7,3.64.54,7.34.6,11.01.09,5.23.37,10.45.11,15.68-.12,2.28.16,4.6-.92,6.77-.21.42,0,1.05,0,1.59.02,1.15.05,2.28-.07,3.45-.38,3.52-3.16,5.21-5.38,7.32-.31.29-.85.49-1.27.48-2.38-.08-4.78.33-7.14-.19-3.77-.84-7.47-.57-11.18.38-2.68.68-5.36,1.39-8.07,1.86-3.13.55-6.29.01-9.44.01-4.77,0-9.54-.15-14.31,0-2.21.07-4.4.7-6.61,1.03-1.98.3-3.99.47-5.97.02-1.66-.37-3.25.12-4.77.51-2.14.55-4.2,1.46-6.22,2.37-.86.39-1.66.7-2.62.72-3.39.05-6.73.7-10.1,1.03-.53.05-1.08.17-1.56.39-3.02,1.38-6.24,1.42-9.46,1.73-3.77.37-7.53.39-11.29.38-2.76,0-5.43-.63-7.99-1.82-2.09-.97-4.44-1.19-6.7-1.26-1.69-.05-3.37-.06-5.04-.32-1.83-.3-3.7-.13-5.52-.38-1.43-.2-2.79-.53-4.28-.54-2.76-.02-5.51.35-8.27.2-1.73-.09-3.12-.47-4.16-1.98-.71-1.03-1.67-1.9-2.52-2.85.63-.4,1.22.28,1.88.26.24,0,.48-.02.59-.25.17-.34-.03-.59-.29-.78-.78-.56-1.72-.69-2.61-.86-3.6-.66-6.49-2.61-9.18-4.93-.3-.26-.52-.66-.9-.35-.43.35-.31.79.06,1.19.88.93,2.07,1.58,2.73,2.93-4.96-.25-9.61-1.49-14.34-2.22-.84-.13-1.66-.27-2.51-.31-1.89-.08-3.85.37-5.65-.64-.24-.13-.61-.07-.91-.04-2.8.31-5.5-.24-8.19-.93-.52-.13-1.07-.23-1.59-.19-3.47.28-6.41-1.33-9.44-2.59-.85-.35-1.26-1.02-1.4-1.95-.33-2.23-1.23-4.28-2.26-6.26-1.3-2.5-1.21-5.2-1.27-7.88-.02-.85.52-1.59.98-2.31.25-.39.68-.81.48-1.24-1.35-2.83-.84-6.03-1.78-8.93-1.57-4.9-1.58-10-1.43-15.03.07-2.28-.26-4.5-.19-6.76.08-2.3.05-4.61.04-6.91-.02-5.86.66-11.64,1.88-17.37.16-.74.3-1.4,1.26-1.7.94-.29,1.1-1.1.14-1.69-.7-.43-.83-1.03-.9-1.74-.06-.59,0-1.36-.77-1.5-.59-.1-1.28.02-1.58.69-.49,1.1-1.35.92-2.14.57-4.77-2.13-9.6-4.09-14.41-6.13-2.17-.92-4.24-2.14-6.16-3.59-2.34-1.77-5.14-2.76-7.72-4.12-3.89-2.05-8.14-2.32-12.32-2.49-3.25-.13-6.6.48-9.81,1.21-1.96.45-3.8,1.63-5.57,2.67-1.85,1.09-3.56,2.41-5.32,3.64-.31.22-.66.45-.85.77-1.62,2.72-4.16,4.72-5.78,7.42-1.58,2.62-3.22,5.21-3.65,8.35-.1.74-.46,1.46-.8,2.15-.31.64-.56,1.29-.58,1.98-.1,2.83-.64,5.66-.2,8.5.14.94.16,1.87-.15,2.74-.69,1.95-.12,3.7.92,5.25,1.85,2.75,2.46,5.79,2.31,8.99-.12,2.79.87,5.28,1.74,7.81.17.51.47.99.55,1.51.76,4.56,2.83,8.79,3.51,13.32.65,4.27,2.58,7.99,4.02,11.93.34.93.52,1.92.82,2.88,1.47,4.78,3.81,9.15,6.11,13.55.66,1.27,1.38,2.57,1.67,4.01.08.38.15.76.29,1.11.41.96,1.59,1.83,1.31,2.74-.28.9-1.49,1.49-2.17,2.3-1.68,2-3.39,3.99-4.49,6.39-1.4,3.06-3.68,5.55-5.95,7.89-3.04,3.13-5.48,6.86-9.14,9.39-.81.56-1.55,1.32-2.07,2.16-1.11,1.8-2.81,3.04-4.1,4.64-3.04,3.78-5.66,7.81-7.78,12.19-2.25,4.67-3.73,9.59-5.33,14.48-.76,2.32-1.59,4.65-3.15,6.63-.61.77-.92,1.75-1.26,2.71-.61,1.73-1.22,3.44-3.33,4.09-1.07.32-1.26,1.67-1.77,2.6-.65,1.19-.9,2.67-2.5,3.11-.18.05-.32.32-.42.52-2.03,4.13-4.49,8.07-5.75,12.55-1.02,3.61-3.03,6.72-4.88,9.9-1.07,1.83-2.3,1.95-3.98.66-.24-.18-.42-.45-.96-.4-.39.99-.23,1.82.82,2.38.75.4,1.54.72,2.27,1.14,1.34.77,1.37.98.8,2.4-.42,1.03-1.3,1.91-1.21,3.11.23.1.42.25.49.2,2.7-1.86,2.35-1.19,3,1.41.7,2.8.48,5.47-1.51,7.77-.24.28-.43.64-.55.99-.1.29-.02.62.26.82.27.2.59.2.86.02.32-.21.59-.49.89-.73,1.65-1.38,2.52-1.42,4.3-.16.25.18.5.36.72.57,1.03.97,2.18,1.29,3.6.94,1.36-.33,2.86-.9,3.88.77.07.11.26.2.4.2,2.9,0,4.39,2.39,6.28,3.94,2.43,1.99,4.56,4.35,6.6,6.76,1.94,2.29,3.88,4.58,6.07,6.63.97.91,1.87,1.89,2.4,3.08,1.57,3.5,4.51,5.77,7.15,8.34,3.19,3.11,6.47,6.12,9.24,9.63,1.03,1.3.97,1.65-.41,2.5-.65.4-1.36.73-2.02,1.12-.61.36-1.3.79-.81,1.61.41.68,1.07.39,1.63.08.27-.15.52-.34.79-.47.48-.22,1.03-.63,1.49-.18.58.57-.13.94-.42,1.33-.48.65-.61,1.31.11,1.81.66.46,1.31.21,1.87-.32.94-.9.99-1.68.09-3.32,1.07-.21,1.53.51,2.02,1.14,1.24,1.57,2.48,3.13,3.81,4.63,1.91,2.15,4.17,3.84,6.41,5.59,1.8,1.41,3.35,3.13,4.92,4.87-1.8-.31-3.45-.88-4.94-1.92-.75-.52-1.58-.95-2.39-1.38-.35-.18-.77-.18-1.02.21-.19.3-.02.6.15.86.39.58.92,1.03,1.5,1.41,2.45,1.6,4.76,3.35,6.94,5.33,2.59,2.37,5.89,3.59,9.15,4.76,2.27.82,4.37,1.9,6.19,3.49,1.17,1.02,2.44,1.82,3.92,2.35,2.79,1,4.92,3.13,7.41,4.65,3.14,1.91,6.09,4.12,9.47,5.65,3.71,1.68,7.33,3.57,11.06,5.22,5.08,2.24,10.39,3.83,15.72,5.32,5.62,1.57,11.29,3.02,16.96,4.39,3.57.86,6.92,2.39,10.62,2.92,2.39.34,4.59,2.05,6.88,3.14,2.84,1.35,5.68,2.71,8.83,3.23,1.83.3,3.6.81,5.24,1.7.54.29,1.13.53,1.72.65,9.44,2.02,18.93,3.35,28.61,1.83.75-.12,1.55-.14,2.29,0,2.61.48,5.24.4,7.83.15,3.39-.33,6.79-.01,10.14-.33,6.49-.61,12.94-1.27,18.68-5.07,3.24-2.14,6.88-3.75,10.61-5.04.58-.2,1.19-.38,1.79-.41,3.99-.22,7.67-1.5,11.24-3.19,1.27-.6,2.64-.85,3.99-1.11,4-.78,7.91-1.64,11.57-3.71,2.5-1.41,5.44-2.08,8.09-3.33,1.96-.91,3.8-2.01,5.67-3.06,2.24-1.26,4.56-2.3,7.02-2.9,3.2-.77,5.95-2.38,8.83-3.86,3.83-1.96,7.58-4.07,11.33-6.18,2.77-1.56,5.21-3.53,7.65-5.52,2.44-1.99,5.17-3.73,7.02-6.29,2.64-3.67,6.36-5.41,10.43-6.78,3.8-1.29,6.82-3.7,9.37-6.78,1.12-1.36,2.26-2.73,3.92-3.51.57-.27,1.01-.68,1.33-1.24,1.62-2.84,4.06-4.92,6.54-6.96.55-.45,1.11-.78,1.82-.92.52-.1,1.06-.29,1.5-.57,4.3-2.78,8.97-5.13,11.56-9.93.36-.66.95-1.2,1.46-1.78,1.2-1.36,1.27-1.36,2.88-.19.96.7,2.55.56,3.6-.39.94-.84,1.61-1.83,1.74-3.15.08-.75.21-1.52.66-2.3.84.33.54,1.17.8,1.72.49,1.01,1.17,1.31,1.99.62,1.83-1.54,4.16-2.34,5.85-4.07.43-.44,1.02-.74,1.36-1.23.74-1.06,1.38-1.95,2.81-.85.38.3.89-.08,1-.62.14-.75.33-1.49.07-2.27-.7-2.07-.9-4.2-.57-6.36.17-1.07-.13-2-.84-2.77-.82-.89-1.09-1.99-1.45-3.09-1.76-5.29-2.38-10.77-2.92-16.29-.45-4.66-1.12-9.32-2.5-13.81-1.04-3.38-1.84-6.78-2.47-10.27-.49-2.67-1.9-5.17-2.91-7.75-1.04-2.65-2.09-5.29-3.15-7.93-1.93-4.8-4.78-9.12-7.07-13.73-1.71-3.44-3.36-6.92-4.78-10.48-1.54-3.86-3.33-7.6-4.98-11.41-.44-1-1.22-1.76-1.85-2.63-3.03-4.15-7.41-6.89-10.98-10.47-2.12-2.13-3.93-4.47-6.19-7,4.07.08,5.34-2.53,6.44-5.38.38-1,.84-2.01,1.46-2.87,2.07-2.9,3.83-6.06,4.78-9.39,1.33-4.66,3.39-9.06,4.44-13.79.4-1.81,1.1-3.53,1.88-5.2,3.48-7.44,4.6-15.34,5.26-23.45.41-5.04-.2-9.96-.41-14.93-.03-.61-.07-1.24,0-1.84.66-5.16-.68-9.87-2.95-14.46-1.33-2.69-2.42-5.6-4.89-7.41-3.26-2.39-5.77-5.77-9.64-7.36-.11-.05-.16-.24-.27-.42,1.8-2.38,4.61-3.33,7.35-4.76-.83-.71-1.42-.32-1.91-.16-1.7.55-3.29,1.38-4.59,2.59-1.59,1.48-3.43,1.91-5.49,1.85-.77-.02-1.68-.27-2.28.05-2.58,1.36-5.07-.14-7.6-.03-.2,0-.4-.17-.68-.3.4-.81,1.21-.7,1.79-.82,6.19-1.21,12.2-3.12,18.29-4.72,1.15-.3,2.25-.54,3.27.36.46.4,1,.32,1.52.08.49-.22,1.05-.37,1.45-.7,2.95-2.43,6.59-2.8,10.14-3.4,3.43-.58,6.68-1.81,10.02-2.71,3.41-.92,6.92-1.47,10.2-2.88.56-.24,1.29-.45,1.79-.08,1.23.91,2.28.33,3.45-.1,2.43-.9,3.18-.42,3.6,2.14.32,1.92,0,3.83-.18,5.74-.09,1-.28,2-.1,2.98.57,3.19.32,6.45.79,9.64.17,1.14.1,2.29-.09,3.44-.86,5.37-1.68,10.75-2.15,16.17-.19,2.14-.25,4.3-.37,6.45-.06,1,0,2.02-.21,2.99-1.24,5.97-.23,11.94-.11,17.92.04,2.24-.23,4.45-.34,6.67-.1,1.91-.09,3.83-.29,5.73-.35,3.36.7,6.54,1.14,9.79.43,3.18.44,6.47,1.61,9.51.95,2.48.58,5.11,1.28,7.63.53,1.93.01,3.9-1.67,5.45-1.65,1.52-1.73,2.91-.82,4.98.34.77.53,1.6.77,2.41.07.22.19.57.1.66-1.29,1.23-.94,3.29-2.4,4.49-1.78,1.46-3.33,3.16-4.36,5.29-.47.98-.97,1.91-1.13,3-.28,1.89-1.19,3.47-2.44,4.87-.97,1.09-1.95,2.18-2.98,3.21-2.9,2.88-4.51,6.34-4.96,10.39-.13,1.23-.49,2.44-1.28,3.42-.73.91-.66,1.83-.34,2.82.53,1.62,1.3,3.14,2.27,4.52,1.41,2.01,3.69,2.28,5.59.74,2.81-2.29,1.93-1.97,4.64-.34,1.99,1.2,4.29,1.68,6.3,2.83.37.21.91.23,1.35.18,2.4-.24,4.76.12,7.14.29,1.3.09,2.57.19,3.83.67,1.85.71,2.95.2,3.86-1.44,1.21-2.17,1.94-2.55,4.44-2.11,2.19.39,4.25.21,6.3-.72.9-.41,1.56-.92,2.01-1.77.83-1.56,1.62-3.14,2.54-4.65,1.24-2.04,1.1-4.13.3-6.2-1-2.61-1.68-5.26-1.85-8.05-.16-2.61-1.25-4.95-2.6-7.06-2.34-3.67-3.58-7.82-5.41-11.7-.38-.81-.34-1.66.07-2.45.61-1.18,1.01-2.4,1.03-3.74.02-1.01.58-1.67,1.41-2.23,1.2-.82,1.19-.97.32-2.15-1.49-2.02-3.53-3.41-5.57-4.77-.82-.55-1.15-1.08-1.06-2.05.29-3.22-.09-6.46.07-9.67.22-4.31-.11-8.59-.23-12.88-.08-3.06-.13-6.1.55-9.17.86-3.91.83-7.91.77-11.93-.06-4.29.3-8.6.57-12.89.4-6.28.96-12.56,1.27-18.84.13-2.59-.11-5.21-.13-7.82-.02-1.76-.02-3.53-.04-5.3-.06-4.69-.6-9.34-.95-14.01-.12-1.61-.09-3.23-.19-4.84-.33-5.62-2.2-10.62-6.08-14.78-.05-.06-.12-.11-.15-.17-2.09-4.38-6.13-4.87-10.24-4.99-3.83-.11-7.23-1.39-10.4-3.38-2.5-1.58-5.03-2.87-8.14-2.81-1.75.03-3.45-.74-5.12-1.33-1.05-.37-2.1-.52-3.16-.15-.76.26-1.56.4-2.26.06-3.14-1.52-6.7-1.93-9.59-4.27-3.29-2.67-7.47-3.55-11.63-4.09-5.93-.77-11.22-3.12-16.14-6.41-.9-.6-1.79-1.25-2.84-1.51-2.49-.6-4.77-1.72-7.12-2.67-1.57-.64-3.14-1.26-4.78-1.71-.37-.1-.78-.16-1.09-.36-1.94-1.27-4.21-1.78-6.28-2.73-4.21-1.93-8.51-3.53-12.94-4.85-.29-.09-.6-.18-.85-.35-2.02-1.34-4.28-2.01-6.61-2.58-1.32-.32-2.55-1.06-3.81-1.63-1.89-.86-3.78-1.71-5.79-2.24-3.5-.92-6.73-2.59-10.26-3.48-3.13-.79-6.03-2.33-8.83-3.91-3.66-2.07-7.54-2.97-11.7-3.01-2.77-.03-5.52-.5-8.24-.88-2.13-.3-4.15-1.48-6.19-2.35-.72-.31-1.38-.66-2.39-.5.57.83,1.52.99,2.18,1.54-.51.36-.91.19-1.23.05-2.73-1.19-5.75-1.63-8.26-3.39-1-.7-2.17-1.13-3.41-1.34-2.81-.47-5.49-1.42-8.13-2.49-.43-.17-.87-.41-1.31-.42-2.82-.05-5.45-.9-8.05-1.86-1.83-.68-3.82-.41-5.69-.88-.98-.24-1.94-.32-2.49-1.39-.31-.6-.89-.48-1.58-.34-3.76.74-7.35,2.21-11.19,2.62-2.3.24-4.43,1.2-6.71,1.64-5.21.99-10.44,1.7-15.73,2.18-2.93.27-6,.29-8.7,1.81-.26.15-.58.22-.88.26-3.97.48-7.94.96-11.91,1.4-2.59.29-5.16.54-7.71,1.24-2.88.78-5.81,1.44-8.8,1.76-1.68.18-3.36.4-4.92,1.15-.34.17-.73.28-1.1.33-7.1.93-13.86,3.32-20.84,4.76-4.36.9-8.68,2.05-13.15,2.29-.23.01-.47.01-.69.09-3.2,1.15-6.35.41-9.55-.08-4.28-.66-8.6-.4-12.9-.19-3.92.19-7.76.91-11.56,1.94-3.03.82-6.2,1.12-9.29,1.77-3.91.83-7.8,1.74-11.67,2.7-.87.22-1.65.81-2.49,1.19-2.05.93-4.26,1.21-6.43,1.71-4.74,1.09-9.51,1.65-14.36,1.91-1.82.1-3.61.81-5.43,1-5.28.55-10.55,1.29-15.88,1.04-.77-.04-1.53-.16-2.29-.23-1.38-.12-2.54.03-3.85.91-2.02,1.36-4.52,1.21-6.91.76-.37-.07-.72-.28-1.08-.39-.58-.18-1.09-.06-1.38.5-.29.56.18.83.53,1.11.6.47,1.2.92,1.92,1.46-1.45,1.72-2.32,3.68-3.55,5.43-.87,1.25-.86,1.81.44,2.67,3.08,2.04,6.24,4.07,9.81,5.05,6.78,1.88,13.21,4.56,19.53,7.56,1.54.73,3.15,1.34,4.84,1.37,2.74.04,5.11,1.17,7.35,2.49,1.92,1.13,3.93,1.74,6.06,1.99,1.95.23,3.77.73,5.4,1.82,1.24.83,2.59,1.27,4.07,1.51,2.28.37,4.56.76,6.65,1.84.97.5,1.87,1.08,2.4,2.08,1.28,2.41,3.39,3.93,5.71,5.18,1.76.94,3.55,1.82,5.19,2.98,1.45,1.02,2.97,1.9,4.69,2.43.8.25,1.63.58,2.29,1.08,3.39,2.6,7.46,3.1,11.46,3.84,2.42.45,4.84.89,7.25,1.36.45.09.9.23,1.31.45,3.22,1.7,6.66,2.72,10.21,3.44.92.19,1.79.58,2.45,1.23,1.07,1.05,2.37,1.68,3.71,2.28,6.11,2.71,11.89,6.1,18.06,8.69,1.2.5,2.42,1.04,3.68,1.31,2.25.49,4.56.9,6.63,1.84,3.27,1.48,6.88,1.58,10.15,2.72,2.02.71,4.15.72,6.11,1.59,1.88.84,3.78,1.68,5.82,2.13,1.05.23,2.08.62,3.14.73,3.2.34,6.09,1.64,8.94,2.95,2.9,1.33,5.87,2.32,9.04,2.58,2.73.22,5.13,1.6,7.79,2.01,3.01.45,5.59,2.09,8.43,2.96,4.4,1.34,8.62,3.22,13.17,4.07,1.59.3,3.16.64,4.79.34.96-.18,1.93-.52,2.8.38.35.36.87,0,1.3-.13,2.12-.67,4.23-1.44,6.52-1.03.15.03.32.03.46-.02,4.32-1.48,8.89-1.43,13.32-2.23,4.83-.87,9.67-1.71,14.35-3.28.44-.15.89-.31,1.26-.56,4.75-3.29,10.21-4.53,15.77-5.42,3.72-.6,7.43-1.3,11.13-1.99,5.49-1.02,11-1.99,16.46-3.22,2.43-.55,4.99-.89,7.52-1.05,5.45-.36,10.86-1.14,16.27-1.88,2.88-.4,5.8-.67,8.69-.93,5.33-.48,10.42-1.99,15.64-2.92.99-.18,1.97-.28,2.97-.07,1.51.32,3.05.44,4.59.46,1.25.01,2.43.12,3.42,1.07.72.69,1.74.54,2.65.52,3.63-.06,6.85,1.13,9.5,3.53,1.98,1.79,3.94,3.62,5.45,5.92,1.08,1.65,1.57,3.36,1.5,5.21-.13,3.75.35,7.51-.37,11.26-.27,1.4-.09,2.92.1,4.36.48,3.76.37,7.53.23,11.29-.17,4.41.28,8.75.83,13.09.29,2.27.01,4.32-1.4,6.31-.98,1.38-1.33,3.21-1.94,4.84-.57,1.5-1.06,3.01-1.41,4.59-.55,2.42-1.82,4.39-4.37,5.22-.36.12-.68.35-.99.56-.1.07-.11.26-.21.52,1,.63,2.08-.54,3.22.2.13,1.37-.95,2.54-1.11,3.97-.41,3.82-1.13,7.6-1.69,11.4-.16,1.07-.4,2.11-.62,3.16-.29,1.33-.81,2.44-1.97,3.25-.63.44-1.13,1.02-1.48,1.74-.69,1.4-1.33,1.59-2.59.7-1.25-.89-2.46-1.85-3.67-2.8-1.75-1.38-3.49-2.78-5.23-4.18-.62-.5-.99-.96-.66-1.94.42-1.23-.97-2.89-2.23-2.61-2.22.5-3.39-.79-4.72-2.12-1.61-1.6-2.52-3.67-3.89-5.42.53-1.8-1.07-2.64-1.76-3.89-.27-.49-.36-1.03-.33-1.56.11-1.77-.83-2.87-2.43-3.13-1.56-.25-1.55-1.14-1.45-2.3.18-2.13.19-4.28.47-6.4.55-4.25-.19-8.44-.31-12.66-.07-2.46.08-4.92.25-7.37.24-3.38.21-6.75-.09-10.13-.19-2.14-.14-4.3-.21-6.45-.02-.81.19-1.68.79-2.06.73-.46,1.45.11,1.96.76.36.46.84.61,1.4.68.92.11,1.82.34,2.74.42,3.55.31,6.13,2.08,7.45,5.34,1.12,2.76,2.79,5.3,3.38,8.3.65,3.31.95,6.65.7,10.01-.07.94-.65,1.78-1.06,2.65-1.04,2.24-2.62,4.35-2.56,7.01,0,0-.05-.06-.05-.06ZM116.31,418.22c.37.74.72,1.5,1.12,2.22.27.48.6.94.04,1.4-.61.5-1.31.82-2.09.5-.6-.24-.53-.84-.53-1.37.01-1.18,1.02-1.8,1.49-2.73.27-.27.54-.53.79-.81,1.34-1.48,2.61-1.34,3.59.39.28.5.38,1.03-.06,1.47-.42.42-1,.55-1.44.1-.82-.84-1.91-.88-2.91-1.17Zm179.25-101.12c-1.34-2.06-3.16-3.74-4.57-5.76-1.38-1.98-3.5-3.41-4.55-5.86,1.19-.02,1.39.76,1.73,1.31.54.85,1.2,1.58,1.87,2.32,1.59,1.76,3.13,3.56,4.74,5.31.73.8,1.1,1.64.75,2.7.38-.11.77-.18,1.11.03.95.56,3.07,3.59,3.44,4.89-.82-.08-1.03-.8-1.46-1.29-1.05-1.2-1.63-2.78-3.06-3.65Zm-85.64-84.34c-1.1-.96-2.57-.85-3.85-1.25-3.28-1.03-6.64-1.78-10.01-2.47-.79-.16-1.8-.21-2.47-1.29,2.73-1.06,5.12-1.58,7.89-.36,2.61,1.15,4.88,2.89,7.51,3.94.69.27.86.8.92,1.44,1.21-.4,2.59-.55,3.54.21,2,1.58,4.34,2.74,6.18,4.77-.93.2-1.49-.24-2.05-.57-2.16-1.3-4.3-2.63-6.43-3.96-.39-.24-.73-.56-1.24-.44Zm101.79-79.97l-.02.04c.59-.6,1.16-1.23,1.78-1.79,1.07-.96,1.52-.83,1.78.55.21,1.08.53,2.09,1.24,2.93,2.71,3.2,5.6,6.19,9.25,8.37.54.32,1.25.63,1.32,1.42-1.07.94-1.49-.81-2.38-.58-.31,1.9-.32,1.93-2,1.13-.63-.3-1.25-.57-1.95-.67l.06-.06c-1.06.8-2.35.59-3.54.8-1.05.19-.14-1.41-1.14-1.39-.07,0-.13-.09-.2-.11-2.87-.96-3.84-3.66-5.17-5.92-1.18-2.02-.68-3.6.97-4.73Zm233.43,158.74s.05-.06.05-.06c.06.14.21.33.17.41-.83,1.46-2.3,2.11-3.79,1.61-1.16-.39-2.26-.95-3.42-1.35-1.73-.6-2.2-1.68-1.03-2.99.77-.87,1.21-1.96,2.09-2.73.28-.24.71-.57.47-.95-.9-1.43.19-1.26,1.02-1.35.61-.06,1.32.03,1.81-.25,1.8-1.01,3.6-.42,5.39-.17,2.02.29,2.8,1.82,2.02,3.72-.23.57-.58,1.09-.78,1.66-.92,2.63-1.21,2.81-3.99,2.43Zm-228.96-80.2c-1.58-1.51-3.77-1.64-5.66-2.36-5.92-2.26-11.56-4.98-16.58-8.88-2.12-1.64-4.52-2.83-6.69-4.43-1.62-1.2-3.34-2.46-5.3-3.22-2.94-1.13-5.86-2.31-8.79-3.47-5.17-2.04-10.52-3.42-16.12-3.65-1.61-.07-3.2-.07-4.56-1.21-.5-.42-1.26-.55-1.92-.74-3.83-1.09-7.79-1.73-11.5-3.26-.78-.32-1.62-.52-2.48-.47-1.66.1-3.23-.32-4.71-.96-2.36-1.03-4.85-1.5-7.37-1.77-4.67-.52-9.32-1.08-13.61-3.22-2.2-1.1-4.86-1.42-6.69-3.04-2.26-2-5.12-2.74-7.54-4.34-1.13-.75-2.72-.83-3.79-1.63-2.37-1.77-5.13-2.78-7.68-4.17-4.12-2.25-8.59-3.8-13.07-5.15-6.63-2-12.16-5.73-17.35-10.13-1.45-1.23-2.83-2.58-4.63-3.39-4.57-2.07-9.4-3.36-14.15-4.88-.87-.28-1.81-.33-2.72-.49-.76-.13-1.54-.2-2.26-.42-3.97-1.22-8.02-2.13-12.05-3.11-4.06-.98-8.06-2.05-11.09-5.21-.49-.51-1.08-.9-.85-1.73.21-.77.9-.37,1.35-.54.5-.19.97-.45,1.45-.69.36-.18.74-.32,1.07,0,1.62,1.52,3.8,1.99,5.67,3.04,4.31,2.44,8.99,4.07,13.73,5.34,4.44,1.19,8.97,2.08,13.25,3.82,3.56,1.45,7.34,2.34,10.74,4.18,5.81,3.15,12.15,4.85,18.52,6.23,5.42,1.18,10.55,3.34,16,4.33.15.03.31.08.43.17,1.25.88,2.7,1.09,4.16,1.22,2.28.2,4.26,1.12,6.25,2.2,4.11,2.23,8.07,4.82,12.71,5.94,5.86,1.42,11.34,3.81,16.79,6.31,3.49,1.59,6.91,3.43,10.92,3.39.44,0,.92.16,1.31.37,3.04,1.7,6.5,2.27,9.66,3.66.9.39,1.91.53,2.93.59,2.61.16,4.89,1.28,7.05,2.65,3.81,2.44,7.6,4.88,12.01,6.14,1.03.29,2.06.66,3.01,1.15,3.56,1.84,7.37,2.46,11.33,2.79,3.2.27,6.39.82,9.52,1.55,4.17.97,8.43,1.85,12,4.49.12.09.29.11.43.17,4.28,1.71,8.51,3.55,12.85,5.08,1.69.59,3.41,1.45,5.5.74,1.87-.64,3.02.9,2.25,2.68-.27.63-.67,1.21-1.04,1.79-.29.45-.68.83-.73,1.41-.18,1.96-.13,3.82,1.32,5.41,1,1.09.65,2.15-.73,2.54-.51.14-1.06.14-1.6.17-.19.01-.27-.13-.25-.3.3-.67,1.31-.26,1.61-1.04-.23-.12-.42-.31-.61-.32-3.83-.22-7.2-2.17-10.88-2.93-.54-.11-.98-.42-1.39-.78-1.61-1.42-3.18-2.91-4.88-4.23-.66-.51-.18-1.36-.88-1.79-.34.12-.69.25-1.05.37-.48.17-1.21.07-1.23.79-.02.68.51,1.09,1.13,1.31,1.03.36,1.98.89,2.8,1.58,1.23,1.04,2.34,2.22,3.86,2.88.61.26.88.83.85,1.51.83-.13,1.67-.34,2.34.46-.89.29-1.49-.7-2.34-.46Zm-11.63,173.36c-1.16-.5-1.38.39-1.46,1.13-.2,1.91-.3,3.83-.41,5.74-.03.45.03.97.55,1.16.65.23.95-.3,1.3-.7.75-.87.91-2.07,1.63-3.16.4,1,.11,1.71-.18,2.41-1.12,2.7-2.52,5.27-3.79,7.9-.69,1.44-2.2,2.13-2.9,3.53-.17.35-.66.36-1.04.37-1.88.08-3.77.92-5.65-.12-.53-.29-1.2-.05-1.82.01-1.07.11-2.15.22-3.22.21-5.23-.03-10.45,0-15.66-.79-3.42-.52-6.92-.53-10.07,1.45-.5.32-1.17.36-1.75.56-3.27,1.16-6.86,1.09-10.06,2.35-4.29,1.69-8.56,3.24-13.07,4.34-5.13,1.24-10,3.4-15.26,4.31-6.57,1.14-12.56,4.03-18.57,6.78-1.18.54-2.25,1.32-3.29,2.12-2.48,1.9-4.71,4.22-7.93,4.97-.57.13-1.14.52-1.59.91-2.41,2.07-5.21,3.53-7.9,5.16-3.03,1.83-5.99,3.84-9.2,5.27-2.52,1.12-4.41,2.71-6.02,4.81-1.1,1.42-1.44,1.47-2.54-.06-2.13-2.95-4.73-5.46-7.25-8.05-3.74-3.85-7.92-7.34-10.48-12.2-.14-.27-.37-.5-.6-.7-4.88-4.4-8.64-9.8-12.98-14.67-2.19-2.45-3.69-5.45-4.59-8.7-.39-1.41-.29-2.75.04-4.09.25-1.04,1.35-1.14,2.14-1.58.49-.27,1.04-.74.71-1.26-.79-1.24.14-1.62.89-2.13,2.85-1.95,5.62-4.05,8.59-5.82,7.91-4.7,15.14-10.24,21.7-16.67,4.09-4.02,8.94-6.99,13.71-10.08,2.83-1.84,5.76-3.56,8.43-5.61,3.52-2.7,7.28-4.82,11.53-6.15,2.04-.64,4.09-1.45,5.79-2.77,2.02-1.57,4.22-2.8,6.48-3.93,1.84-.92,3.61-1.97,5.59-2.66,2.24-.78,4.49-1.7,6.5-2.95,2.34-1.45,4.78-2.39,7.43-2.96,4.21-.91,8.45-1.6,12.75-1.93,1.22-.09,2.44-.29,3.66-.46.48-.07.95-.24.88-.83-.06-.56-.55-.7-1.03-.7-.54,0-1.07.1-1.61.13-2.16.15-4.32.29-6.48.43.73-1.02,1.65-1.3,2.67-1.24,2.18.14,4.28-.33,6.39-.75,3.14-.62,6.28-.73,9.36.27,3.52,1.14,6.89,2.66,10.05,4.58,4.95,3.01,10.3,5.09,15.7,7.1,4.53,1.68,9.34,2.48,13.73,4.62,2.37,1.16,4.19,3,6.36,4.35-.16.3-.2.48-.3.54-.51.31-1.27.43-1.13,1.24.14.81.89.73,1.48.76.87.05,1.64.15,2.1,1.09.45.92,1.18.94,1.81.14.72-.91,1.47-1.23,2.46-.45-.17.43-.52.39-.78.51-.63.27-1.46.46-1.17,1.39.26.85,1.1,1.03,1.88,1.05.35,0,.74-.2,1.04-.41.48-.33.94-.45,1.51-.31.99.23,1.67-.02,1.68-1.22,0-.55.41-.84.92-.84,1.01,0,1.93-.46,3.17-.81-1.76,2.99-2.6,6.07-4.61,8.45-.46-.07-.53-.44-.76-.61-1.01-.7-1.79-.37-1.92.8-.03.3-.02.63.07.91.59,1.86.58,3.81.63,5.72.07,2.64.09,5.23-1.25,7.8-1.77,3.4-2.82,7.13-3.01,11.03.52-.36.74-1.17,1.57-1.11-.08,1.7-.58,2.99-1.64,4.18-.36-1.12.15-2.12.12-3.14Zm34.48,52.86c.53-.11.75-.22.96-.2,2.84.21,5.67.44,8.51.65.54.04,1.08.07,1.61.04.5-.03.89-.27.93-.83.03-.5-.19-.93-.66-1.1-.43-.15-.9-.23-1.36-.24-3.54-.06-7.06-.59-10.61-.4-2.03.11-3.99-.33-5.78-1.31-3.85-2.13-5.68-5.69-6.72-9.76-.18-.72-.06-1.37.86-1.05,1.92.68,3.82.05,5.72.06.95,0,1.74-.28,2.57-.81,1.2-.77,2.42-1.56,4.01-1.54,3.16.05,3.68-.43,4.91-3.44.91-2.22,1.53-4.51,2.08-6.83.09-.38.28-.79.71-.81.45-.02.66.38.69.77.21,2.29,1.77,2.75,3.71,2.95,3.53.37,7.05.57,10.59,0,.9-.14,1.86-.16,2.76-.03,3.06.42,6.2.1,9.2.68,6.28,1.22,12.21-.85,18.26-1.63,5.8-.75,11.27-3.75,17.37-2.65.07.01.15-.03.23-.03,4.83.17,9.71-.15,14.33,1.79,1.94.82,4,1.12,6.11.91,1.05-.1,2,.12,2.83.74.99.75,2.1,1.28,3.26,1.71,1.26.48,2.41,1.23,3.11,2.3,1.17,1.78,2.9,2.72,4.69,3.58,1.57.75,2.95,1.74,3.97,3.09,3.45,4.57,7.95,8.11,11.9,12.19.63.66,1.37,1.3,2.26,1.57,1.63.49,2.73,1.64,3.88,2.79,3.2,3.21,5.94,6.87,9.55,9.68.18.14.35.31.5.48.98,1.14.98,1.75-.17,2.7-1.71,1.43-3.37,2.97-5.25,4.14-3.74,2.32-7.1,5.12-10.6,7.75-2.02,1.51-4.2,2.91-6.71,3.47-.91.2-1.5.55-2.06,1.22-.89,1.06-1.69,2.34-3.07,2.72-2.11.58-3.33,2.12-4.58,3.68-.63.78-1.23,1.56-2.13,2.08-2.63,1.5-5.45,2.54-8.38,3.16-1.78.38-3.37,1-4.85,2-2.67,1.81-5.76,2.83-8.53,4.48-2.03,1.22-4.29,2.06-6.23,3.48-1.58,1.16-3.4,1.88-5.31,2.13-1.54.2-2.99.61-4.47,1.04-2.65.78-5.38,1.34-7.98,2.27-3.24,1.16-6.24,2.96-9.74,3.45-.88.12-1.7.69-2.53,1.09-2.78,1.35-4.94,3.59-7.51,5.24-1,.64-1.89,1.23-3.11,1.31-1.32.08-2.69.33-3.72,1.11-1.5,1.13-3.19,1.49-4.93,1.75-2.14.32-4.21.9-6.31,1.36-4.13.89-8.25,1.85-12.42,2.53-3.64.59-7.33.79-11,1.23-5.04.61-10.07,1.27-15.1,1.95-2.59.35-5.14.99-7.78.44-1.5-.31-3.05-.43-4.56-.69-4.9-.85-9.88-1.16-14.66-2.89-3.45-1.24-7.17-1.83-10.41-3.58-4.3-2.32-8.89-3.81-13.47-5.38-1.61-.55-3.23-.95-4.92-1.15-2.96-.35-5.67-1.34-7.95-3.34-.28-.25-.62-.52-.97-.58-3.15-.54-5.87-2.26-8.88-3.17-2.72-.82-5.41-1.71-7.96-3.03-4.24-2.2-8.62-4.02-13.26-5.27-2.95-.79-5.82-1.81-8.4-3.66-1.52-1.09-3.09-2.33-4.94-2.91-4.34-1.36-7.9-4.42-12.28-5.68-.21-.06-.39-.24-.56-.4-1.48-1.42-3.33-2.18-5.19-2.93-1.51-.61-2.97-1.3-4.23-2.33-1-.82-2.08-1.66-1.8-3.23.09-.49-.2-.84-.49-1.23-2.15-2.75-4.7-4.96-7.75-6.75-4.31-2.53-7.47-6.35-10.33-10.39-.55-.78-.69-1.48.03-2.26,1.99-2.14,3.98-4.23,6.71-5.54,4.93-2.37,9.62-5.24,14.11-8.28,4.59-3.11,9.6-4.7,14.79-6.08,3.02-.81,6.14-1.24,8.99-2.75,2.44-1.29,5.06-2.25,7.25-4.01.35-.28.79-.52,1.22-.62,3.57-.83,6.58-2.95,9.88-4.37,2.32-1,4.6-2.45,7.03-2.8,3.57-.51,6.79-1.92,10.12-3,3.87-1.25,7.71-2.55,11.64-3.6,4.43-1.19,8.91-1.59,13.49-1.24,5.52.42,10.92,1.76,16.47,1.95,3.31.11,6.61.28,9.91-.15.82-.11,1.53-.27,1.61-1.28.04-.59-.11-1.33.7-1.51.7-.16,1.24-.83,1.85-.84.88-.02,1,1.03,1.43,1.63.13.19.21.41.33.61,1.99,3.29,3.89,6.66,7.34,8.73,1.32.79,2.66,1.55,3.93,2.42,2.89,1.97,4.07,6.47,2.29,8.96-1.34,1.87-2.91,3.58-4.75,5-.49.38-.99.8-1.61.86-3.47.36-6.98.56-10.17-1.07-2.86-1.46-5.74-3-7.9-5.51-.45-.52-.97-1-1.68-1.18-.46-.12-.94-.16-1.25.29-.23.34-.18.76.06,1.09.6.8,1.15,1.61,1.31,2.65.07.47.52.76.92.99,1.06.62,2.09,1.33,3.22,1.8,1.1.45,2.08,1,2.84,1.9,1.62,1.9,3.76,2.86,6.12,3.46,1.12.28,2.24.56,3.31.98,2.83,1.1,4.27.81,6.39-1.39,1.7-1.77,3.44-3.48,4.9-5.49.88-1.21,1.35-1.14,1.98.16,1.38,2.84,3.48,5.04,5.84,7.05,2.3,1.97,4.71,3.79,7.88,4,2.09.14,4.11.56,6.15.95,3.22.63,6.42.48,9.61-.28.54-.13,1.11-.25,1.12-.94.02-.75-.49-1.11-1.17-1.16-.84-.06-1.7-.15-2.52-.03-1.85.28-3.7.28-5.53.09-2.03-.21-4.11-.57-5.64-2.71Zm179.47-277.66c-.72-.45-1.2-.01-1.67.13-3.59,1.14-7.17,2.31-10.97,2.55-1.63.1-3.23.38-4.73.98-3.16,1.27-6.55,1.66-9.81,2.54-6.38,1.72-12.94,2.63-19.33,4.38-5.77,1.58-11.65,2.88-17.74,2.38-.99-.08-2,.11-2.99.15-4.08.17-8.04,1.31-12.12,1.53-2.07.11-4.2.14-6.18.67-4.03,1.08-8.2,1.25-12.25,2.19-3.73.87-7.58,1.2-11.34,1.97-2.78.57-5.47,1.5-8.32,1.84-1.16.14-2.3-.16-3.44.1-4.64,1.08-9.31,1.88-14.09,2.27-7.04.58-14.04,1.65-21.05,2.52-.61.08-1.21.23-1.82.3-2.82.34-5.46,1.61-8.35,1.63-2.57.02-4.7,1.32-6.68,2.79-.87.65-1.79,1.16-2.73,1.68-1.65.9-3.42.76-5.17.92-.99.09-1.93.18-2.57,1.21-.78,1.25-1.09,1.27-1.91.08-.62-.89-1.22-1.36-2.27-.9-.78.35-1.31-.12-1.9-.48-1.17-.71-1.17-.7-2.33-.56.4.8,1.66.86,1.7,2.05-1.12.17-2.14-.05-3.16-.45-1.93-.76-3.87-1.51-5.93-1.89-3.63-.67-7.25-1.35-10.89-1.98-2.08-.36-3.94-1.12-5.6-2.48-2.03-1.67-4.21-3.27-6.88-3.53-3.03-.3-5.86-1.16-8.71-2.12-1.24-.42-2.41-.98-3.67-1.36-6.23-1.89-12.43-3.93-18.65-5.85-2.52-.78-4.74-2.23-7.16-3.16-4.38-1.68-8.78-3.28-12.93-5.49-.94-.5-2.03-.71-3.03-1.11-2.81-1.11-5.88-1.23-8.68-2.26-4.75-1.75-9.57-3.33-14.14-5.56-.48-.23-1-.43-1.52-.52-1.53-.27-2.93-.9-4.38-1.41-2.63-.92-4.95-2.46-7.49-3.56-4.64-2.01-9.29-4.02-13.94-6.01-.49-.21-1.03-.3-1.55-.42-5.64-1.33-11.34-1.9-17.15-1.97-4.54-.06-8.96-.96-13.18-2.9-3.41-1.58-6.77-3.39-10.45-4.28-3.74-.91-7.07-2.65-10.17-4.8-5.07-3.52-10.45-6.44-16.1-8.9-.35-.15-1.01-.1-.85-.84.65-.57,1.45-.33,2.19-.4,3.38-.34,6.76.1,10.14.11,4.16.01,8.3-.69,12.44-.66,8.51.05,16.82-1.37,25.14-2.83.68-.12,1.37-.16,2.06-.24,3.44-.36,6.89-.65,10.32-1.1,7.62-.99,15.07-2.94,22.63-4.25,5.39-.94,10.86-1.01,16.27-1.77,4.18-.59,8.42-.82,12.63-1.13,1.6-.12,3.23-.27,4.77.48.75.37,1.48.17,2.23-.11,1.81-.67,3.66-1.22,5.6-1.27,4.01-.11,7.97-.63,11.94-1.13,4.42-.56,8.86-1,13.03-2.76.98-.41,2.07-.56,3.12-.8,2.23-.52,4.53-.76,6.66-1.71.68-.3,1.46-.48,2.25-.4,1.31.13,2.39-.37,3.32-1.28.61-.6,1.25-1.1,2.19-1.13,2.4-.07,4.52-1.21,6.78-1.83.05-.01.03-.27.07-.64-3.32-.1-6.35.94-9.29,2.23-1.06.46-2.12.83-3.2,1.21-3.07,1.06-6.29,1.49-9.35,2.51-3.88,1.3-7.82,2.26-11.9,2.64-1.68.16-3.35.35-5,.8-1.62.44-3.31.72-5.02.64-.66-.03-1.4.12-1.96-.83,5.78-2.73,12.06-3.99,18.24-6.34-1.73-.94-2.72.25-3.83.54-2.36.61-4.8.99-7.03,2.06-1.05.5-2.17.73-3.28,1.05-1.91.55-3.87,1-5.62,2-2.04,1.17-4.25,1.89-6.58,1.95-5.31.12-10.55,1.14-15.87,1.19-3.22.03-6.43.59-9.64.91-5.9.57-11.8,1.13-17.56,2.58-7.18,1.8-14.48,2.77-21.83,3.46-2.9.27-5.82.28-8.69,1.03-1.76.46-3.57.89-5.44.94-2.7.08-5.35.54-8.01.98-2.87.48-5.77.55-8.65-.06.74-.31,1.49-.49,2.23-.66,4.12-.93,8.29-1.63,12.19-3.36,3.61-1.6,7.53-2.16,11.33-3.02,3.28-.75,6.63-1.38,9.97-1.86,2-.29,3.76-1.29,5.78-1.52,3.52-.41,7.05-.52,10.59-.59,1.77-.04,3.62-.49,5.28-.11,4.65,1.06,9.19,1.27,13.93.38,2.7-.51,5.51-.74,8.15-1.45,7.27-1.95,14.62-3.56,21.92-5.36,4.62-1.14,9.27-2.17,13.92-3.19,4.45-.97,8.97-1.3,13.44-2.02,3.94-.64,7.93-.98,11.8-2.06,1.84-.52,3.73-1,5.62-1.14,4.3-.31,8.57-.78,12.79-1.65.41-.08.9-.39,1.2.22-.08.45-.46.58-.78.76-2.39,1.34-5.01,1.92-7.69,2.29-5.02.7-10.06,1.29-15.06,2.1-3.94.64-7.9,1.22-11.77,2.25-.57.15-1.24.16-1.43.93.62.46,1.24.24,1.76-.03.98-.52,2.05-.65,3.1-.88,8.12-1.81,16.44-2.26,24.64-3.55.39-.06.81-.15.98.32.17.48-.09.88-.36,1.26-.39.54-1.3-.25-1.6.73.93.72,1.73.09,2.44-.35,2.81-1.72,5.53-3.6,8.89-4.15.52-.09,1.06-.29,1.5-.57,1.77-1.15,3.8-1.67,5.71-2.45,3.36-1.37,6.94-1.94,10.44-2.83.75-.19,1.48.05,2.21.42.82.4,1.75.87,2.61.82,3-.16,5.72,1.12,8.61,1.47.99.12,1.91.55,2.82.99.55.27,1.13.58,1.72.62,2.34.14,4.52.84,6.68,1.67,1.22.47,2.44.92,3.8.76.75-.09,1.26.45,1.87.78,2.69,1.48,5.35,3.05,8.3,3.99,3.92,1.25,7.86,2.44,11.79,3.67,2.85.89,5.72,1.62,8.47,2.9,2.91,1.36,5.67,3.11,8.82,3.97,3.25.89,6.33,2.31,9.54,3.31,2.08.65,3.79,2.03,5.93,2.5,6.16,1.35,12.16,3.18,17.83,5.96,3.73,1.83,7.74,2.98,11.42,4.91,2.8,1.47,5.73,2.72,8.84,3.19,2.89.43,5.43,1.58,8.02,2.76,2.65,1.21,5.14,2.81,8.09,3.31,1.74.3,3.49.62,5.2,1.04,4.1,1,8.27,1.77,12.12,3.59,2.12,1,3.9,2.71,6.38,2.99.37.04.91.55.89,1.19-2.34.48-8.64.34-10.7-.2-1.86-.49-3.75-.88-5.69-.83-3.63.09-7.23-.26-10.82-.66-1.84-.2-3.68-.3-5.53-.28-3.39.03-6.81-.02-10.06-1.06-2.13-.69-4.22-.59-6.38-.57-4.14.05-8.27-.09-12.41-.16-.3,0-.6-.13-.91-.17-6.25-.89-12.51-1.58-18.79-2.14-3.35-.3-6.69-.94-9.98-1.69-4.36-.99-8.73-1.79-13.22-1.6-2.54.11-5.07.33-7.58-.28-.51-.13-1.08-.16-1.61-.09-2.53.34-5.08.19-7.59.01-5.83-.41-11.66-.79-17.51-.85-1-.01-1.74-.3-2.33-1.17-1.2-1.77-2.94-2.95-4.91-3.69-1.32-.5-2.6-1.06-3.64-1.96-2.66-2.3-6.08-2.72-9.2-3.28-3.64-.65-7.52-.49-11.18.81-.79.28-1.64.64-2.45.6-2.3-.11-4.14.99-6.06,1.95-1.74.87-2.88,2.26-3.56,4.06-.24.64-.6,1.25-.81,1.9-1.48,4.73-.93,7.45,2.97,10.87,2.82,2.47,6.4,3.57,9.67,5.24.07.03.23-.12.34-.18,0-.39-.36-.45-.59-.62-.29-.22-.74-.39-.54-.87.17-.39.59-.47.98-.48.23,0,.47.02.68.1,1.43.54,2.99.73,4.34,1.54,1.27.76,2.68,1.1,4.19,1.13,1.07.02,2.14.23,3.2.39.91.14,1.81.3,2.96-.08-.92-.5-2.05-.06-2.63-1.15,1.31-.54,2.55-.95,3.98-.64,1.29.28,1.3.24.76,1.79,1.37.02,2.61-.3,3.82-.81,1.11-.46,2.1-1.42,3.95-.8-2.74,1.85-5.28,3.12-8.15,3.24-3.75.15-7.55.38-11.2-.92-.5-.18-1.1-.45-1.72-.12.37.73,1.02.8,1.58.98,4.03,1.29,8.2,1.1,12.34,1.09,1.13,0,2.26-.39,3.33-.86,1.27-.56,2.42-1.34,3.67-1.9,1.64-.73,2.78-1.82,3.43-3.49.57-1.46,1.04-1.71,2.63-1.63,1.38.07,2.77.29,4.15.24,3.95-.15,7.61.66,11.03,2.69.95.57,2.1,1.09,3.35.39-1.88-.7-3.97-.96-5.19-2.99.62,0,1.26-.19,1.65.03,1.86,1.05,3.84,1.65,6.02,1.75-.24.7-1.24.57-.99,1.31.17.49.72.49,1.19.54,3.44.32,6.88.76,10.33.94,5.44.28,10.9-.47,16.35,0,.67.06,1.39-.07,2.06-.23,3.57-.84,7.14-1,10.73-.07.4.1.88.38,1.24-.18-.59-.93-1.82-.55-2.52-1.15.01-.45.31-.69.58-.69,1.51,0,2.95-.49,4.51-.3,3.05.37,6.1.68,9.14,1.15,1.77.27,3.5.56,5.06,1.44,1.11.63,2.27.85,3.51,1,1.75.21,3.57.1,5.24.75,2.19.85,4.47,1.11,6.76,1.37,1.68.19,3.37.32,5.04.56,5.86.84,11.79,1.25,17.47,3.08.36.12.75.16,1.14.2,3.6.34,7.19.68,10.79,1.02,2.09.19,4.18.38,6.52.59-1.69.81-3.22.87-4.76.79-5.53-.3-11.07.05-16.61-.45-3.77-.34-7.51-.55-10.99-2.22-.41-.2-.87-.37-1.32-.39-3.62-.18-7.14-1.07-10.7-1.64-3.08-.5-6.28-.79-9.1-2.35-1.4-.78-2.91-1.04-4.45-1.02-1.41.02-2.74-.23-4.1-.52-1.71-.37-3.44-.68-5.28.59,2.57-.04,4.85.22,7.09.8.65.17,1.38.13,2.07.08,1.34-.09,2.57.24,3.82.71,3.31,1.25,6.76,2,10.24,2.61,3.78.66,7.61,1.14,11.3,2.2,4.15,1.19,8.31,2.26,12.66,2.33,3.92.06,7.86-.06,11.76.27,3.57.3,7.07.11,10.57-.47,3.79-.62,7.52-1.48,11.4-1.59,3.08-.09,6.26-.27,9.19.32,2.5.51,4.83.51,7.26.32.92-.07,1.85-.06,2.77-.01.58.03,1.45-.21,1.64.49.22.86-.75,1.02-1.3,1.36-.85.52-1.87.82-2.62,1.45-2.86,2.38-6.27,3.16-9.82,3.58-2,.24-3.99.61-5.74,1.61-3.22,1.84-6.72,1.07-10.11,1.25-.04,0-.1-.24-.22-.53,2.25-.55,4.51-.93,6.7-1.61,3.21-1,6.43-2.11,9.85-2.33.92-.06,1.85-.22,2.72-.49,2.38-.75,4.83-1.4,6.94-3.02Zm-180.56,201.83c2.22-.22,3.85-1.06,5.5-1.83,2.36-1.1,4.42-2.76,6.96-3.53,1.09-.33,2.15-.76,3.18-1.31,2.16-1.17,4.41-2.17,6.62-3.26,2.44-1.2,4.63-2.71,6.28-4.93.64-.86.95-1.94,1.8-2.66,2.05-1.74,4.07-3.52,6.14-5.23,4.03-3.34,8.57-5.98,12.71-9.18,1.74-1.35,3.79-2.33,6.04-2.76,4.24-.81,8.04-2.91,12.15-4.15,2.64-.8,5.16-2.08,8.01-.82.53.23,1.21.17,1.83.16,1.49-.01,2.92.28,4.25.93,1.42.71,2.9.99,4.46.95,1.7-.04,3.21.68,4.43,1.65,2.3,1.83,4.74,3.38,7.3,4.81,3.62,2.03,7.2,4.12,10.26,6.99.67.63,1.42,1.23,2.24,1.62,3.37,1.57,5.53,4.25,7.32,7.4.9,1.59,1.81,3.2,3.15,4.52,4.17,4.14,8.95,7.5,13.94,10.52,5.01,3.03,8.25,7.24,9.97,12.75.79,2.52,2.01,4.81,4.02,6.62,1.55,1.39,2.97,2.95,3.94,4.79.95,1.78,2.38,3.05,3.97,4.08,2.05,1.33,3.64,3.07,5.18,4.88.76.89,1.55,1.68,2.48,2.37,3.89,2.89,7.95,5.52,12.04,8.11,1.99,1.26,3.5,2.9,4.68,4.89.22.37.26.69.04,1.07-.57,1-1.06,2.05-1.68,3.02-.79,1.24-.99,1.24-2.06.15-.35-.36-.69-.64-1.19-.4-.41.19-.42.6-.41.99.02.54.02,1.08.08,1.61.19,1.62-.42,2.9-1.74,3.76-1.85,1.2-3.2,2.85-4.47,4.6-2.6,3.59-5.78,6.54-9.6,8.81-1.06.63-1.96,1.48-2.78,2.41-1.42,1.62-3,3.07-4.66,4.46-2.36,1.97-4.17,4.52-6.55,6.47-1.13.92-2.11,2.01-3.52,2.57-1.36.53-1.35.58-2.04-.86-.34-.72-.92-1.22-1.49-1.73-1.88-1.7-3.81-3.36-5.62-5.14-5.58-5.52-11.08-11.1-16.65-16.63-3.88-3.84-7.78-7.67-12.03-11.11-3.11-2.52-6.31-5.01-10.73-4.52-.61.07-1.24-.08-1.73-.51-1.24-1.09-2.71-1.01-4.16-.77-2.03.33-3.99.19-5.89-.59-1.1-.45-2.23-.47-3.39-.46-3.07,0-6.15.1-9.19-.2-3.14-.31-6.28-.52-9.42-.64-1.93-.07-3.83-.19-5.68-.82-1.01-.34-2.07-.56-3.15-.68-4.55-.52-9.06.17-13.59.34-.86.03-1.66.35-2.41.74-2.19,1.14-4.49,1.99-6.77,2.92-1.5.61-2.76.97-3.81-.64-.32-.49-.81-.81-1.34-.28-1.48,1.48-3.48,1.42-5.31,1.87-.66.16-1.34.14-1.97.54-1.7,1.1-2.23,1.18-3.23-.31-1.52-2.26-2.74-4.72-4.03-7.13-.36-.67-.41-1.51-.8-2.15-1.19-1.93-1.9-4.03-2.48-6.18-.33-1.21-1-2.2-1.69-3.24-2.1-3.15-4.46-6.06-7.28-8.6-.56-.5-.96-1.2-1.37-1.85-.94-1.51-2.06-2.87-3.3-4.14-.86-.88-1.71-1.78-2.5-2.72-1.46-1.73-1.51-2.86-.27-4.79.29-.45.65-.85,1.01-1.26.92-1.07,1.52-2.24,1.72-3.69.3-2.09,1.5-3.55,3.4-4.62,1.86-1.04,3.92-1.34,5.85-2.06,2.59-.97,5.22-1.84,7.83-2.75.37-.13.8-.21.98.25.18.47-.22.7-.57.84-2.15.84-3.98,2.33-6.18,3.09-1.15.4-2.23,1-3.01,2.56Zm-217.09,26.25c.51,1.39.18,2.51.05,3.64-.06.5.14.93.63,1.11.57.21,1.06.01,1.43-.45.46-.59.39-1.31.41-1.99.06-1.61-.18-3.25.25-4.83,1.31-4.86,1.51-9.86,2.03-14.82.09-.84.22-1.69.49-2.48,1.18-3.5,2.62-6.88,4.41-10.12,2.8-5.07,4.73-10.52,6.65-15.94,1.23-3.48,2.31-6.98,4.22-10.17.47-.79.88-1.62,1.24-2.47,2.76-6.48,7.09-11.87,12.12-16.63,3.47-3.28,6.45-7.01,9.98-10.21,3.16-2.87,4.71-7.03,8.01-9.77.45-.37.69-1.01.96-1.56,1.26-2.62,3.27-4.65,5.33-6.6,2.73-2.57,5.52-5.12,8.72-7.08,1.49-.92,3.01-2.62,5.19-1.23.55.35,1.18-.05.97-.74-.4-1.3.33-1.97,1.26-2.35,3.16-1.3,5.58-3.72,8.47-5.41.33-.19.71-.31,1.04-.5,2.4-1.36,4.95-2.41,7.3-3.93,2.2-1.43,4.58-2.84,7.48-2.55,1.18.12,2.22-.57,3.27-1.03,1.79-.78,1.78-.82,2.63,1.02.81,1.74,1.41,3.64,2.72,5.05.9.97,1.74,1.94,2.21,3.16.49,1.28,1.51,1.78,2.65,2.33,4.59,2.22,9.63,3.08,14.35,4.96,3.76,1.5,7.78,2.34,11.61,3.74,4.17,1.53,8.59,2.11,12.93,2.97,3.33.66,6.72.72,10.06,1.25,1.38.22,2.2.8,2.99,1.8,2.76,3.49,5.56,6.94,8.38,10.39,4.36,5.35,8.75,10.66,12.71,16.33,5.01,7.17,9.9,14.42,14.87,21.62,1.55,2.24,1.64,4.63.51,6.75-.88,1.65-1.98,3.27-3.04,4.86-.57.85-1.25,1.26-2.27,1.28-5,.13-9.46-1.67-13.85-3.76-.34-.16-.65-.43-.9-.71-1.16-1.27-2.62-2.12-4.06-3.02-2.48-1.55-5.06-2.93-7.44-4.64-2.07-1.5-4.44-2.42-6.78-3.4-2.91-1.21-5.89-2.24-8.73-3.64-2.96-1.46-6-2.87-9.25-3.43-6.01-1.04-12.06-1.29-18.12-.21-2.04.36-4.09.89-6.18.73-1.85-.14-3.5.33-5.14,1.03-1.41.61-2.79,1.3-4.35,1.5-.54.07-1.14.22-1.38.73-.61,1.32-1.79,1.4-2.93,1.36-1.98-.07-3.64.72-5.08,1.88-1.28,1.03-2.7,1.75-4.12,2.52-2.57,1.4-5.48,2.03-8.01,3.53-4.63,2.75-9.93,4.14-14.43,7.14-.06.04-.15.05-.21.09-3.35,1.72-6.74,3.4-9.73,5.72-3.23,2.51-6.77,4.55-10.41,6.35-2.76,1.36-5.56,2.6-8.22,4.16-3.7,2.18-7.6,4.01-10.73,7.08-1.97,1.94-4.01,3.87-6.29,5.4-2.18,1.46-4.27,2.95-6.11,4.84-1.29,1.32-2.63,2.58-3.69,4.11-.75,1.08-1.57,2.12-2.65,2.88-3.76,2.66-7.42,5.45-11,8.35-.18.14-.38.26-.57.39-1.86,1.22-1.9,1.22-3.6-.13-.36-.29-.71-.6-1.1-.83-1.64-.99-1.65-1.02-1.33-2.84.15-.85.47-1.61,1.16-2.58Zm210.69-29.84c-.65-.57-.4-1.1-.24-1.59.19-.59.51-1.16.35-1.78-.92-3.42.5-6.59,1.43-9.65,1.09-3.55,2.98-6.89,4.77-10.19,1.01-1.87,2.39-3.58,3.84-5.15,3.23-3.5,6.63-6.83,9.9-10.29,1.1-1.17,2.06-2.46,2.51-4.09.63-2.3,1.96-4.32,2.93-6.48.49-1.1,1.17-2.17,2.13-2.98,2.64-2.23,5.53-4.14,8.4-6.06,1.85-1.24,3.79-2.33,5.31-4.01.63-.69,1.31-1.29,2.29-1.45.44-.07.92-.16,1.01-.76.11-.76-.74-.79-1.06-1.36.74-.2,1.42-.35,2.07-.57,1.16-.39,2.47-.59,3.42-1.28,1.31-.95,2.71-1.34,4.21-1.71,1.25-.31,2.6-.36,3.69-1.19,2.05-1.56,4.49-2.19,6.89-2.98,2.17-.71,4.45-.36,6.61-.88,3.03-.73,6.05-.99,9.14-.66,1.38.15,2.78.22,4.14-.06,2.45-.51,4.88-.38,7.34-.12,1.82.2,3.75.55,5.47.14,2.38-.56,4.74-1.24,7.17-1.63.88-.14,1.78-.55,2.53-1.05,1.02-.67,1.92-1.55,3.16-1.83.34-.08.64-.4.47-.64-.75-1.03.15-1.48.63-2.11,1.08-1.44,1.11-1.48,2.03-.02.33.52.67.82,1.26.82.68,0,.81-.5,1.02-1.04.85-2.27,1.16-2.31,2.79-.44.2.23.38.49.59.71,2.73,2.81,4.99,6.09,8.11,8.5,3.91,3.02,7.37,6.54,10.9,9.94,5.81,5.6,10.9,11.91,16.63,17.6,1.36,1.35,2.61,2.83,4.16,3.97,2.87,2.1,4.93,4.83,6.31,8.07,2.5,5.86,4.93,11.76,7.82,17.45.38.75.68,1.55.92,2.36.81,2.77,2.51,5.08,3.88,7.56,1.33,2.41,2.99,4.63,2.79,7.6-.06.83.3,1.65.67,2.42,2.28,4.73,3.77,9.71,4.94,14.81.4,1.73.36,3.53.87,5.22,2.22,7.45,2.29,15.13,2.55,22.79.03.8.39,2-.49,2.3-.99.34-1.46-.89-2.02-1.55-3.32-3.85-6.74-7.58-11.01-10.44-1.15-.77-2.18-1.7-3.12-2.73-1.56-1.7-3.16-3.37-4.72-5.06-2.92-3.17-5.37-6.71-7.65-10.34-1.66-2.64-3.61-4.97-5.87-7.06-4.91-4.53-10.34-8.46-15.1-13.16-.22-.22-.44-.43-.69-.61-2.97-2.19-5.65-4.74-8.53-7.05-1.32-1.06-2.67-2.07-3.85-3.3-1.04-1.08-1.29-2.69-2.32-3.69-2.77-2.69-4.89-5.92-7.56-8.69-1.09-1.13-2.36-1.87-3.89-2.35-1.54-.48-3.13-.69-4.66-1.25-4.58-1.68-8.23-4.74-12.02-7.63-2.2-1.67-4.14-3.7-6.53-5.1-2.09-1.22-4.53-1.76-6.82-3.59-.05,2.04.69,3.17,2,3.93.99.58,2.1.94,3.12,1.49,1.1.59,2.37,1.06,2.72,2.55-1.51.52-2.64-.23-3.83-.75-3.94-1.73-7.96-.97-11.96-.28-.49.08-.92.53-1.37.82-.59.39-1.19.77-1.92.69-1.55-.16-2.85.5-4.13,1.23-.94.53-1.95.9-2.99,1.2-3.17.92-6.54,1.48-9.42,2.96-3.09,1.59-6.15,3.67-8.46,6.23-4.75,5.27-10.55,8.95-16.78,11.92-3.1,1.47-5.96,3.21-8.64,5.21-1.89,1.41-3.79,2.07-6.03,2.41-3.79.58-7.53,1.43-10.89,3.46-1.16.7-2.07,1.78-3.3,2.28Zm-117.18-169.74c-.16-.47-.43-.85-.34-1.09.18-.49.65-.25.98-.11,2.89,1.23,5.78,2.48,8.67,3.72,1.11.47,1.51,1.34,1.74,2.5.35,1.71-.27,3.36-.07,5.03.2,1.72-.12,3.38-.5,5.01-.94,4-2.75,7.81-2.66,12.05,0,.22-.11.44-.18.66-.31.94-.81,1.09-1.38.26-.59-.86-1.42-1.42-2.19-2.01-1.64-1.25-3.25-2.83-5.26-3.21-3-.58-5.28-2.39-7.75-3.83-2.1-1.22-4.12-2.3-6.59-2.48-1.31-.1-2.46-.07-3.75.5-2.03.9-3.85,2.31-6.06,2.77-2.53.53-4.79,1.68-6.99,2.94-1.5.86-3.14,1.73-3.06,3.91,0,.24-.34.48-.49.75-2.42,4.23-3.87,8.64-2.59,13.59.19.73.08,1.54.22,2.29.47,2.71.25,5.52,1.09,8.17.37,1.18.53,2.41.88,3.57.78,2.58.84,5.28,1.75,7.85,1.47,4.15,3.37,8.09,5.49,11.91,1.49,2.69,2.28,5.69,4.08,8.23,1.24,1.75,1.06,1.92-.89,3.17-3.49,2.24-7.16,4.21-9.92,7.44-1.27,1.48-1.74,1.34-2.54-.47-1.4-3.16-2.88-6.29-4.35-9.4-1.74-3.68-3.67-7.22-4.68-11.21-.43-1.7-1.09-3.37-2.11-4.84-.59-.86-.84-1.83-1.03-2.79-.57-2.78-1.42-5.5-1.32-8.4.03-.97-.19-2.05-.63-2.9-1.28-2.51-1.43-5.31-2.26-7.93-.51-1.6-.74-3.3-1-4.97-.63-4.05-1.75-7.94-3.65-11.59-.76-1.46-1.34-3-1.18-4.63.15-1.62-.04-3.23.09-4.83.26-3.17.09-6.31,1.22-9.5,1.37-3.86,2.63-7.63,5.2-10.9,3.49-4.43,7.18-8.46,12.61-10.67,3.65-1.49,7.46-1.95,11.24-2.26,2.52-.21,5.13.76,7.71,1.2.48.08.99.26.94.81-.05.56-.61.64-1.07.64-1.84.02-3.68.04-5.48.57-.59.17-1.22-.05-1.81-.25-.43-.15-.87-.32-1.31-.42-.3-.07-.63,0-.77.33-.14.35.09.6.36.74,1.34.7,2.83.96,4.26.64,1.37-.31,2.75-.28,4.12-.43,5.15-.54,9.61,1.26,13.82,3.96-.09.2-.1.28-.15.33-.11.11-.23.19-.35.29-1.16.97-1.17,1.43.05,2.19.78.49,1.6,1.19,2.44,1.25,2.55.19,4.9,1.1,7.42,1.86Zm196.67,6.25c1.51-1.14,3.49-1.73,5.51-1.98,3.65-.46,7.32-.84,10.92-1.73,3.8-.94,7.58-1.98,11.47-2.55,4.64-.68,9.18-1.88,13.8-2.68,4.14-.72,8.04-2.59,12.25-3.21.23-.03.46-.1.66-.19,2.25-1.03,4.6-1.65,7.08-1.76.46-.02.92-.06,1.37-.16.18-.04.43-.28.44-.45.03-.34-.24-.57-.58-.56-1.61.04-3.23-.06-4.8.48-2.98,1.02-6,1.93-9.15,2.27-1.71.18-3.3.7-4.79,1.57-1,.59-2.08,1.22-3.22,1.18-2.13-.07-4.08.68-6.12.95-3.5.45-6.9,1.44-10.36,2.09-3.74.71-7.47,1.74-11.21,2.58-2.32.52-4.65,1.15-7,1.26-2.29.11-4.37.71-6.48,1.45-2.38.84-4.74,1.84-7.19,2.34-4.21.86-8.42,1.75-12.64,2.57-5.22,1.01-10.29,2.44-15.32,4.1-1.68.55-3.33,1.18-5.08,1.48-3.26.55-6.55.9-9.76,1.71-2.33.59-4.65.69-7.07.42-1.62-.18-3.39.26-4.88,1.1-2.93,1.66-6.17,2.31-9.4,2.94-2.92.57-4.96-1.06-5.28-4.01-.11-1.07-.1-2.15-.16-3.22-.12-2.54-.1-2.49,2.36-3.42,3.25-1.22,6.61-1.99,9.97-2.83,2.98-.74,6.05-1.04,8.97-2.05,2.53-.87,5.12-1.57,7.7-2.27,2.59-.71,5.27-1.06,7.81-1.98,1.44-.52,2.84-1.25,4.33-1.57,3.82-.82,7.45-2.28,11.38-2.77,4.78-.59,9.38-2.23,14.22-2.78,1.65-.19,3.38-.09,4.98-.58,4.21-1.31,8.6-1.52,12.92-2.1,3.26-.44,6.6-.26,9.8-1.24.64-.2,1.39-.23,2.06-.14,1.34.18,2.54.04,3.79-.55,1.1-.52,2.33-.76,3.56-.91,1.6-.19,3.19-.51,4.79-.73,4.12-.56,8.22-1.28,12.36-1.6,7.35-.57,14.74-.63,21.96-2.42,3.65-.9,7.47-.95,11.1-1.99,1.55-.45,3.11-.85,4.76-.78,4.2.19,8.29-.29,12.12-2.2.65-.32,1.35-.73,2.31-.1-1.81,1.58-2.88,3.7-4.89,4.9-3.7,2.21-7.8,3.27-12.03,3.63-3.44.29-6.89.41-10.26,1.27-1.46.37-2.92.72-4.22,1.69.3.23.44.41.51.39,2.27-.76,4.72-.69,6.97-1.43,1.57-.52,3.15-.76,4.76-.71,3.51.11,6.9-.61,10.21-1.59,3.28-.97,6.25-2.52,8.32-5.45,1.23-1.74,3.09-2.78,5.03-3.51,2.96-1.12,6.09-1.56,9.23-1.83,1.25-.11,2.37-.28,3.47-.99,1.45-.93,2.55-.6,3.5.89.58.91,1.02,1.9,1.3,2.95.57,2.11.33,2.57-1.85,2.98-3.26.61-6.41,1.51-9.57,2.54-3.03.99-6.19,1.86-9.5,1.5-1.31-.14-2.59.31-3.86.63-.37.09-.87.2-.73.68.38,1.34-.59,1.39-1.41,1.5-2.29.33-4.5.98-6.72,1.62-2.65.77-5.28,1.62-8.07,1.87-2.06.18-4.09.66-6.05,1.41-3.01,1.15-6,2.39-9.29,2.58-.46.03-.91.16-1.35.27-5.96,1.46-11.85,3.35-18.12,3.05-.61-.03-1.23.08-1.83.2-5.64,1.13-11.31,2.17-16.92,3.43-7.22,1.62-14.55,2.39-21.9,2.99-.37.03-.78,0-1-.41Zm-219.16,77.6c1.7-2.33-.06-3.49-1.19-4.98-2.46-3.27-4.4-6.85-5.27-10.89-.87-4.05-.99-8.21-1.37-12.33-.54-5.8-.93-11.62-1.51-17.42-.26-2.53-.25-5.06-.42-7.58-.31-4.6,4.99-8.93,9.61-8.23,3.26.49,6.54.74,9.73,1.65,3.91,1.12,7.89,2,11.43,4.15,2.41,1.46,4.7,3.15,7.38,4.16,2.17.82,2.73,2.54,2.54,4.63-.27,2.9-.73,5.81-.32,8.72.46,3.2.49,6.42.78,9.63.21,2.37.37,4.74.75,7.09.15.95.47,2.11-.45,2.82-1.74,1.34-3.29,2.98-5.49,3.69-1.08.35-2.06,1.03-3.1,1.51-2.76,1.29-5.06,3.52-8.19,4.08-.36.06-.79.25-1.01.53-2.08,2.52-5.47,3.02-7.87,5.1-1.07.93-2.46,1.52-3.54,2.52-.58.54-1.22,1.14-2.47,1.16Zm98.47,13.74c.08-.17.16-.35.24-.52,3.08.61,6.12-.11,9.18-.06.46,0,.93.03,1.37.16,2.21.63,4.4,1.31,6.61,1.96,5,1.47,9.95,3.05,15.3,2.93,2.09-.05,4.32-.12,6.36.43,3.48.93,7.01,1.49,10.57,1.93.68.08,1.33.32,2.05.28,4.21-.21,8.35-1.17,12.57-1.24.3,0,.65,0,.9-.15,2.07-1.18,4.33-.81,6.54-.85,3.96-.07,7.74-1.01,11.29-2.68,2.73-1.28,5.81-1.19,8.53-2.4.07-.03.15-.02.23-.02.37-.02.82-.14,1.01.3.24.57-.25.81-.62,1.07-2.41,1.64-5.11,2.44-7.96,2.86-1.06.16-2.56-.18-2.55,1.7,0,.2-.44.4-.67.59-1.8,1.54-3.72,2.97-5.24,4.78-2.95,3.5-7.12,5.59-10.19,8.95-.34.37-.92.54-1.42.75-3.09,1.28-5.49,3.31-7.1,6.27-.49.9-1.05,1.8-2.29,2.22.06-1.2.15-2.19.15-3.17,0-.55-.16-1.14-.86-1.15-.81-.01-.69.63-.71,1.17-.1,2.63-.3,5.23-2.21,7.31-.15.16-.23.4-.32.61-1.27,2.91-3.2,5.39-5.16,7.85-2.19,2.74-3.9,5.71-4.36,9.24-.26,1.94-1.4,3.43-2.23,5.47-.43-1.15-.02-2.09-.72-2.77-2.53-2.45-4.02-5.62-5.69-8.61-1.61-2.89-3.61-5.53-5.06-8.5-2.16-4.44-4.89-8.52-8.02-12.32-3.22-3.91-6.55-7.73-9.61-11.78-2.17-2.87-4.11-5.93-6.69-8.5-1.22-1.21-2.14-2.73-3.2-4.11Zm255.95-24.19c0,2.84.09,5.69-.03,8.53-.11,2.68-.39,5.36-.68,8.03-.16,1.49-.52,1.66-2.12,1.58-2.07-.11-4.17-.27-6.21.14-1.25.26-1.67-.26-1.91-1.31-.56-2.47-1.13-4.93-1.74-7.39-.95-3.77-1.16-7.58-.81-11.44.2-2.22.33-4.54-.22-6.66-.82-3.13-.6-6.25-.71-9.39-.25-7.54.26-15.07.29-22.6.01-5.22.23-10.44,1.5-15.57.7-2.82,1.2-5.69,1.84-8.54.83-3.72.44-7.53-.25-11.23-.82-4.34-.61-8.73-1.02-13.08-.14-1.45.28-2.57,1.69-3.19.51-.22,1.06-.49.86-1.16-.19-.66-.8-.66-1.34-.52-1.21.32-1.56-.18-1.78-1.36-.36-1.91-1.35-3.61-2.83-4.88-1.15-.99-1.87-2.23-2.59-3.49-.62-1.1-.4-1.79.8-2.12,3.54-.97,7.27-.96,10.34.86,4.08,2.42,7.18,5.92,8.03,10.97.45,2.66.97,5.28,1.02,7.99.03,2,.03,4.01.31,5.99,1.1,7.88.75,15.79.63,23.7-.05,3.14-.53,6.27-.37,9.42.04.83-.17,1.67-.25,2.51-.33,3.29-.95,6.58-.91,9.86.05,4.52-.25,9.02-.2,13.53.02,2.31-.21,4.63-.86,6.84-.47,1.58-.71,3.14-.68,4.76.05,3.07.27,6.14.24,9.22Zm-137.85-119.96,61.72,4.05c1.08,0,2.16.03,3.16-.49,1.52-.8,3.15-.83,4.72-.33,2.98.95,6.03,1.01,9.11,1.11,2.7.09,5.38-.23,8.07-.13,4.7.17,9.38.44,13.47,3.24,1.03.7,1.92,1.53,2.85,2.33.22.19.5.31.75.46.61-1.68,1.78-.48,2.33-.21,2.79,1.36,5.82,1.97,8.72,2.97.6.21,1.34.23,1.68.86-.34.54-.73.51-1.1.46-3.3-.48-6.59-.52-9.89,0-1.39.21-2.78.04-4.11-.39-1.34-.43-2.62-1.71-4.03-.1-.14.16-.59.08-.9.06-4.84-.27-9.67.61-14.51.13-.68-.07-1.37.11-2.06.15-.84.05-1.71.2-2.53.07-3.51-.54-7.06-.41-10.58-.79-4.2-.46-8.46-.46-12.4-2.34-.54-.26-1.2-.41-1.79-.38-3.88.22-7.66-.37-11.43-1.22-.67-.15-1.38-.07-2.07-.16-2.06-.24-4.14-.37-6.16-.81-5.54-1.19-11.03-2.68-16.6-3.71-4.45-.83-8.98-1.35-13.53-.95-4.49.39-9,.81-13.46,1.39-4.84.63-9.66.41-14.48.63-1.54.07-3.05-.42-4.47-1.01-1.58-.66-3.23-1-4.91-1.23-2.05-.27-4.13-.35-5.98-1.45-.44-.26-1.05-.42-1.55-.36-2.49.29-4.89-.57-7.34-.53-2.11.03-4.07-.8-6.15-.89-.85-.04-1.23-.59-.9-1.45.51-1.33.62-2.7.42-4.09-.15-1.04.29-1.45,1.24-1.44,3.37.02,6.76-.26,10.11.28,1.68.27,3.35.39,5.05.39,1.61,0,3.23.16,4.84.19,2.54.04,5.03.75,7.58.6.72-.04,1.33.31,1.98.56,1.71.68,3.49,1.11,5.45,1.24-1.06-1.23-2.79-.77-3.99-1.86,2.1-1.02,4.13-.71,6.07-.59,3.76.24,7.45.98,11.06,2.06,2.14.64,4.35,1.16,6.53,1.25,4.94.2,9.78,1.11,14.68,1.57,1.45.14,2.92-.06,4.35.32,2.32.62,4.66.98,7.05.42.56-.13,1.06-.07,1.58.1,2.18.69,4.41.63,6.64.41,1.63-.16,3.27-.13,4.81.3,3.75,1.04,7.57,1.21,11.43,1.28,1.94.03,3.9.13,6.09.73-.87.8-1.66.63-2.36.6m74.06,176.42c.05-.77.13-1.53.16-2.3.02-.57-.16-1.17-.77-1.26-.8-.12-.97.58-1.11,1.19-.05.22-.05.46-.06.69-.24,2.98-.95,5.91-.99,8.92-.02,1.37-.24,2.75-.45,4.12-.2,1.25-.95,1.8-1.87,1.21-1.88-1.2-3.99-1.02-6.02-1.3-.68-.09-1.39-.05-2.03-.37-.64-.32-.97-.74-.53-1.46.76-1.25,1.43-2.56,2.27-3.74,2.02-2.82,3.58-5.89,5.21-8.94.34-.64.39-1.2-.23-1.61-.75-.49-1.09.08-1.41.65-1.12,2.01-2.2,4.05-3.42,6.01-1.18,1.9-2.68,3.58-3.71,5.54-.81,1.54-1.84,2.11-3.45,2.11-.76,0-1.52.22-2.28.32-.44.06-.97.21-1.18-.37-.14-.4.14-.73.4-1.01.43-.44.87-.87,1.33-1.28.66-.59,1.28-1.29.97-2.18-.45-1.27.32-2.33.95-2.88,1.37-1.2,2.1-2.84,3.35-4.08,1.2-1.19,1.81-2.63,2.22-4.23.5-1.93,1.07-3.85,1.6-5.78.21-.76.55-1.3,1.28-1.77,2.12-1.38,3.58-3.3,4.22-5.82.28-1.11.7-2.21,1.22-3.22.6-1.16,1.49-1.8,3.01-1.53,2.04.36,4.13.48,6.14,1,1.66.44,3.27.67,4.98.14,1.61-.5,3.03-.07,3.97,1.48.36.59.82,1.11,1.17,1.71,1.75,2.98,3.21,6.11,4.65,9.26.35.77.76,1.56.85,2.38.46,4.01,1.69,7.79,3.1,11.53.28.74.34,1.51.22,2.27-.4,2.43-1.85,4.34-3.23,6.28-.39.55-1.07.84-1.56.2-.94-1.24-2.26-2.06-3.26-3.24-2.43-2.87-3.64-6.18-4.12-9.83-.08-.6-.21-1.22-.45-1.77-.21-.48-.56-.97-1.22-.82-.55.12-.62.63-.71,1.08-.19,1.02.1,1.98.39,2.94.9,2.99,1.37,6.12,3.1,8.83.19.3.22.73.25,1.11.03.39-.05.93-.43.97-1.24.13-1.85.93-2.39,1.9-.24.44-.73.5-1.22.51-2.76.06-5.52-.25-8.27.25-.93.17-1.73-.26-1.59-1.41.26-2.14-.17-4.32.29-6.44.42-1.96.62-3.94.65-5.95Zm-212.66,17.48c.44.79.36,1.53.08,2.34-.79,2.25-.73,2.46,1.34,3.62.8.45,1.32.9,1.35,1.92.09,3.38,1.27,6.6,1.4,9.99.06,1.49.09,2.89-.47,4.29-.25.63-.79,1.3-.5,1.96.85,1.91-.47,2.92-1.42,4.24-.67.94-2.39.73-2.34,2.24.04,1.15.25,2.29.38,3.43.05.46.08.92.11,1.38.07,1.19.57,2.21,1.17,3.21,1.78,2.99,4.3,5.21,7.32,6.82,1.7.9,2.97,2.14,4.06,3.65,1.5,2.07,2.68,4.31,3.45,6.75.28.88.51,1.79,1.2,2.46.85.83,1.3,1.89,1.75,2.96.22.54.88,1.15.35,1.66-.61.6-1.27-.11-1.86-.38-.56-.25-1.06-.62-1.58-.95-.66-.42-1.36-.8-2.14-.76-3.59.15-6.94-1.29-10.47-1.52-.82-.05-1.65-.4-2.4-.77-3.33-1.65-6.83-2.18-10.52-1.89-1.53.12-2.85.51-3.91,1.66-.73.8-1.63,1.41-2.63,1.83-.69.29-1.54.87-2.09.14-.5-.66.41-1.21.76-1.75,1.69-2.6,3.18-5.22,2.78-8.54-.34-2.84.47-5.48,1.96-7.9.45-.74.68-1.52.93-2.33.87-2.87.74-5.77.35-8.68-.18-1.35.07-2.52.6-3.78,1.25-2.95,2.67-5.9,2.33-9.26-.06-.64.18-1.2.51-1.74,1.3-2.08,2.51-4.22,3.93-6.22,1.9-2.67,3.39-5.46,3.75-8.77.05-.42-.16-.93.49-1.31Zm157.66-51.82c-.38-.8-.35-1.5-.21-2.17.55-2.71.7-5.5,1.26-8.19.83-3.97,1.77-7.92,4.31-11.31,1.22-1.63,2.49-3.34,2.92-5.45.36-1.8.83-3.57,1.28-5.35.69-2.76,1.01-5.57.55-8.45-.39-2.42-.55-4.86-.4-7.34.22-3.76.24-7.52.52-11.28.15-2,0-4-.56-5.94-.27-.91-.22-1.82-.21-2.74.06-5.76.1-11.52-.49-17.26-.06-.56-.57-1.32.19-1.65.67-.3,1.05.48,1.49.85.28.24.48.6.64.94,1.36,2.83,2.82,5.61,3.77,8.63,1.2,3.82,1.02,7.74,1.02,11.63,0,2.39-.13,4.76.49,7.1.22.82.47,1.68.23,2.5-.57,2-.48,4.07-.74,6.08-.35,2.72-.46,5.46-.83,8.18-.57,4.26-2.29,8.07-3.54,12.07-.59,1.91-1.72,3.63-2.12,5.55-.46,2.2-1.22,4.27-1.96,6.36-.77,2.16-1.87,4.26-2.28,6.49-.58,3.24-2.18,6.02-3.34,9-.29.76-.91,1.41-1.99,1.75Zm-260.4-109.03c2.2.02,3.8.58,5.44.91,1.96.39,3.78,1.51,5.7,1.74,3.85.45,7.51,1.5,11.22,2.45,2.97.77,5.89,1.66,8.81,2.56,2.34.72,4.73,1.42,7.2,1.52,4.92.18,9.47,1.91,14.02,3.48,1.94.67,3.81,1.64,5.76,2.33,1.6.57,3.07,1.34,4.52,2.22,2.62,1.58,4.96,3.57,7.67,5.03,1.97,1.06,3.61,2.68,5.62,3.67-.25.54-.57.5-.86.46-3.97-.56-7.85-1.31-11.52-3.09-3.17-1.54-6.43-2.92-10.01-3.35-1.68-.2-3.33-.66-4.87-1.34-4.39-1.94-8.94-3.27-13.74-3.63-.64-.05-1.16-.37-1.73-.58-3.15-1.2-6.23-2.55-9.53-3.37-3.27-.8-6.49-1.88-9.5-3.48-3.66-1.95-7.31-3.91-11.17-5.46-.96-.38-1.95-.84-3.02-2.07Zm109.08,237.92c-1.08-.05-2.11-.26-3.16-.55-2.23-.63-4.21-1.9-6.47-2.41-3.41-.77-5.51-3.07-7.29-5.87-1.14-1.79-1.1-4-2.27-5.76-.38-.57-.03-1,.34-1.42,1.57-1.78,3.58-1.91,5.72-1.52,3.02.55,5.92,1.62,8.93,2.26,2.76.59,5.65.8,8.25,2.06,1.67.81,3.38,1.48,5.21,1.82.87.16,1.57.57,2.18,1.19,1.11,1.12,1.13,1.51.21,2.73-1.83,2.42-4.45,3.95-6.72,5.86-.22.18-.61.38-.83.3-1.08-.36-1.74.13-2.37.92-.44.55-1.12.4-1.73.38Zm13.86-279.17c-.32,1.06-1.01,2.28-2.32,3.08-1.24.75-2.5,1.48-3.74,2.24-1.86,1.13-3.75,2.07-6.04,1.56-.36-.08-.82-.09-1.12.07-1.19.65-2.09.1-2.91-.65-1.24-1.11-2.23-2.58-4.12-2.67-.07,0-.13-.07-.19-.12-2.67-2.29-5.49-4.42-7.14-7.69-1.05-2.09-.91-3,1.27-3.98,2.95-1.32,6.16-1.48,9.25-1.15,3.18.34,6.34,1.16,9.36,2.3,2.61.98,4.93,2.45,6.82,4.54.53.59.86,1.26.88,2.48Zm-185.23,14.01c-1.75-.23-3.03-.73-4.27-1.32-1.68-.79-3.43-1.37-5.22-1.81-2.7-.66-5.34-1.42-7.76-2.86-.85-.51-1.84-.73-2.84-.9-3.64-.64-7.29-1.31-10.58-3.1-4.42-2.41-9.2-3.9-13.95-5.39-3.57-1.12-6.86-2.63-9.8-4.92-.6-.47-1.08-.91-.61-1.71.47-.81,1.12-.96,1.95-.52,1.17.62,2.16,1.46,3.11,2.37.67.64,1.33,1.28,2.25,1.56,6.54,1.95,13.13,3.77,19.79,5.27,4.59,1.03,9,2.59,13.49,3.88,5.28,1.52,8.98,5.23,13.33,8.04.36.23.57.71,1.1,1.42Zm308.48-18.26c-1.56.15-2.58-.45-3.57-.91-4.53-2.1-8.96-4.47-14.04-5.04-.22-.02-.42-.19-.64-.26-4.86-1.47-9.26-4.12-14.19-5.41-.43-.11-.79-.46-1.21-.65-3.71-1.68-7.35-3.5-11.21-4.82-4.93-1.68-10.19-2.34-14.83-4.89-2.86-1.57-6.11-1.99-9.13-3.15-3.52-1.35-6.78-3.28-10.31-4.59-.73-.27-1.58-.54-2.13-1.59,2.17-.15,4.15-.12,5.81.79,1.96,1.08,4.11,1.77,5.96,2.98,4.21,2.74,9.16,3.44,13.76,5.11,3.16,1.15,6.49,1.78,9.49,3.46,3.36,1.87,7.04,3.11,10.66,4.26,5,1.59,9.73,3.78,14.58,5.69,5.7,2.25,11.33,4.69,17.19,6.53,1.4.44,2.61,1.1,3.8,2.49Zm-211.16,41.49c-4.83-.03-8.94-2.52-13.38-3.87-1.54-.47-3.05-.99-4.65-1.15-1-.1-1.98-.24-2.91-.65-4.37-1.9-8.73-3.78-13.1-5.68-1.9-.83-3.7-1.9-5.77-2.32-5.57-1.12-10.68-3.34-15.53-6.26-1.71-1.03-3.48-2.17-5.43-2.48-2.52-.4-4.9-1.17-7.34-1.75-3.96-.94-7.56-3.12-11.72-3.32-.21-.01-.44-.15-.48-.54.91,0,1.83-.09,2.72.02,4.42.54,8.79,1.09,13,2.83,4.69,1.93,9.48,3.59,13.92,6.09,1.39.78,2.89,1.42,4.41,1.93,5.75,1.92,11.33,4.32,17.02,6.4,2.81,1.03,5.59,2.07,8.5,2.76,5.11,1.2,9.91,3.21,14.64,5.4,2,.93,4.19,1.42,6.09,2.63Zm207.22,50.7c.39.03.67-.03.82.09,2.02,1.5,3.64,3.31,4.26,5.83.99,4.04,1.48,8.15,1.99,12.27.25,2.07.12,4.15.35,6.21.39,3.47-.05,6.9-.27,10.34-.04.6-.11,1.27-.4,1.78-.72,1.26-.83,2.62-.97,4-.17,1.56-.62,3.04-1.27,4.78-.27-1.46-.16-8.54.08-9.4.06-.22.14-.45.25-.64.88-1.52.68-3.17.38-4.73-.77-4.01-1.04-8.04-1.22-12.11-.14-3.06.04-6.18-.85-9.16-.87-2.92-1.22-6.04-3.12-8.59-.07-.1,0-.3,0-.66Zm-128.19-28c.16-1.42.83-2.14,2.04-2.33.61-.1,1.22-.21,1.83-.21,2.57.03,4.78-.8,6.82-2.36,2.42-1.85,5.12-3.09,8.28-3.07,1.24,0,2.42-.34,3.58-.81,1.77-.73,3.68-.94,5.55-1.15,2.13-.24,4.28-.24,6.41-.61,2.09-.37,4.2-.62,6.37-.27-12.5,4.36-25.39,7.24-38.18,10.46-.81.2-1.61.46-2.71.36Zm31.77,214.57c9.46-4.64,18.79-4.83,28.49-1.95-.78,1.16-1.79.98-2.65.97-2.57-.05-5.02.54-7.45,1.28-1.11.34-2.25.45-3.38.65-3.84.68-7.65-.13-11.47-.15-1.07,0-2.15-.04-3.54-.8Zm-166.25-240.21c-.04.17-.09.34-.13.51-2.39-.76-4.88-.63-7.32-1.21-2.51-.6-4.71-1.85-7.02-2.86-4.87-2.12-9.32-5.05-13.99-7.55-.8-.43-1.46-1.11-2.15-1.72-.31-.28-.74-.61-.38-1.12.31-.22.62-.18.91-.08,4.53,1.48,9.01,3.13,13.19,5.41,3.56,1.94,7.11,3.89,10.82,5.55,2.07.93,4.05,2.05,6.07,3.08Zm60.37,5.53c1.39-.07,2.15.31,2.94.58,4.2,1.47,8.44,2.83,12.71,4.04,3.47.98,6.87,2.05,10.24,3.32,2.86,1.07,5.77,2,8.88,2.17.89.05,1.77.47,2.63.79.38.14.65.51.49.92-.18.46-.64.34-.99.24-2.22-.63-4.55-.71-6.75-1.48-1.24-.43-2.55-.62-3.86-.54-2.83.18-5.57-.56-8.11-1.44-5.22-1.81-10.3-4.02-15.21-6.58-.94-.49-1.83-1.05-2.97-2.01Zm-3.03,149.62c4.06-.42,9.81.94,12.94,3.15,1.21.85,2.48,1.52,3.77,2.16,3.5,1.73,6.95,3.56,10.3,5.57.4.24.98.39.98,1.27-10.14-2.41-19.11-7.13-27.99-12.15Zm251.56,74.04c-3.61-1.92-6.51-4-8.99-6.57-1.77-1.83-3.52-3.63-5.51-5.22-1.26-1.01-2.55-2.04-3.36-3.45-1.4-2.44-3.34-4.41-5.4-6.23-1.95-1.73-2.28-4.1-2.97-6.35-.09-.31-.04-.61.31-.77.32-.14.62-.05.85.16.4.36.79.73,1.12,1.15,1.43,1.8,2.96,3.53,4.22,5.45,2.87,4.36,6,8.49,9.56,12.32,2,2.15,4.04,4.17,6.47,5.83,1.27.87,2.77,1.6,3.69,3.68Zm-327.34-150.5c-.67-1.23-1.14-2.02-1.3-2.93-.78-4.59-2.53-8.94-2.94-13.66-.24-2.7-.9-5.17.7-7.63.53-.82.53-1.94,1.24-2.94.58,2.12,2.66,25.54,2.3,27.17Zm-46.57-118.4c-.09.22-.18.44-.27.66-7.58-1.94-15.06-4.15-21.64-8.76,1.97-.63,3.92-.93,5.83-.17,4.42,1.75,8.56,4.11,12.83,6.18,1.15.56,2.17,1.38,3.25,2.09Zm217.99,177.52c.46.52.43.89.26,1.26-.91,2.03-1.81,4.06-2.77,6.07-.57,1.19-1.44,2.14-2.41,3.05-1.9,1.79-3.67,3.71-5.5,5.57-.52.53-.88,1.27-1.73,1.43-.22-2.11,1.03-5.47,2.55-7.08,2-2.11,4.18-4.04,5.69-6.61.88-1.5,2.31-2.62,3.9-3.68Zm-.09-22.17c2.34.15,4.34,1.51,6.77,1.34,2.26-.16,4.53-.92,6.87-.31-1.26.28-2.44.76-3.66,1.11-1.29.37-2.59-.12-3.89-.21-.68-.05-1.41-.04-2.06.15-2.37.68-4.79.89-7.21,1.23-4.29.6-8.52,1.11-12.81.18-.48-.1-1.11.14-1.4-.57,1-1.04,2.3-1.06,3.61-1.11,3.06-.11,6.14.46,9.17-.4.57-.16,1.25-.12,1.83.03,1.27.31,2.52-.1,3.73.2.22-.97-.89-.85-.95-1.63Zm-152.69,139.42c4-3.46,18.11-9.07,20.99-8.47-6.2,4.54-12.82,7.81-20.99,8.47Zm139-214.14c.76-.82,1.68-1.01,2.67-1.01,1,0,1.98-.11,2.97-.31,6.58-1.36,13.18-2.67,19.77-3.99.48-.1,1.16-.52,1.37.23.19.64-.54.82-.99,1.07-.2.11-.43.16-.66.2-5.46,1.16-10.84,2.69-16.45,3.03-1.31.08-2.58.31-3.83.73-1.61.54-3.23.35-4.86.06Zm-27.61-19.2c6.15-.07,11.13,2.83,16.6,3.58.72.1,1.05,1.13.93,1.9-.1.62-.83.57-1.35.66-.63.11-1.21-.13-1.81-.24-3.52-.65-6.65-2.33-9.86-3.76-1.37-.61-2.92-.88-4.51-2.13Zm69.39,312.97c-.14-.6.03-.78.22-.89,2.51-1.54,5.19-2.64,8.12-3.06.85-.12,1.72-.27,2.36-.85,1.88-1.74,4.49-1.43,6.64-2.41.56-.26,1.28-.01,1.59.61.37.78-.27,1.1-.83,1.37-2.44,1.14-4.9,2.26-7.62,2.51-1.94.18-3.8.61-5.58,1.35-1.57.65-3.24.79-4.89,1.37Zm-120.53-230.44c.23-.08.3-.13.37-.12,5.27.41,10.41,1.75,15.66,2.26.78.08,1.47.5,1.94,1.13.56.76,1.88,1.5,1.23,2.46-.61.9-1.8.13-2.69-.24-3.39-1.44-6.87-2.55-10.46-3.39-2.04-.48-4.16-.81-6.05-2.08Zm107.98,10.1c.77-.66,1.65-1.09,2.75-1.25,4.16-.6,8.31-1.24,12.36-2.43,2.47-.72,4.91-.65,7.19.82-1.89.22-3.53,1.41-5.46,1.27-4.95-.38-9.56,1.89-14.46,1.79-.52-.01-1.04.24-1.57.32-.29.05-.61.01-.81-.52Zm-225,95.33c1.36-1.06,2.17-2.69,3.62-3.54,2.47-1.46,4.6-3.32,6.76-5.17,1.52-1.3,2.96-2.68,4.41-4.05,1.83-1.74,2.43-2.04,4.35-2.33-7.69,7.76-15.82,14.29-19.14,15.09Zm292.79,102.13c-.04.15-.04.36-.13.42-3.42,2.22-7.03,4.1-10.63,5.98-1.38.72-2.92.95-4.46,1.08-.31.03-.63,0-.74-.37-.09-.34.09-.62.35-.78.39-.23.81-.45,1.24-.57,1.58-.43,2.95-1.26,4.39-1.99,1.44-.73,2.42-2.14,4.1-2.51,1.57-.35,3.1-.91,4.65-1.35.41-.12.86-.41,1.23.09Zm81.86-66.29c.27.93.87,1.86.64,2.49-.67,1.84-1.23,3.75-2.31,5.42-.42.65-1.18.53-1.34-.24-.21-1.04-.21-2.12-.35-3.17-.15-1.16.19-2.1,1.09-2.85.64-.53,1.11-1.27,2.27-1.65Zm-3.86-92.39c.03-1.06.22-2.03.67-2.94.93-1.86,1.99-3.64,3.64-4.97.58-.46,1.05-1.76,1.93-.99.74.65-.16,1.52-.59,2.22-1.42,2.35-3.35,4.39-4.39,6.98-.15.37-.42.69-.86.6-.52-.11-.37-.58-.39-.9Zm-289.16,169.41c2.68.19,12.86,4.44,14.61,5.98-2.92.01-12.2-3.71-14.61-5.98Zm110.28-347.43c1.59-.35,2.25-1.85,3.62-1.78,1.49.07,2.85-.29,4.24-.67.57-.15,1.21-.09,1.82-.09.3,0,.62.08.75.41.18.47-.16.71-.48.89-2.03,1.15-4.25,1.66-6.54,1.72-1,.03-2.09.32-3.41-.48Zm6.81,263.93c.37,2.05.06,3.55-1.54,4.61-.96.63-1.9,1.28-2.87,1.88-.38.24-.83.39-1.26.52-.29.09-.61.03-.83-.24-.29-.37-.18-.73.1-1.02,1.96-1.98,4.04-3.83,6.4-5.75Zm-9.86-72.28c.62-3.28,1.96-6.15,3.79-8.78.48-.7.62-2.44,1.78-1.79.86.48-.21,1.76-.54,2.66-.11.28-.29.54-.46.79-1.24,1.84-2.43,3.71-3.27,5.77-.21.51-.35,1.19-1.3,1.35Zm10.34,180.33c3.05-.11,5.9-1.06,8.79-1.8.88-.23,1.82-.27,2.74-.35.42-.03.96-.15,1.08.52-1.79,1.32-10.04,2.55-12.61,1.63Zm-117.95-279.07c.2.25.34.35.37.48.73,3.31.69,6.71,1.27,10.04.01.07,0,.15,0,.23-.02.49-.18,1.01-.67,1.08-.63.09-.61-.55-.7-.97-.62-2.79-.54-5.65-.7-8.48-.04-.73-.24-1.53.43-2.39Zm138.33,106.83c-1.03,2.08-4.37,4.45-7.23,5.3-.65.19-1.33.21-1.93-.68,2.92-1.67,5.63-3.48,9.16-4.62Zm118.61-150.45c.48-.09.75-.24.9-.16,1.58.77,3.2,1.47,4.69,2.4,1.56.98,1.67,1.81.79,4.24-1.91-2.41-4.22-4.23-6.38-6.47Zm30.13,227.99c.47,2.31.23,4.26-.53,6.16-.13.33-.46.6-.73.86-.21.21-.48.38-.81.24-.33-.14-.42-.45-.39-.75.11-1.28.12-2.6.43-3.84.24-.98.87-1.86,2.03-2.68Zm-255-146.17c5.07,1.4,10.3,2.17,15.25,3.96-5.27-.61-10.47-1.49-15.25-3.96Zm257.58,56.92c.04-.14.06-.38.17-.57.53-.93,3.26-1.56,4.22-.99.42.25.49.65.22.96-.71.8-1.46,1.6-2.45,2.04-1.03.45-2.11-.29-2.15-1.43Zm-32.23-27.43c-5-3.41-8.33-6.96-8.31-9.47,2.07,3.81,5.82,6.08,8.31,9.47Zm-177.67,2.2c.46-.22.65.05.88.23,2.34,1.83,3.4,4.65,5.25,6.86.3.36.61.93-.21,1.44-2.04-2.81-4.4-5.36-5.92-8.53Zm104.35,186.66l.18.56c-2.05,1.57-4.45,2.34-7.02,2.69-.28.04-.6-.17-.65-.54-.07-.54.21-.97.66-1.08,2.27-.58,4.55-1.09,6.83-1.63Zm80.94-181.37c-3.17-.92-4.32-3.92-6.26-6.11,2.7,1.41,4.77,3.45,6.26,6.11Zm-159.24,29.17c.04,2.16-.76,5.76-1.64,7.77-.6-2.79-.98-5.33,1.64-7.77Zm190.61-192.12c-3.08.17-5.44-.69-8-2.68,3.09.4,5.71.48,8,2.68Zm-26.88,288.62c.82-.94,1.45-1.68,2.09-2.41.3-.34.6-.7.96-.97.36-.27.77-.49,1.2-.64.43-.15.93-.24,1.19.3.21.42-.11.71-.4.96-.64.54-1.27,1.09-1.93,1.61-.82.64-1.62,1.33-3.11,1.15Zm36.62-102.43c-.77.03-1.28-.09-1.76-.37-.99-.57-2-1.11-3-1.67-.26-.15-.67-.29-.55-.63.16-.43.65-.38.98-.23,1.28.58,2.66.64,4,.95.51.12,1.04.3,1.48.57.48.3.49.79-.04,1.07-.39.2-.87.24-1.1.3Zm-194.92-209.93c2.38-1.08,3.74.73,5.37,1.37.74.29,1.86.63,1.82,2.12-1.42-.58-2.63-1.01-3.78-1.57-1.09-.53-2.11-1.19-3.4-1.93Zm109.97,142.77c1.09.19,1.58.78,2.17,1.22,1.29.96,1.64,2.71,3.06,3.56.25.15.22.57-.07.79-.27.2-.64.14-.84-.06-.85-.84-1.75-1.66-2.46-2.62-.6-.82-1.62-1.39-1.86-2.88Zm-101.17-134.98c1.38,1.1,1.1,2.26.68,3.26-.46,1.1-.94,2.33-2.36,2.6-.18.04-.47-.08-.59-.23-.22-.25-.19-.61.06-.82,1.42-1.18,1.99-2.78,2.2-4.82ZM112.87,415.68c.01-.75.05-1.35.36-1.89.29-.5.73-.81,1.3-.71.64.12.72.7.73,1.24.01.93-.28,1.78-.75,2.57-.15.26-.36.49-.71.47-.46-.02-.65-.35-.75-.72-.1-.36-.14-.74-.19-.97Zm340.49-177.05c-2.08.27-3.84-.62-5.67-.95-.39-.07-.89-.51-.63-1.03.24-.48.8-.39,1.22-.2,1.27.57,2.59.92,3.97,1.06.45.05.88.25,1.1,1.11ZM120.06,424.36c.63.06,1.56-.25,1.66.68.08.79-.79,1.01-1.44,1.21-.59.18-1.2.14-1.78-.11-.41-.17-.95-.31-.96-.84-.02-.77.66-.68,1.15-.77.45-.08.9-.11,1.37-.17Zm400.98,9.53c1.32,1.33,1.99,2.58,2.61,3.87.34.71-.01,1.16-.66,1.43-.31.13-.69.02-.72-.31-.13-1.59-1.31-2.9-1.23-4.98Zm-213.11-8.9c-.95-.23-1.07-.97-1.27-1.6-.39-1.2,0-1.85,1.26-2.21.54-.15,1.05.02.89.61-.3,1.06-.23,2.24-.87,3.2Zm42.93-265.67c-.62-.86-1.1-1.72-1.74-2.5-.32-.39-.8-.9-.15-1.38.64-.48,1.16-.06,1.6.4.99,1.04.7,2.23.29,3.47Zm-126.67,79.02c-.82-2.35-.74-5.48.02-6.69.5,1.99.52,3.91-.02,6.69Zm114.19-6.22c-1.26.7-4.88,1.11-5.85.74,1.74-1.56,3.68-1.23,5.85-.74Zm7.97-70.96c.37-.66.79-1.45,1.26-2.21.14-.23.44-.11.6.03.66.58.68,1.31.4,2.07-.26.7-.75,1.14-1.56.99-.38-.07-.72-.25-.7-.89Zm132.1,50.72c2.39-1.07,4.14-.37,5.68,1.27-1.81-.4-3.63-.81-5.68-1.27Zm-47.69,87.78c-1.91,1.19-3.94,1.4-6.14.97.1-.31.12-.44.14-.44,2-.13,4-.22,6-.53Zm-209.84-21.22c.64-1,1.54-1.32,2.26-1.88.42-.33.93-.67,1.38-.03.41.58.15,1.49-.57,1.67-.94.24-1.89.7-3.07.24Zm92.55,28.16c1.98.38,4.13-.31,6.2.98-3.15.42-4.74.19-6.2-.98Zm226.15,50.76c1.32-.46,2.63-.3,3.93.03.27.07.59.22.48.63-.09.36-.4.45-.69.45-1.31-.01-2.44-.74-3.72-1.11Zm-95.18,81.79c-2.48-.89-3.82-2.14-4.51-4.21,1.55,1.49,3.19,2.31,4.51,4.21Zm88.69-128.94c-.6-.1-.89-.49-.86-1.09.04-.64.24-1.23,1.01-1.24.7,0,.83.53.85,1.09.02.66-.19,1.18-1,1.24Zm-44.11-33.13c.6,1.18.17,1.99-.19,2.79-.13.29-.38.46-.72.38-.48-.11-.53-.51-.47-.87.13-.83.6-1.48,1.39-2.3ZM140.33,139.27c1.76.09,3.47-.95,5.75-.2-2.26.29-3.99.77-5.75.2Zm396.83,166.25c.33.07.55.26.56.6.02.73-.77,1.3-1.62,1.17-.3-.05-.6-.16-.62-.54-.03-.56.98-1.29,1.68-1.23Zm14.53,47.6c1.1.67,2.08.62,2.6,1.51-1.82.72-1.83.71-2.6-1.51Zm-236.47-10.39c-.95-.75-1.94-1.47-2-3.07,1.66.59,1.78,1.86,2,3.07Zm207.21,100.34c.04-.93.59-1.36,1.1-1.79.25-.21.59-.16.83.07.27.25.24.57-.02.8-.5.44-.94,1.01-1.91.92Zm-212.76-284.5c1.69.58,1.74,2,2.22,3.13-.74-.95-2.03-1.52-2.22-3.13Zm117.56,139.94c-1.26.31-2.49.43-3.7-.07,1.25.22,2.48-.59,3.7.07Zm111.94,3.5c-1.29,1.27-1.92,1.59-2.4,1.19-.1-.08-.19-.32-.14-.39.59-.82,1.43-1.07,2.4-.95.05,0,.09.1.14.15Zm-360.42-62.18c.1,1.19-.22,2.16-1.62,3.02.3-1.42.82-2.29,1.62-3.02Zm135.34,215.36c-1.29.88-2.11.91-3.17.13,1.04-.63,1.86-.57,3.17-.13Zm-9.82-128.38l-.39.34c-.66-.8-1.52-1.46-1.58-2.71.66.79,1.31,1.58,1.97,2.37Zm29.3-181.32c-1.05.25-1.8.23-2.77-.37,1.11-.49,1.86-.47,2.77.37Zm194.96,177.2q-.37,1.18-1.48,1.56c.22-.81.65-1.34,1.48-1.56Zm-319.94-118.05c1.4.26,2.07,1.04,2.89,1.55-1.03-.13-1.99-.38-2.89-1.55Zm320.65-21.92c.76.28,1.27.72,1.22,1.6,0,.07-.27.21-.37.18-.84-.25-1.3-.73-.86-1.78Zm22.16,130.43c-.37,1.02-.99,1.21-1.79,1.64.32-.98.68-1.48,1.79-1.64Zm-96.12,136.21c.64.38,1.27.77,1.76,1.77-1.03-.5-1.62-.91-1.76-1.77Zm17.99,30.08c.02.35-.19.54-.48.65-.22.08-.5.07-.58-.17-.16-.46.17-.67.55-.76.23-.05.42.04.51.28Zm-149.2-31.69c-.62-.75-.74-1.28-.38-1.97.68.48.71,1.01.38,1.97Zm10.16,10.8c.13-.28.36-.24.56-.14.32.16.74.31.68.77-.03.26-.34.26-.54.16-.34-.16-.64-.37-.69-.79Zm110.71-104.14q.7.27.89,1.07c-.4-.44-.92-.49-.89-1.07Zm-150.87,6.43c-.06-.2.02-.39.16-.34.28.09.53.26.77.43.15.1.16.36.03.36-.39.03-.74-.13-.96-.45Zm108.92-193.15c-.46.01-.81.58-1.47.08.49-.34.95-.39,1.47-.08Zm-25.56-.07c-.79.23-1.25-.26-2.01-.5.88-.19,1.48-.22,2.01.5Zm7.77,138.99c-.29-.05-.47-.22-.38-.47.12-.33.46-.35.77-.35.22,0,.55.06.49.29-.1.43-.52.48-.88.53Zm-25.34,125.12c-.24-.05-.49-.17-.36-.43.07-.15.37-.23.57-.25.24-.02.46.13.36.42-.09.24-.33.27-.57.26Zm-26.24-203.14c.32.07.38.29.37.51-.01.41-.19.78-.64.73-.22-.02-.16-.38-.1-.59.07-.26.01-.62.37-.65Zm-89.91,292.12c.67-.26,1.15-.19,1.58.46-.66.29-1.13.2-1.58-.46Zm57.74-154.43c.53-.17.82.12,1.08.52-.52.15-.84-.09-1.08-.52Zm229.71-179.47c-.28-.09-.57-.22-.48-.6.06-.24.33-.32.53-.21.17.09.37.29.4.46.05.26-.18.36-.45.35Zm-218.32-37.8c.34-.58.74-.8,1.46-.75-.38.67-.72.99-1.46.75Zm88.25,68.67c.11-.27.34-.31.56-.28.14.02.57-.12.32.28-.09.15-.39.2-.6.23-.08.01-.18-.16-.27-.24Zm88.17-29.87c.11.06.21.12.32.18-.1.09-.19.23-.31.27-.22.07-.45.04-.38-.27.02-.08.24-.12.37-.17Zm41.79,89.33c.04.13.15.28.11.38-.06.16-.23.16-.36.03-.04-.05-.07-.14-.06-.2.02-.18.13-.25.31-.21ZM123.41,421.19c-.12.05-.25.1-.37.14,0-.12-.03-.25,0-.37,0-.03.13-.07.19-.07.18.02.24.12.19.29Zm100.92-166.65c.25.1.27.32.25.53-.02.23-.15.43-.38.21-.13-.12-.17-.36-.18-.55,0-.06.21-.13.31-.19Z"/>
    <path class="cls-3" d="m455.47,291.37c1.55-1,1.9-2.77,2.43-4.28,1.07-3.08,2.09-6.17,3.23-9.22.42-1.13.98-2.25.86-3.52,0,0,.05.06.05.06-1.13.49-1.32,1.6-1.65,2.6-1.61,4.82-3.65,9.49-4.87,14.44l-.05-.06Z"/>
    <path class="cls-3" d="m455.52,291.42c-1.3,1.03-.71,2.53-.93,3.82-.05.3.28.54.6.58.45.07.74-.2.77-.62.11-1.31-.3-2.55-.49-3.83,0,0,.05.05.05.05Z"/>
    <path class="cls-3" d="m170.76,301.03c.02.57.01,1.2.76,1.39.32.08.69-.1.59-.44-.18-.59-.06-1.43-.89-1.62-.34-.08-.43.33-.47.67Z"/>
    <path class="cls-3" d="m341.7,106.07c.14.18.33.27.54.18.04-.02.05-.27-.01-.34-.08-.09-.25-.13-.37-.13-.17,0-.22.13-.16.29Z"/>
    <path class="cls-3" d="m344.86,107.93c.25-.01.31-.13.15-.28-.15-.15-.34-.31-.54-.36-.17-.05-.26.14-.12.28.15.15.35.25.51.36Z"/>
    <path class="cls-3" d="m435.56,221.19c.16.2.37.19.58.13.19-.05.25-.19.11-.29-.11-.07-.27-.07-.42-.07-.19-.01-.28.07-.27.23Z"/>
    <path class="cls-3" d="m239.18,131.08c-.8.34-1.6.67-2.72,1.14,1.56.71,2.2-.18,2.97-.69-.08-.15-.16-.3-.24-.45Z"/>
    <path class="cls-3" d="m416.97,169.98c.31-.03.6-.04.49-.34-.05-.14-.37-.22-.58-.26-.21-.04-.51.01-.39.31.06.15.35.22.48.29Z"/>
    <path class="cls-3" d="m322.99,169.33c.17.1.32.25.5.29.15.04.27-.14.17-.27-.11-.15-.3-.25-.46-.37-.06.1-.12.2-.21.34Z"/>
    <path class="cls-3" d="m262.08,397.06c.68-.4,1.32-.31,1.9-.18,5.37,1.18,10.81,1.13,16.26.93.91-.03,1.83-.23,2.72-.46,1.06-.28,1.98-.65,1.98-2.11,0-1.19,1.19-1.62,2.07-2.42-.06,2.78-2.27,5.82-4.66,6.68-3.49,1.26-7.08,1.26-10.69.86-1.12-.12-2.23-.38-3.36-.58-.02.8.58.77.95.83,3.08.53,6.1,1.65,9.28,1.2,3.85-.54,7.25-1.86,9.28-5.57,1.45-2.64,2.62-5.33,3.53-8.21.63-1.98,1.47-3.95,2.53-5.84,1.09-1.94,1.64-4.48.9-6.87-.34-1.12-.43-1.85.84-2.39.91-.39.81-1.22.29-1.94-1.88-2.63-3.67-5.32-7.14-6.19-1.33-.33-2.55-1.05-3.59-2.02-.28-.26-.6-.51-.95-.64-3.32-1.23-6.71-2.2-10.25-2.51-.63-.06-1.2.2-1.74.54-.6.38-1.27.62-1.95.65-2.06.07-3.65,1.09-5.07,2.45-1.52,1.46-3.11,2.52-5.37,2.78-3.18.36-4.53,1.77-4.75,4.96-.27,3.84-2.23,6.99-3.65,10.35-.72,1.7-1.24,3.47-1.99,5.15-.53,1.2,0,2.34.48,3.31,1.06,2.18,1.98,4.54,4.35,5.75.13.07.29.16.36.29,1.24,2.35,3.19,2.51,5.5,1.96,1.1-.26,2.06.4,2.96,1.01.26.18.63.29.83,0,.31-.47-.13-.64-.46-.82-.45-.24-1.1-.15-1.39-.95Zm-9.51-13.83c.44.02.65.22.76.53.58,1.58.64,3.09-.35,4.59-.42.64-.78,1.2-1.59.91-.83-.29-.84-1.05-.64-1.73.37-1.24.81-2.46,1.27-3.68.1-.26.39-.44.54-.62Zm4.79,13.47c-1.18.03-3.1-1.98-2.95-3.1.02-.15.05-.33.15-.42.6-.53,1.31-.87,2.1-.71.75.15,1.23.73,1.17,1.49-.05.7-.11,1.34.17,2.02.19.46-.2.67-.64.72Zm3.3-28.82c-1.21,2.01-2.43,3.6-4.17,4.96.04-3.26,1.37-4.88,4.17-4.96Zm.13,19.54c.04-.63.38-.73.79-.75.76-.03,1.19.66,1.87.83.67.16,1.07.59,1,1.33-.04.41-.19.76-.61.89-.62.19-.98-.21-1.37-.62-.36-.39-.82-.69-1.2-1.05-.21-.2-.37-.47-.49-.62Zm15.83-9.75q3.02,4.35,2.16,6.27c-1.13-.85-.48-2.16-.86-3.16-.37-.98-1.9-1.42-1.3-3.11Zm11.18,13.48c.01-1.76,1.05-3.17,1.26-4.82.03-.21.3-.41.53-.28.16.09.36.36.33.51-.34,1.69-.93,3.29-2.12,4.59Zm-19.41-21.84c.2-1.42,1.37-1.59,2.05-2.21.18-.17.47-.15.59.07.1.17.15.46.07.63-.52,1.08-1.48,1.36-2.71,1.51Zm21.95,6.11c.02-.4.12-.77.58-.85.34-.06.57.12.69.44.13.36.28.71.39,1.08.11.38.13.77-.35.92-.34.1-.59-.1-.79-.34-.3-.36-.48-.78-.52-1.25Zm-22.42-2.99c.12-.68,1.07-1.18,1.84-.96.23.06.41.2.42.47,0,.6-1.01,1.26-1.75,1.13-.35-.06-.51-.3-.5-.64Zm9.24-5.45c1.18-.15,1.94.18,2.91,1.06-1.3.02-2.28.34-2.91-1.06Zm7.64,22.41q.3-1.65,1.19-2.47c.12.92-.11,1.64-1.19,2.47Zm7.13-9.86c-.25.66-.82.77-1.46.71-.1-.01-.26-.24-.24-.33.18-.69.74-.9,1.37-.91.24,0,.34.24.34.53Zm-27.25-1.81c.13-.43.42-.83.99-.94.26-.05.42.16.44.39.05.59-.15,1.05-.79,1.14-.31.05-.58-.1-.64-.6Zm2.18-12.48c.56-.84.86-1.38,1.74-1.36-.25.8-.59,1.23-1.74,1.36Zm3.28,13.91c.38-.03.51.14.49.41-.01.26-.2.42-.45.45-.26.02-.49-.12-.41-.39.05-.19.27-.34.37-.46Zm-15.88,11.6c-.27,0-.41-.14-.39-.4.02-.24.18-.4.42-.41.25-.02.41.13.39.39-.02.24-.19.37-.42.42Zm23.14-3.2c.08-.12.16-.36.32-.45.24-.14.45.04.44.29-.01.19-.14.43-.3.53-.23.14-.4-.02-.46-.37Z"/>
    <path class="cls-3" d="m247.21,348.44c.61.73,1,1.4,1.79.71.15-.13.29-.47.22-.59-.5-.88-1.15-.27-2.02-.12Z"/>
    <path class="cls-3" d="m373.04,402.09c-1.44-1.45-4.57-1.5-3.69-4.82,1.1-.12,1.8.63,2.44,1.32,1.14,1.24,2.57,1.88,4.12,2.42,3.36,1.17,6.81,1.86,10.36,2.11,1.69.12,3.38.14,5.06-.2,1.1-.22,2.23-.39,3.47.08-.39.93-1.21.94-1.76,1.15-2.53.97-5.19,1.56-7.88,1.28-1.96-.21-3.87-.94-5.79-1.46-1.31-.36-2.61-.75-3.92-1.12-.31.94.35,1.28.74,1.33,2.24.33,4.07,1.74,6.26,2.23,1.6.35,3.14.42,4.78.36,4.52-.14,8.45-2.03,12.48-3.71,1.19-.5,1.81-1.49,2.21-2.53.42-1.12,1.05-2.04,1.81-2.9,2.06-2.32,3.03-5.13,3.65-8.1.26-1.25-.13-2.44-.23-3.66-.23-2.98-.49-5.96-.86-8.94-.46-3.72-2.17-6.84-4.18-9.85-.96-1.43-2.51-2.01-4.19-2.1-1.26-.06-2.42-.36-3.53-.94-3.33-1.74-6.8-1.79-10.32-.79-1.49.42-2.99.73-4.53.77-4.88.13-8.63,2.55-11.78,5.99-1.34,1.46-2.48,3.12-3.62,4.76-.78,1.14-1.15,2.3-1.31,3.61-.64,5.36.38,10.54,1.67,15.69.27,1.07,1.01,1.71,1.99,2.07,1.15.43,1.61,1.27,1.8,2.44.52,3.15,1.2,3.66,4.76,3.5Zm21.59-33.94c2.91,1.11,4.98,3.01,5.85,5.99.2.67.84,1.65-.03,2.04-.86.39-1.22-.68-1.54-1.33-1.19-2.38-2.13-4.9-4.28-6.71Zm-6.47,4.55c1.63,0,2.81.16,3.84.89.7.49,1.37,1.09.95,2.07-.26.62-1.34.57-2.22-.17-.85-.72-1.75-1.43-2.58-2.79Zm17.1,13.78c1.06,2.11.65,4.36-1.12,5.96-.83-2.25-.16-4.14,1.12-5.96Zm-12.04,11.73c.14.02.84-.17.98.51.12.58-.4.96-.89,1.2-.86.43-1.77.48-2.69.18-.3-.1-.57-.26-.63-.59-.08-.48.26-.72.63-.83.73-.22,1.44-.57,2.61-.48Zm.71-10.29c-.53-1.72-.08-4.28.76-5.56,1.32,2.13.38,3.87-.76,5.56Zm-27.02-8.04c.68-4.01,1.13-4.83,3.04-5.58-.8,1.96-1.51,3.82-3.04,5.58Zm-.22,1.5c.23,1.69.01,3.31-1.13,5.06-.22-1.72.06-3.07,1.13-5.06Zm23.6-2.92c1.55.64,1.86,1.74,2.16,2.83.08.3.04.63-.26.8-.36.19-.6-.08-.72-.35-.43-.95-1.05-1.83-1.18-3.28Zm-12.46-6.63c1.56-2.13,2.33-2.51,4.48-2.36-1.42.69-2.57,1.72-4.48,2.36Zm3.99,8.87c1.62.41,2.01,1.39,2.19,2.54.05.3-.07.62-.44.68-.25.04-.46-.09-.55-.31-.37-.87-.73-1.76-1.2-2.91Zm-16.23,9.43c.35,1.06.71,2.11,1.04,3.18.11.34.26.77-.31.87-.34.06-.6-.22-.67-.49-.31-1.15-.68-2.29-.07-3.56Zm30.41,9.49c.35-.96,1.06-1.52,2.1-2.11-.1,1.56-.94,2-2.1,2.11Zm-16.4-18.25c.26,0,.48.12.53.34.18.71-.09,1.33-.51,1.89-.07.09-.32.14-.41.09-.56-.33-.46-.9-.43-1.42.03-.49.23-.89.82-.9Zm4.91-6.89c1.12.07,1.87,0,2.4.67.15.19.01.48-.21.53-.8.17-1.45-.09-2.19-1.2Zm19.27,4.24c.72.78.8,1.54.5,2.35-.1.26-.42.24-.56.09-.58-.63-.45-1.38-.28-2.12.01-.06.1-.1.34-.33Zm-21.04,21.35c-.2.45-.6.41-.97.4-.37,0-.91.02-.92-.44-.02-.69.62-.52,1.04-.52.36,0,.79.04.85.56Zm-2.57-14.36c-.05-.39.07-.59.31-.63.09-.02.28.13.33.24.1.23,0,.47-.21.57-.25.11-.4-.06-.43-.18Zm19.21-17.95c-.04-.18.05-.31.2-.25.19.08.36.23.5.39.05.06-.02.23-.03.36-.29-.07-.52-.23-.66-.5Zm-26.07,1.17c-.08-.27.11-.42.3-.54.12-.07.35-.15.42-.09.25.21.04.39-.13.53-.17.14-.36.28-.59.1Zm27.22,10.43c.26.03.37.21.43.43.05.18-.02.33-.19.33-.24,0-.41-.17-.41-.42,0-.11.12-.23.18-.34Zm-29.67-7.25c.11-.07.21-.13.32-.2.05.11.16.24.13.33-.03.09-.19.13-.29.2-.05-.11-.1-.22-.15-.33Z"/>
    <path class="cls-3" d="m545.14,311.52c0-.48-.13-.9-.61-1.13-.29.68.4.74.66,1.07,0,0-.05.06-.05.06Z"/>
    <path class="cls-3" d="m320.73,164.18c-1.13-2.02-2.9-3.48-4.43-5.16-.75-.83-1.24-1.67-1.32-2.84-.09-1.38-.41-1.74-1.72-3-.48.39-.21.82-.08,1.24.2.63.49,1.16.22,1.96-.38,1.13.53,2.04,1.22,2.81,1.28,1.43,2.68,2.75,4.08,4.06.56.53,1.29.84,2.09.87,0,0-.06.06-.06.06Z"/>
    <path class="cls-3" d="m311.71,152.78c-.19.94-.36,1.89.47,2.88.66-1.24-.47-1.93-.49-2.83,0-.01.03-.05.03-.05Z"/>
  </g>
  <polygon class="cls-1" points="469.02 182.24 494.94 188.53 476.52 180.51 466.29 180.51 462.2 180.89 469.02 182.24"/>
  <polygon class="cls-1" points="495.84 185.95 496.95 190.57 496.4 195.4 484.65 186.11 475.6 182.78 484.65 184.05 495.84 185.95"/>
</svg>